<svg width="104" height="120" viewBox="0 0 104 120" fill="none" xmlns="http://www.w3.org/2000/svg">
<path d="M51.9994 85.2986C44.8875 85.2986 37.9308 82.8512 32.4103 78.4068L7.58701 58.4226C-2.46434 50.6194 -2.46292 34.6298 7.58701 26.8279L32.4103 6.84362C43.4211 -2.28144 60.578 -2.28097 71.5885 6.84362L96.4118 26.8279C102.755 31.9349 105.438 40.2855 103.247 48.1022C102.547 50.5972 99.9424 52.0579 97.4256 51.3637C94.9102 50.6699 93.4383 48.0846 94.138 45.5894C95.3207 41.3701 93.8749 36.8643 90.4538 34.1103L65.6305 14.1258C57.7322 7.7672 46.2667 7.7672 38.3683 14.1258L13.545 34.1103C8.12568 38.3176 8.12639 46.9338 13.545 51.1404L38.3683 71.1247C46.2529 77.4722 57.6929 77.4835 65.59 71.1571L69.7366 67.6585C71.7251 65.9807 74.7085 66.2191 76.4001 68.1922C78.0915 70.165 77.8509 73.1245 75.8621 74.8023L71.6721 78.3377C71.6445 78.3611 71.6166 78.3841 71.5885 78.4068C66.0682 82.8512 59.1113 85.2986 51.9994 85.2986ZM71.5885 113.108L96.4118 93.124C106.463 85.3209 106.462 69.3313 96.4118 61.5293L71.5885 41.545C60.5777 32.42 43.4208 32.4204 32.4103 41.545L28.9107 44.3924C24.2192 48.5294 29.9039 55.3972 34.9061 51.6441L38.3761 48.8211C46.2747 42.4693 57.735 42.4712 65.6305 48.8274L90.4538 68.8117C95.8731 73.019 95.8724 81.6352 90.4538 85.8419L65.6305 105.826C57.7322 112.185 46.2667 112.185 38.3683 105.826L13.545 85.8419C10.4108 83.3185 8.91182 79.2978 9.63297 75.3491C10.0984 72.8007 8.393 70.3606 5.82421 69.8989C3.25683 69.4379 0.795585 71.1287 0.329949 73.6771C-1.00598 80.9928 1.7746 88.4445 7.58701 93.124L32.4103 113.108C37.9306 117.552 44.8875 120 51.9994 120C59.1113 120 66.0682 117.553 71.5885 113.108Z" fill="#F67952"/>
</svg>
