<svg width="44" height="19" viewBox="0 0 44 19" fill="none" xmlns="http://www.w3.org/2000/svg">
<path fill-rule="evenodd" clip-rule="evenodd" d="M8.21858 2.69512C7.70871 3.30587 6.89291 3.78759 6.07711 3.71877C5.97514 2.89297 6.37454 2.01556 6.84192 1.47362C7.3518 0.84567 8.24408 0.398361 8.9664 0.363953C9.05138 1.22416 8.71996 2.06717 8.21858 2.69512ZM8.95783 3.88219C8.23913 3.84031 7.58334 4.10098 7.05365 4.31152C6.71278 4.44702 6.42412 4.56175 6.20452 4.56175C5.95807 4.56175 5.6575 4.44088 5.32002 4.30517C4.87782 4.12735 4.37226 3.92404 3.8421 3.9338C2.6269 3.951 1.49668 4.64777 0.876334 5.75744C-0.39835 7.97679 0.544916 11.2628 1.77711 13.0692C2.38046 13.9638 3.10278 14.9445 4.05455 14.9101C4.47327 14.8941 4.77447 14.7647 5.08618 14.6308C5.44505 14.4767 5.81786 14.3165 6.39997 14.3165C6.96189 14.3165 7.31839 14.4725 7.66061 14.6222C7.98601 14.7646 8.29849 14.9013 8.76238 14.8929C9.74814 14.8757 10.3685 13.9983 10.9718 13.1036C11.623 12.1435 11.9091 11.2064 11.9525 11.0642L11.9576 11.0477C11.9566 11.0467 11.9485 11.043 11.9343 11.0364L11.9343 11.0364C11.7166 10.9355 10.053 10.1646 10.0371 8.09721C10.021 6.36198 11.3566 5.4828 11.5669 5.3444C11.5797 5.33598 11.5883 5.3303 11.5922 5.32734C10.7424 4.05423 9.41672 3.91659 8.95783 3.88219ZM15.7817 14.7984V1.38769H20.753C23.3193 1.38769 25.1124 3.17692 25.1124 5.79196C25.1124 8.407 23.2853 10.2134 20.685 10.2134H17.8382V14.7984H15.7817ZM17.838 3.14236H20.209C21.9935 3.14236 23.0133 4.1058 23.0133 5.80041C23.0133 7.49503 21.9935 8.46706 20.2005 8.46706H17.838V3.14236ZM31.9023 13.1897C31.3584 14.2391 30.1602 14.9015 28.8685 14.9015C26.9565 14.9015 25.6223 13.7488 25.6223 12.0112C25.6223 10.2907 26.914 9.30151 29.3019 9.15527L31.8683 9.00043V8.26065C31.8683 7.16819 31.163 6.57464 29.9053 6.57464C28.8685 6.57464 28.1122 7.11657 27.9593 7.94238H26.1067C26.1662 6.20475 27.7808 4.94024 29.9648 4.94024C32.3187 4.94024 33.8483 6.18755 33.8483 8.12302V14.7982H31.9448V13.1897H31.9023ZM29.4207 13.3102C28.3245 13.3102 27.6277 12.7769 27.6277 11.9597C27.6277 11.1167 28.299 10.6264 29.5822 10.5489L31.8681 10.4027V11.1597C31.8681 12.4156 30.8144 13.3102 29.4207 13.3102ZM40.1622 15.3229C39.3379 17.6713 38.3946 18.4455 36.3891 18.4455C36.2362 18.4455 35.7263 18.4283 35.6073 18.3939V16.7853C35.7348 16.8025 36.0492 16.8197 36.2107 16.8197C37.1199 16.8197 37.6298 16.4326 37.9442 15.4262L38.1312 14.8326L34.647 5.06924H36.797L39.2189 12.9918H39.2614L41.6833 5.06924H43.7738L40.1622 15.3229Z" fill="black"/>
</svg>
