<svg width="18" height="18" viewBox="0 0 18 18" fill="none" xmlns="http://www.w3.org/2000/svg">
<path fill-rule="evenodd" clip-rule="evenodd" d="M12.6977 5.25C12.7216 5.19685 12.7328 5.13892 12.7304 5.08074H12.75C12.6661 3.07943 11.0137 1.5 9.00371 1.5C6.99375 1.5 5.34129 3.07943 5.25742 5.08074C5.24753 5.13673 5.24753 5.19401 5.25742 5.25H5.19878C4.23766 5.25 3.21026 5.88448 2.91198 7.59005L2.32868 12.2361C1.85143 15.6472 3.60796 16.5 5.9014 16.5H12.1189C14.4057 16.5 16.1092 15.2652 15.6849 12.2361L15.1083 7.59005C14.757 5.93223 13.7627 5.25 12.8148 5.25H12.6977ZM11.6199 5.25C11.599 5.19596 11.588 5.13865 11.5872 5.08074C11.5872 3.64262 10.4174 2.47679 8.97431 2.47679C7.53123 2.47679 6.36138 3.64262 6.36138 5.08074C6.37127 5.13673 6.37127 5.19401 6.36138 5.25H11.6199ZM6.82277 9.11142C6.45669 9.11142 6.15992 8.80597 6.15992 8.42919C6.15992 8.0524 6.45669 7.74695 6.82277 7.74695C7.18884 7.74695 7.48561 8.0524 7.48561 8.42919C7.48561 8.80597 7.18884 9.11142 6.82277 9.11142ZM10.5015 8.42919C10.5015 8.80597 10.7983 9.11142 11.1644 9.11142C11.5305 9.11142 11.8272 8.80597 11.8272 8.42919C11.8272 8.0524 11.5305 7.74695 11.1644 7.74695C10.7983 7.74695 10.5015 8.0524 10.5015 8.42919Z" fill="#F67952"/>
</svg>
