<svg width="25" height="24" viewBox="0 0 25 24" fill="none" xmlns="http://www.w3.org/2000/svg">
<path fill-rule="evenodd" clip-rule="evenodd" d="M8.15279 19.8203C8.57479 19.8203 8.91779 20.1633 8.91779 20.5853C8.91779 21.0073 8.57479 21.3493 8.15279 21.3493C7.73079 21.3493 7.38879 21.0073 7.38879 20.5853C7.38879 20.1633 7.73079 19.8203 8.15279 19.8203Z" stroke="black" stroke-opacity="0.5" stroke-width="1.5" stroke-linecap="round" stroke-linejoin="round"/>
<path fill-rule="evenodd" clip-rule="evenodd" d="M19.4051 19.8203C19.8271 19.8203 20.1701 20.1633 20.1701 20.5853C20.1701 21.0073 19.8271 21.3493 19.4051 21.3493C18.9831 21.3493 18.6401 21.0073 18.6401 20.5853C18.6401 20.1633 18.9831 19.8203 19.4051 19.8203Z" stroke="black" stroke-opacity="0.5" stroke-width="1.5" stroke-linecap="round" stroke-linejoin="round"/>
<path d="M3.48035 3.25L5.56035 3.61L6.52335 15.083C6.60135 16.018 7.38235 16.736 8.32035 16.736H19.2323C20.1283 16.736 20.8883 16.078 21.0173 15.19L21.9663 8.632C22.0833 7.823 21.4563 7.099 20.6393 7.099H5.89435" stroke="black" stroke-opacity="0.5" stroke-width="1.5" stroke-linecap="round" stroke-linejoin="round"/>
<path d="M14.8558 10.7949H17.6288" stroke="black" stroke-opacity="0.5" stroke-width="1.5" stroke-linecap="round" stroke-linejoin="round"/>
</svg>
