<svg width="24" height="24" viewBox="0 0 24 24" fill="none" xmlns="http://www.w3.org/2000/svg">
<path d="M16.34 1.99976H7.67C4.28 1.99976 2 4.37976 2 7.91976V16.0898C2 19.6198 4.28 21.9998 7.67 21.9998H16.34C19.73 21.9998 22 19.6198 22 16.0898V7.91976C22 4.37976 19.73 1.99976 16.34 1.99976Z" fill="#F67952"/>
<g clip-path="url(#clip0_33_313)">
<path d="M7.39027 12.0114C7.39027 13.553 8.1562 14.9158 9.32826 15.7398C9.53481 15.8851 9.54579 16.1868 9.3474 16.343L9.34181 16.3474C9.21227 16.4494 9.03062 16.4561 8.89568 16.3614C7.52742 15.4005 6.63304 13.8103 6.63304 12.0114C6.63304 9.09348 9.04829 6.72473 11.9603 6.69983V7.45724C9.46623 7.48196 7.39027 9.51151 7.39027 12.0114Z" fill="white"/>
<path d="M12.0993 6.02261L13.4909 6.97448C13.5654 7.02548 13.5654 7.13543 13.4909 7.18643L12.0993 8.1383C12.0141 8.19662 11.8984 8.13556 11.8984 8.03238V6.12863C11.8984 6.02536 12.0141 5.96438 12.0993 6.02261Z" fill="white"/>
<path d="M16.6027 11.9884C16.6027 10.4468 15.8367 9.08401 14.6646 8.25994C14.4581 8.11465 14.4471 7.81298 14.6455 7.6568L14.6511 7.6524C14.7806 7.55041 14.9623 7.54364 15.0972 7.63839C16.4656 8.59933 17.3599 10.1895 17.3599 11.9884C17.3599 14.9063 14.9487 17.2751 12.0366 17.3V16.5425C14.5307 16.5178 16.6027 14.4884 16.6027 11.9884Z" fill="white"/>
<path d="M11.8939 17.9772L10.5023 17.0253C10.4278 16.9743 10.4278 16.8644 10.5023 16.8134L11.8939 15.8615C11.979 15.8032 12.0948 15.8643 12.0948 15.9674V17.8712C12.0948 17.9745 11.979 18.0355 11.8939 17.9772Z" fill="white"/>
<path d="M14.3584 11.4098L12.0789 13.3002L11.5043 13.7768C11.3689 13.889 11.1975 13.9498 11.0232 13.9498C10.9941 13.9498 10.9651 13.9482 10.9358 13.9448C10.7325 13.9209 10.5453 13.8131 10.4226 13.6491L9.53615 12.4675C9.33602 12.2006 9.39013 11.8218 9.65709 11.6213C9.92425 11.4212 10.3031 11.4753 10.5033 11.7422L11.1017 12.5401L11.1066 12.5362L13.5869 10.4792C13.8439 10.2662 14.2249 10.3017 14.438 10.5587C14.651 10.8157 14.6154 11.1968 14.3584 11.4098Z" fill="white"/>
<path d="M14.3585 11.4098L12.079 13.3002C11.7062 13.1141 11.3783 12.8568 11.1066 12.5362L13.587 10.4792C13.844 10.2662 14.225 10.3017 14.438 10.5587C14.6511 10.8157 14.6155 11.1968 14.3585 11.4098Z" fill="white"/>
</g>
<defs>
<clipPath id="clip0_33_313">
<rect width="12" height="12" fill="white" transform="translate(6 6)"/>
</clipPath>
</defs>
</svg>
