<svg width="18" height="19" viewBox="0 0 18 19" fill="none" xmlns="http://www.w3.org/2000/svg">
<path fill-rule="evenodd" clip-rule="evenodd" d="M5.8575 2H12.1432C14.46 2 15.75 3.335 15.75 5.6225V13.37C15.75 15.695 14.46 17 12.1432 17H5.8575C3.5775 17 2.25 15.695 2.25 13.37V5.6225C2.25 3.335 3.5775 2 5.8575 2ZM6.06005 5.49502V5.48752H8.3018C8.62505 5.48752 8.88755 5.75002 8.88755 6.07177C8.88755 6.40252 8.62505 6.66502 8.3018 6.66502H6.06005C5.7368 6.66502 5.47505 6.40252 5.47505 6.08002C5.47505 5.75752 5.7368 5.49502 6.06005 5.49502ZM6.06005 10.055H11.94C12.2625 10.055 12.525 9.79251 12.525 9.47001C12.525 9.14751 12.2625 8.88426 11.94 8.88426H6.06005C5.7368 8.88426 5.47505 9.14751 5.47505 9.47001C5.47505 9.79251 5.7368 10.055 6.06005 10.055ZM6.06001 13.4825H11.94C12.2393 13.4525 12.465 13.1968 12.465 12.8975C12.465 12.59 12.2393 12.335 11.94 12.305H6.06001C5.83501 12.2825 5.61751 12.3875 5.49751 12.5825C5.37751 12.77 5.37751 13.0175 5.49751 13.2125C5.61751 13.4 5.83501 13.5125 6.06001 13.4825Z" fill="#F67952"/>
</svg>
