<svg width="32" height="32" viewBox="0 0 32 32" fill="none" xmlns="http://www.w3.org/2000/svg">
<path d="M15.9956 0.0155029C7.21462 0.0155029 0.0960693 7.13405 0.0960693 15.915C0.0960693 23.7905 5.82816 30.3128 13.3439 31.5758V19.2321H9.50844V14.7901H13.3439V11.5148C13.3439 7.71443 15.665 5.64347 19.0557 5.64347C20.6796 5.64347 22.0751 5.76447 22.4803 5.81777V9.79014L20.1286 9.79127C18.285 9.79127 17.9296 10.6672 17.9296 11.9529V14.7878H22.3285L21.7548 19.2298H17.9296V31.682C25.7962 30.7245 31.8949 24.0361 31.8949 15.9105C31.8949 7.13405 24.7764 0.0155029 15.9956 0.0155029Z" fill="#076FE5"/>
</svg>
