<svg width="32" height="32" viewBox="0 0 32 32" fill="none" xmlns="http://www.w3.org/2000/svg">
<g clip-path="url(#clip0_33_1443)">
<path d="M29.8579 13.1538L17.2133 13.1532C16.6549 13.1532 16.2023 13.6057 16.2023 14.1641V18.2035C16.2023 18.7617 16.6549 19.2144 17.2132 19.2144H24.3339C23.5542 21.2379 22.0989 22.9325 20.2422 24.0093L23.2784 29.2653C28.1489 26.4485 31.0284 21.5061 31.0284 15.9735C31.0284 15.1857 30.9703 14.6225 30.8542 13.9884C30.7659 13.5067 30.3477 13.1538 29.8579 13.1538Z" fill="#167EE6"/>
<path d="M15.528 25.2833C12.0433 25.2833 9.0012 23.3794 7.36734 20.562L2.11151 23.5914C4.78617 28.2269 9.79667 31.3486 15.528 31.3486C18.3396 31.3486 20.9926 30.5915 23.278 29.2723V29.2651L20.2418 24.009C18.853 24.8145 17.2458 25.2833 15.528 25.2833Z" fill="#12B347"/>
<path d="M23.2782 29.2725V29.2653L20.242 24.0092C18.8531 24.8147 17.2461 25.2835 15.5282 25.2835V31.3488C18.3398 31.3488 20.9929 30.5917 23.2782 29.2725Z" fill="#0F993E"/>
<path d="M6.09342 15.8486C6.09342 14.1309 6.56217 12.5239 7.36751 11.1352L2.11168 8.10577C0.785155 10.384 0.0281982 13.0297 0.0281982 15.8486C0.0281982 18.6674 0.785155 21.3132 2.11168 23.5914L7.36751 20.5619C6.56217 19.1732 6.09342 17.5662 6.09342 15.8486Z" fill="#FFD500"/>
<path d="M15.528 6.41398C17.8004 6.41398 19.8877 7.22143 21.5181 8.56454C21.9203 8.89585 22.5049 8.87194 22.8733 8.50351L25.7353 5.64146C26.1533 5.22344 26.1236 4.5392 25.677 4.15183C22.9454 1.78208 19.3913 0.348755 15.528 0.348755C9.79667 0.348755 4.78617 3.47037 2.11151 8.10596L7.36734 11.1354C9.0012 8.31794 12.0433 6.41398 15.528 6.41398Z" fill="#FF4B26"/>
<path d="M21.5182 8.56454C21.9204 8.89585 22.5051 8.87194 22.8735 8.50351L25.7355 5.64146C26.1535 5.22344 26.1237 4.5392 25.6772 4.15182C22.9456 1.78202 19.3915 0.348755 15.5282 0.348755V6.41398C17.8005 6.41398 19.8879 7.22143 21.5182 8.56454Z" fill="#D93F21"/>
</g>
<defs>
<clipPath id="clip0_33_1443">
<rect width="31" height="31" fill="white" transform="translate(0.0281982 0.348755)"/>
</clipPath>
</defs>
</svg>
