<svg width="18" height="18" viewBox="0 0 18 18" fill="none" xmlns="http://www.w3.org/2000/svg">
<path d="M13.2824 2.09305C12.8331 1.9423 12.3606 1.87555 11.8874 1.87555C10.8449 1.86805 9.83314 2.21305 8.99989 2.8498C8.93239 2.79805 8.84989 2.7523 8.77489 2.70805C8.69989 2.6623 8.56489 2.55055 8.45239 2.49055L8.16739 2.36305C8.01739 2.28055 7.86064 2.22055 7.69489 2.1673C7.67989 2.15305 7.65739 2.1373 7.62739 2.12305H7.58314C7.13989 1.9723 6.68239 1.8898 6.20989 1.87555H6.12739C5.91739 1.87555 5.70814 1.8898 5.49739 1.92055H5.40739C5.18239 1.9498 4.95814 2.0023 4.74064 2.0773C1.94239 2.99305 0.94489 6.03055 1.79239 8.68555C2.27239 10.0423 3.04564 11.273 4.05064 12.2848C5.51239 13.6948 7.11064 14.9398 8.82739 16.0048L9.02239 16.1255L9.20989 16.0123C10.9206 14.9398 12.5099 13.6948 13.9581 12.2923C14.9699 11.2805 15.7424 10.0423 16.2149 8.68555C17.0481 6.03055 16.0506 2.99305 13.2824 2.09305V2.09305Z" fill="#F67952"/>
</svg>
