<svg width="21" height="22" viewBox="0 0 21 22" fill="none" xmlns="http://www.w3.org/2000/svg">
<path d="M7.92012 19.7193V16.6804C7.92012 15.9047 8.55359 15.2758 9.33502 15.2758H12.1915C12.5668 15.2758 12.9266 15.4238 13.192 15.6872C13.4573 15.9506 13.6064 16.3079 13.6064 16.6804V19.7193C13.604 20.0418 13.7314 20.352 13.9603 20.5808C14.1892 20.8097 14.5006 20.9384 14.8255 20.9384H16.7743C17.6845 20.9408 18.5582 20.5835 19.2027 19.9454C19.8471 19.3073 20.2093 18.4409 20.2092 17.5373V8.87997C20.2092 8.15009 19.8833 7.45776 19.3194 6.98949L12.6898 1.73323C11.5366 0.811632 9.88429 0.841389 8.7655 1.80391L2.28723 6.98949C1.69662 7.44396 1.34362 8.13834 1.32617 8.87997V17.5285C1.32617 19.4118 2.86403 20.9384 4.76108 20.9384H6.6654C7.34016 20.9385 7.88854 20.398 7.89342 19.7282L7.92012 19.7193Z" fill="#F67952"/>
</svg>
