<svg width="24" height="24" viewBox="0 0 24 24" fill="none" xmlns="http://www.w3.org/2000/svg">
<path d="M16.34 1.99976H7.67C4.28 1.99976 2 4.37976 2 7.91976V16.0898C2 19.6198 4.28 21.9998 7.67 21.9998H16.34C19.73 21.9998 22 19.6198 22 16.0898V7.91976C22 4.37976 19.73 1.99976 16.34 1.99976Z" fill="#F67952"/>
<path d="M11.7445 15.0167H12.9075V16.1797H11.7445V15.0167Z" fill="white"/>
<path d="M13.489 10.326C13.489 10.6562 13.3545 10.9611 13.1104 11.1844L11.7445 12.4347V13.8537H12.9075V12.9468L13.8956 12.0424C14.3762 11.6025 14.652 10.977 14.652 10.326C14.652 9.04336 13.6086 8 12.326 8C11.0434 8 10 9.04336 10 10.326H11.163C11.163 9.68467 11.6847 9.16299 12.326 9.16299C12.9673 9.16299 13.489 9.68467 13.489 10.326Z" fill="white"/>
</svg>
