<svg width="25" height="25" viewBox="0 0 25 25" fill="none" xmlns="http://www.w3.org/2000/svg">
<path fill-rule="evenodd" clip-rule="evenodd" d="M8.2688 9.21381H16.7312C19.0886 9.21381 21 11.083 21 13.3885V18.3253C21 20.6308 19.0886 22.5 16.7312 22.5H8.2688C5.91136 22.5 4 20.6308 4 18.3253V13.3885C4 11.083 5.91136 9.21381 8.2688 9.21381ZM12.4949 17.8294C12.9928 17.8294 13.3891 17.4419 13.3891 16.955V14.7489C13.3891 14.2719 12.9928 13.8843 12.4949 13.8843C12.0072 13.8843 11.6109 14.2719 11.6109 14.7489V16.955C11.6109 17.4419 12.0072 17.8294 12.4949 17.8294Z" fill="#F67952"/>
<path opacity="0.4" d="M18.0228 7.89595V9.36667C17.6672 9.2673 17.2912 9.21761 16.9051 9.21761H16.2446V7.89595C16.2446 5.87868 14.5679 4.23903 12.5052 4.23903C10.4424 4.23903 8.76579 5.86874 8.75563 7.87608V9.21761H8.1053C7.70901 9.21761 7.33304 9.2673 6.97739 9.37661V7.89595C6.98755 4.91476 9.45676 2.5 12.4849 2.5C15.5536 2.5 18.0228 4.91476 18.0228 7.89595Z" fill="#F67952"/>
</svg>
