<svg width="18" height="19" viewBox="0 0 18 19" fill="none" xmlns="http://www.w3.org/2000/svg">
<path fill-rule="evenodd" clip-rule="evenodd" d="M7.42151 8.9225C7.09339 8.9225 6.83394 9.1775 6.83394 9.5C6.83394 9.815 7.09339 10.0775 7.42151 10.0775H12V13.6625C12 15.5 10.4815 17 8.60429 17H4.88808C3.01853 17 1.5 15.5075 1.5 13.67V5.3375C1.5 3.4925 3.02616 2 4.89571 2H8.61955C10.4815 2 12 3.4925 12 5.33V8.9225H7.42151ZM14.7226 6.90516L16.9126 9.08766C17.0251 9.20016 17.0851 9.34266 17.0851 9.50016C17.0851 9.65016 17.0251 9.80016 16.9126 9.90516L14.7226 12.0877C14.6101 12.2002 14.4601 12.2602 14.3176 12.2602C14.1676 12.2602 14.0176 12.2002 13.9051 12.0877C13.6801 11.8627 13.6801 11.4952 13.9051 11.2702L15.1051 10.0777H12.0001V8.92266H15.1051L13.9051 7.73016C13.6801 7.50516 13.6801 7.13766 13.9051 6.91266C14.1301 6.68016 14.4976 6.68016 14.7226 6.90516Z" fill="#F67952"/>
</svg>
