<svg width="44" height="27" viewBox="0 0 44 27" fill="none" xmlns="http://www.w3.org/2000/svg">
<path fill-rule="evenodd" clip-rule="evenodd" d="M30.4809 26.5972C37.6833 26.5972 43.5219 20.6907 43.5219 13.4048C43.5219 6.11883 37.6833 0.212402 30.4809 0.212402C27.2531 0.212402 24.2991 1.39874 22.0219 3.36391C19.7446 1.39876 16.7907 0.212446 13.5629 0.212446C6.36053 0.212446 0.521881 6.11887 0.521881 13.4048C0.521881 20.6908 6.36053 26.5972 13.5629 26.5972C16.7907 26.5972 19.7447 25.4109 22.0219 23.4457C24.2991 25.4108 27.2531 26.5972 30.4809 26.5972Z" fill="#ED0006"/>
<path fill-rule="evenodd" clip-rule="evenodd" d="M22.0219 23.4456C24.8259 21.0259 26.6039 17.4253 26.6039 13.4047C26.6039 9.38409 24.8259 5.78355 22.0219 3.36383C24.2991 1.39867 27.2531 0.212341 30.4809 0.212341C37.6833 0.212341 43.5219 6.11877 43.5219 13.4047C43.5219 20.6907 37.6833 26.5971 30.4809 26.5971C27.2531 26.5971 24.2991 25.4108 22.0219 23.4456Z" fill="#F9A000"/>
<path fill-rule="evenodd" clip-rule="evenodd" d="M22.022 23.4456C24.8259 21.0259 26.6039 17.4253 26.6039 13.4047C26.6039 9.38414 24.8259 5.78362 22.022 3.36389C19.218 5.78362 17.44 9.38414 17.44 13.4047C17.44 17.4253 19.218 21.0259 22.022 23.4456Z" fill="#FF5E00"/>
</svg>
