<svg width="18" height="22" viewBox="0 0 18 22" fill="none" xmlns="http://www.w3.org/2000/svg">
<path fill-rule="evenodd" clip-rule="evenodd" d="M15.9026 7.68574C15.9026 8.98503 16.2442 9.75085 16.9959 10.6334C17.5656 11.2835 17.7477 12.1181 17.7477 13.0236C17.7477 13.928 17.4521 14.7865 16.8599 15.4836C16.0847 16.3192 14.9913 16.8527 13.8755 16.9454C12.2585 17.084 10.6405 17.2007 9.00099 17.2007C7.36048 17.2007 5.74349 17.1309 4.1265 16.9454C3.00964 16.8527 1.91631 16.3192 1.14208 15.4836C0.549897 14.7865 0.253296 13.928 0.253296 13.0236C0.253296 12.1181 0.436371 11.2835 1.00503 10.6334C1.78028 9.75085 2.09938 8.98503 2.09938 7.68574V7.245C2.09938 5.50497 2.53099 4.36717 3.41977 3.25334C4.74118 1.62896 6.85933 0.654755 8.95497 0.654755H9.04702C11.1877 0.654755 13.3743 1.67585 14.6732 3.37004C15.516 4.46095 15.9026 5.55081 15.9026 7.245V7.68574ZM5.98955 19.339C5.98955 18.8181 6.46514 18.5795 6.90493 18.4774C7.41938 18.368 10.5541 18.368 11.0686 18.4774C11.5084 18.5795 11.984 18.8181 11.984 19.339C11.9584 19.835 11.669 20.2747 11.2691 20.5539C10.7505 20.9603 10.142 21.2177 9.50581 21.3104C9.15398 21.3562 8.80829 21.3573 8.46873 21.3104C7.83155 21.2177 7.223 20.9603 6.70549 20.5529C6.30456 20.2747 6.01512 19.835 5.98955 19.339Z" fill="#F67952"/>
</svg>
