<svg width="324" height="327" viewBox="0 0 324 327" fill="none" xmlns="http://www.w3.org/2000/svg">
<path d="M240.969 130.474L250.939 174.937C246.792 175.99 239.933 177.467 233.551 177.48C226.304 177.501 218.097 176.308 213.638 175.064V174.504L211.537 166.921V166.916C215.665 166.704 219.477 164.517 221.877 160.972L239.046 135.607C240.135 134.04 240.754 132.27 240.92 130.474H240.969Z" fill="#5D9FEE"/>
<path d="M201.757 166.946L173.673 167.001V164.976V154.82V151.678L200.628 150.977L196.047 134.992C194.25 128.72 196.852 121.978 202.307 118.789L204.096 117.745C204.14 117.809 204.181 117.876 204.221 117.94C206.637 121.528 211.129 123.447 215.244 122.619C219.287 121.804 223.568 118.165 224.673 113.979C224.713 113.826 224.75 113.677 224.782 113.524L236.683 120.84C239.771 123.086 241.268 126.823 240.924 130.47C240.758 132.266 240.139 134.036 239.051 135.603L221.881 160.968C219.477 164.513 215.665 166.7 211.542 166.912C211.44 166.917 211.331 166.921 211.23 166.925L201.757 166.946Z" fill="#5D9FEE"/>
<path d="M197.803 87.8622C197.229 87.5693 196.666 87.2466 196.132 86.8857L195.877 86.563C194.275 83.7947 194.469 79.9988 196.359 77.4343C198.24 74.8698 201.688 73.6937 204.65 74.6193C206.232 75.1161 207.641 76.1308 209.235 76.5809C211.991 77.3536 215.066 76.3728 217.692 77.549C219.42 78.3175 220.675 79.9054 221.852 81.4382C222.633 82.4445 223.431 83.4847 223.811 84.7245C224.244 86.1214 224.102 87.6499 223.722 89.0638C223.338 90.4734 222.718 91.7982 222.184 93.1526C220.562 97.2244 221.043 101.606 218.793 103.572C218.312 101.793 217.907 99.738 217.62 97.356L217.616 97.3518C218.271 96.9866 218.842 96.4814 219.263 95.8445C220.133 94.524 220.181 92.5709 219.149 91.3863C218.437 90.5753 217.288 90.2229 216.272 90.5032C215.778 90.639 215.333 90.9235 214.977 91.3014C214.702 90.2611 214.435 89.2167 214.164 88.1764L213.868 88.0703C209.267 89.4757 204.278 90.2229 199.721 88.6689C199.058 88.4354 198.422 88.1679 197.803 87.8622Z" fill="black"/>
<path d="M213.642 175.064L214.152 176.537L204.124 204.352L202.744 204.255L191.879 203.486L191.041 203.427L201.753 166.95L211.222 166.933C211.323 166.929 211.432 166.925 211.534 166.921V166.925L213.634 174.508V175.064H213.642Z" fill="#5D9FEE"/>
<path d="M198.944 95.3391C198.977 95.5641 199.017 95.7934 199.057 96.0184C198.977 95.874 198.928 95.7042 198.928 95.5216C198.928 95.4622 198.932 95.3985 198.944 95.3391Z" fill="black"/>
<path d="M192.158 311.383V321.102H157.333L159.02 318.253C160.157 316.329 162.112 315.111 164.265 314.988L167.777 314.775C169.922 314.648 171.949 313.722 173.503 312.168L175.458 310.215C175.741 309.931 176.121 309.774 176.514 309.774H176.894C177.42 309.774 177.91 310.058 178.189 310.521L179.618 312.903C180.148 313.786 181.07 314.317 182.066 314.317H185.226C186.149 314.317 187.019 313.854 187.565 313.064L189.382 310.436C189.556 310.185 189.795 309.994 190.066 309.888C190.24 309.812 190.43 309.774 190.625 309.774C191.474 309.774 192.158 310.495 192.158 311.383Z" fill="black"/>
<path d="M192.984 307.086H174.75C174.62 307.086 174.499 307.027 174.418 306.921C174.337 306.814 174.304 306.679 174.329 306.547L188.241 233.433C189.083 229.017 191.126 225.009 194.145 221.841C194.44 221.527 194.756 221.213 195.088 220.899L196.164 219.893C203.744 212.802 215.665 201.542 220.825 196.663C220.727 196.612 220.65 196.527 220.61 196.413L213.237 175.217C213.18 175.06 213.217 174.882 213.322 174.759C213.431 174.636 213.593 174.585 213.747 174.627C218.036 175.829 226.122 177.03 233.349 177.03C233.418 177.03 233.482 177.03 233.547 177.03C239.649 177.018 246.314 175.646 250.834 174.5C251.033 174.449 251.235 174.551 251.324 174.746L251.36 174.822C253.351 179.225 259.191 194.417 250.636 205.036C249.462 206.488 248.046 207.809 246.436 208.955L211.914 236.49L193.396 306.755C193.344 306.95 193.174 307.086 192.984 307.086ZM175.272 306.186H192.656L211.125 236.108C211.149 236.014 211.206 235.929 211.279 235.87L245.934 208.233C247.5 207.117 248.855 205.851 249.98 204.463C258.053 194.451 252.732 180.049 250.701 175.468C246.148 176.606 239.589 177.926 233.555 177.939C233.486 177.939 233.422 177.939 233.353 177.939C226.474 177.939 218.817 176.856 214.322 175.718L214.556 176.389L221.419 196.107C227.586 190.277 232.167 185.934 232.167 185.934C232.341 185.768 232.612 185.781 232.774 185.968C232.932 186.15 232.92 186.435 232.742 186.605C232.742 186.605 228.052 191.05 221.771 196.986C216.835 201.656 204.509 213.303 196.735 220.572L195.659 221.574C195.343 221.871 195.035 222.177 194.752 222.478C191.851 225.523 189.892 229.374 189.083 233.611L175.272 306.186Z" fill="black"/>
<path d="M266.313 300.951C266.147 300.951 265.993 300.853 265.92 300.683L231.576 219.311C231.479 219.081 231.58 218.818 231.795 218.716C232.013 218.614 232.264 218.721 232.361 218.946L232.616 219.549L266.709 300.318C266.806 300.543 266.709 300.811 266.491 300.913C266.43 300.938 266.369 300.951 266.313 300.951Z" fill="black"/>
<path d="M271.674 260.267C271.504 260.267 271.343 260.16 271.274 259.982L250.579 205.21C250.49 204.981 250.6 204.718 250.822 204.624C251.041 204.535 251.292 204.645 251.381 204.879L272.075 259.651C272.164 259.88 272.055 260.143 271.832 260.237C271.78 260.258 271.727 260.267 271.674 260.267Z" fill="black"/>
<path d="M213.642 174.954C213.456 174.954 213.286 174.826 213.229 174.631L211.129 167.048C211.064 166.81 211.193 166.56 211.42 166.492C211.651 166.42 211.885 166.56 211.95 166.797L214.05 174.381C214.115 174.618 213.986 174.869 213.759 174.937C213.723 174.945 213.682 174.954 213.642 174.954Z" fill="black"/>
<path d="M250.94 175.391C250.745 175.391 250.567 175.251 250.523 175.043L240.552 130.58C240.499 130.338 240.641 130.096 240.872 130.036C241.102 129.981 241.333 130.13 241.39 130.372L251.36 174.835C251.413 175.077 251.271 175.319 251.041 175.378C251.004 175.387 250.972 175.391 250.94 175.391Z" fill="black"/>
<path d="M173.673 167.452C173.56 167.452 173.451 167.405 173.37 167.32C173.289 167.235 173.244 167.12 173.244 167.001V151.678C173.244 151.432 173.43 151.232 173.661 151.228L207.944 150.332L220.849 130.669C220.982 130.466 221.249 130.41 221.444 130.555C221.638 130.695 221.686 130.975 221.553 131.179L208.523 151.033C208.446 151.152 208.316 151.224 208.179 151.228L174.094 152.115V166.547L211.27 166.475L211.513 166.466C215.536 166.258 219.186 164.161 221.525 160.709L238.694 135.344C239.706 133.888 240.329 132.189 240.491 130.427C240.831 126.81 239.277 123.277 236.432 121.21L224.559 113.911C224.353 113.788 224.288 113.512 224.406 113.295C224.527 113.079 224.786 113.011 224.992 113.134L236.894 120.449C240.022 122.721 241.717 126.572 241.345 130.512C241.167 132.436 240.491 134.287 239.39 135.866L222.225 161.227C219.732 164.904 215.843 167.142 211.558 167.362L211.242 167.375L173.673 167.452Z" fill="black"/>
<path d="M192.158 321.552H157.333C157.175 321.552 157.033 321.463 156.957 321.323C156.88 321.178 156.884 321.004 156.969 320.868L158.656 318.019C159.866 315.973 161.954 314.673 164.24 314.542L167.753 314.33C169.788 314.211 171.727 313.328 173.208 311.846L175.162 309.893C175.518 309.536 176.012 309.328 176.514 309.328H176.894C177.574 309.328 178.193 309.685 178.553 310.283L179.982 312.665C180.435 313.417 181.216 313.867 182.066 313.867H185.226C186.011 313.867 186.756 313.468 187.217 312.801L189.034 310.173C189.261 309.85 189.564 309.608 189.912 309.468C190.123 309.375 190.37 309.328 190.62 309.328C191.705 309.328 192.583 310.249 192.583 311.383V321.102C192.587 321.352 192.397 321.552 192.158 321.552ZM158.106 320.652H191.729V311.383C191.729 310.746 191.231 310.228 190.624 310.228C190.483 310.228 190.349 310.253 190.232 310.304C190.026 310.385 189.86 310.521 189.73 310.704L187.913 313.332C187.29 314.232 186.286 314.767 185.23 314.767H182.07C180.921 314.767 179.873 314.16 179.257 313.145L177.829 310.763C177.627 310.428 177.279 310.228 176.898 310.228H176.518C176.235 310.228 175.959 310.343 175.757 310.542L173.803 312.495C172.176 314.122 170.043 315.094 167.806 315.225L164.293 315.438C162.282 315.557 160.449 316.699 159.389 318.495L158.106 320.652Z" fill="black"/>
<path d="M192.158 326.035H157.333C157.094 326.035 156.904 325.836 156.904 325.585V321.102C156.904 320.851 157.094 320.652 157.333 320.652C157.572 320.652 157.762 320.851 157.762 321.102V325.135H191.729V321.102C191.729 320.851 191.919 320.652 192.158 320.652C192.397 320.652 192.587 320.851 192.587 321.102V325.585C192.587 325.832 192.397 326.035 192.158 326.035Z" fill="black"/>
<path d="M176.894 310.228C176.87 310.228 176.846 310.224 176.817 310.22C176.583 310.177 176.429 309.944 176.469 309.697L176.906 307.095C176.947 306.848 177.169 306.687 177.404 306.73C177.639 306.772 177.793 307.006 177.752 307.252L177.315 309.855C177.283 310.071 177.101 310.228 176.894 310.228Z" fill="black"/>
<path d="M190.017 310.228C189.989 310.228 189.961 310.224 189.937 310.22C189.706 310.173 189.552 309.935 189.597 309.693L190.082 307.09C190.127 306.844 190.353 306.687 190.584 306.734C190.815 306.78 190.968 307.018 190.924 307.26L190.438 309.863C190.398 310.075 190.22 310.228 190.017 310.228Z" fill="black"/>
<path d="M200.628 151.428C200.442 151.428 200.272 151.3 200.215 151.109L195.634 135.128C193.793 128.704 196.512 121.668 202.097 118.403L203.885 117.359C204.075 117.248 204.314 117.303 204.444 117.49C204.492 117.558 204.537 117.635 204.581 117.702C206.884 121.125 211.238 122.976 215.163 122.182C219.25 121.358 223.244 117.707 224.256 113.864L224.268 113.822C224.301 113.694 224.333 113.567 224.357 113.44C224.406 113.198 224.632 113.04 224.863 113.091C225.094 113.142 225.243 113.38 225.195 113.622C225.166 113.767 225.13 113.907 225.094 114.051L225.081 114.098C223.989 118.246 219.704 122.182 215.321 123.065C211.133 123.906 206.487 121.97 203.962 118.339L202.513 119.184C197.277 122.246 194.728 128.844 196.456 134.864L201.036 150.846C201.105 151.084 200.976 151.334 200.749 151.406C200.713 151.423 200.668 151.428 200.628 151.428Z" fill="black"/>
<path d="M207.321 151.253C207.127 151.253 206.949 151.113 206.904 150.905L203.711 136.507C203.659 136.265 203.8 136.023 204.031 135.968C204.262 135.909 204.492 136.062 204.545 136.304L207.742 150.701C207.794 150.943 207.653 151.185 207.422 151.241C207.386 151.249 207.349 151.253 207.321 151.253Z" fill="black"/>
<path d="M204.124 204.803C204.116 204.803 204.104 204.803 204.096 204.803L191.017 203.873C190.888 203.864 190.766 203.792 190.693 203.677C190.62 203.563 190.6 203.423 190.637 203.291L201.348 166.815L201.769 166.921L202.174 167.065L202.165 167.091L191.616 203.011L203.837 203.877L213.808 176.219C213.893 175.986 214.139 175.871 214.362 175.96C214.585 176.049 214.694 176.308 214.609 176.542L214.552 176.699L204.525 204.51C204.464 204.688 204.302 204.803 204.124 204.803Z" fill="black"/>
<path d="M204.124 118.458C203.99 118.458 203.857 118.394 203.776 118.271C203.638 118.067 203.683 117.787 203.873 117.643C203.91 117.613 203.954 117.588 203.994 117.558C205.84 116.28 209.7 113.601 209.7 109.796C209.7 109.546 209.89 109.346 210.129 109.346C210.368 109.346 210.558 109.546 210.558 109.796C210.558 114.089 206.281 117.053 204.456 118.318C204.419 118.343 204.395 118.36 204.371 118.377C204.298 118.428 204.213 118.458 204.124 118.458Z" fill="black"/>
<path d="M226.202 115.703C226.101 115.703 226 115.664 225.919 115.592C225.782 115.469 225.604 115.325 225.389 115.155C225.114 114.934 224.774 114.662 224.394 114.327C221.622 111.885 219.651 108.404 218.372 103.687C217.858 101.78 217.458 99.67 217.183 97.407C217.154 97.1607 217.32 96.9357 217.555 96.906C217.79 96.8762 218.004 97.0503 218.036 97.2966C218.303 99.5129 218.696 101.585 219.198 103.445C220.428 107.983 222.306 111.317 224.944 113.639C225.308 113.962 225.624 114.216 225.907 114.441C226.142 114.628 226.336 114.785 226.482 114.921C226.66 115.087 226.676 115.371 226.522 115.558C226.441 115.652 226.32 115.703 226.202 115.703Z" fill="black"/>
<path d="M209.672 110C208.106 110 206.495 109.516 205.128 108.637C202.396 106.884 200.875 103.975 200.081 101.844C199.329 99.8355 198.912 97.721 198.633 96.0991C198.588 95.8528 198.746 95.6193 198.977 95.5769C199.211 95.5302 199.434 95.6957 199.474 95.9378C199.766 97.6149 200.158 99.5892 200.879 101.517C201.627 103.521 203.048 106.247 205.577 107.873C206.807 108.667 208.264 109.104 209.672 109.104C210.821 109.104 211.91 108.811 212.816 108.251C213.023 108.128 213.286 108.2 213.403 108.412C213.52 108.629 213.456 108.905 213.249 109.028C212.213 109.665 210.975 110 209.672 110Z" fill="black"/>
<path d="M198.944 95.7894C198.738 95.7894 198.556 95.6365 198.524 95.4157C198.418 94.7831 198.321 94.1462 198.228 93.5136L197.318 87.4971C197.281 87.2509 197.439 87.0216 197.674 86.9834C197.904 86.9409 198.127 87.1108 198.163 87.357L199.074 93.3734C199.167 94.0018 199.268 94.6345 199.369 95.2629C199.41 95.5091 199.252 95.7427 199.017 95.7809C198.993 95.7894 198.969 95.7894 198.944 95.7894Z" fill="black"/>
<path d="M215.345 98.5067C215.131 98.5067 214.945 98.3368 214.92 98.1033C214.896 97.8571 215.066 97.6363 215.301 97.6066C216.062 97.5174 216.794 97.2881 217.409 96.9399C218.036 96.5918 218.538 96.1332 218.906 95.5728C219.708 94.3584 219.675 92.6474 218.83 91.6708C218.227 90.983 217.239 90.6815 216.381 90.9193C215.973 91.0297 215.592 91.2674 215.281 91.5986C214.941 91.9553 214.71 92.3884 214.609 92.8469C214.556 93.0889 214.33 93.2418 214.095 93.1866C213.864 93.1314 213.719 92.8894 213.771 92.6474C213.909 92.019 214.22 91.4373 214.67 90.9617C215.09 90.5159 215.604 90.2017 216.159 90.0489C217.316 89.7262 218.643 90.1338 219.461 91.0636C220.582 92.3586 220.646 94.5155 219.611 96.0823C219.165 96.7616 218.558 97.3178 217.81 97.7297C217.102 98.1288 216.264 98.3963 215.39 98.4939C215.374 98.5067 215.358 98.5067 215.345 98.5067Z" fill="black"/>
<path d="M214.989 91.8065C214.791 91.8065 214.617 91.6664 214.573 91.4584C214.568 91.4414 214.556 91.3862 214.552 91.3777C214.419 90.8767 214.281 90.3417 214.14 89.8067C214.01 89.3015 213.876 88.7962 213.743 88.2909C213.678 88.0532 213.812 87.8027 214.042 87.739C214.269 87.6753 214.508 87.8112 214.568 88.0532C214.702 88.5584 214.836 89.0679 214.965 89.5732C215.103 90.1082 215.244 90.6432 215.382 91.1739C215.394 91.2249 215.402 91.2461 215.406 91.2673C215.455 91.5093 215.305 91.7513 215.074 91.8023C215.046 91.8065 215.018 91.8065 214.989 91.8065Z" fill="black"/>
<path d="M205.213 89.9682C203.177 89.9682 201.308 89.6752 199.58 89.085C198.936 88.8685 198.277 88.5925 197.621 88.2656C197.002 87.9514 196.423 87.6117 195.901 87.2593C195.703 87.1235 195.642 86.8475 195.772 86.6394C195.901 86.4314 196.164 86.3677 196.363 86.5036C196.856 86.8347 197.407 87.1574 197.993 87.4546C198.609 87.7603 199.236 88.0193 199.847 88.2274C203.638 89.5181 208.183 89.3228 213.743 87.6245C213.974 87.5523 214.208 87.6924 214.273 87.9302C214.338 88.1679 214.208 88.4184 213.982 88.4864C210.748 89.4757 207.843 89.9682 205.213 89.9682Z" fill="black"/>
<path d="M218.789 104.009C218.668 104.009 218.542 103.954 218.457 103.848C218.307 103.657 218.332 103.372 218.514 103.215C219.736 102.149 220.092 100.213 220.505 97.9757C220.788 96.4217 221.112 94.6639 221.788 92.9741C221.925 92.6217 222.071 92.2693 222.216 91.9211C222.617 90.953 223.034 89.951 223.309 88.9362C223.73 87.3822 223.762 86.0108 223.402 84.8602C223.042 83.6883 222.265 82.6863 221.516 81.7182C220.428 80.3043 219.194 78.7036 217.522 77.9606C216.155 77.3492 214.657 77.3534 213.071 77.3619C211.764 77.3662 210.417 77.3747 209.122 77.0095C208.256 76.7633 207.442 76.3599 206.661 75.9735C205.937 75.6126 205.253 75.273 204.525 75.0437C201.753 74.1818 198.463 75.2984 196.694 77.7059C194.926 80.109 194.736 83.735 196.241 86.3293C196.363 86.5415 196.298 86.8175 196.095 86.9492C195.893 87.0765 195.63 87.0128 195.505 86.8005C193.797 83.8539 194.003 79.8882 196.011 77.1624C198.018 74.4323 201.615 73.2095 204.763 74.1903C205.556 74.4365 206.301 74.8101 207.021 75.1668C207.806 75.5574 208.543 75.9226 209.336 76.1476C210.518 76.4788 211.809 76.4703 213.059 76.466C214.661 76.4576 216.325 76.4491 217.85 77.1327C219.72 77.9648 221.079 79.7311 222.176 81.1493C222.937 82.1343 223.799 83.2467 224.211 84.5799C224.624 85.9004 224.592 87.4502 224.126 89.1782C223.831 90.2525 223.406 91.28 222.993 92.2777C222.848 92.6259 222.706 92.9698 222.569 93.318C221.929 94.9229 221.63 96.5619 221.338 98.1456C220.897 100.557 220.513 102.638 219.056 103.907C218.983 103.979 218.886 104.009 218.789 104.009Z" fill="black"/>
<path d="M157.102 157.546C156.677 157.546 156.172 157.495 155.73 157.312C155.2 157.087 154.86 156.697 154.747 156.183C154.63 155.644 154.739 154.82 155.925 153.937C160.295 150.651 166.373 150.319 171.047 153.109C171.221 153.211 171.395 153.321 171.569 153.432C172.241 153.852 172.872 154.243 173.576 154.387C173.811 154.434 173.96 154.671 173.916 154.913C173.871 155.16 173.645 155.317 173.414 155.27C172.568 155.096 171.84 154.642 171.136 154.204C170.966 154.098 170.796 153.992 170.626 153.894C166.304 151.317 160.465 151.636 156.422 154.676C156.062 154.947 155.471 155.474 155.585 155.988C155.617 156.128 155.698 156.336 156.05 156.484C156.382 156.62 156.859 156.68 157.402 156.646L157.717 156.624C159.769 156.497 161.825 156.365 163.876 156.234C164.111 156.221 164.317 156.408 164.33 156.654C164.346 156.9 164.164 157.117 163.929 157.13C161.877 157.261 159.822 157.393 157.77 157.52L157.454 157.542C157.341 157.542 157.224 157.546 157.102 157.546Z" fill="black"/>
<path d="M164.164 161.55C164.16 161.55 164.151 161.55 164.147 161.55C161.8 161.456 159.453 161.354 157.11 161.257L156.155 161.214C155.593 161.193 154.096 161.138 153.565 159.987C153.189 159.185 153.513 158.251 154.003 157.686C154.496 157.121 155.168 156.798 155.706 156.535C155.921 156.429 156.176 156.531 156.277 156.756C156.378 156.981 156.281 157.248 156.066 157.355C155.573 157.592 155.01 157.864 154.638 158.293C154.355 158.62 154.14 159.168 154.338 159.592C154.614 160.187 155.528 160.289 156.192 160.314L157.151 160.356C159.498 160.454 161.841 160.556 164.188 160.649C164.423 160.658 164.609 160.866 164.601 161.116C164.58 161.359 164.39 161.55 164.164 161.55Z" fill="black"/>
<path d="M168.012 165.817C165.062 165.817 162.116 165.468 159.211 164.781C158.345 164.573 157.365 164.288 156.706 163.511C156.297 163.031 156.095 162.335 156.18 161.69C156.248 161.163 156.503 160.734 156.892 160.475C157.09 160.344 157.357 160.407 157.483 160.615C157.608 160.823 157.547 161.104 157.349 161.235C157.126 161.38 157.054 161.63 157.029 161.813C156.977 162.199 157.102 162.628 157.345 162.912C157.835 163.494 158.66 163.728 159.397 163.902C163.994 164.993 168.688 165.205 173.353 164.53C173.588 164.492 173.803 164.666 173.835 164.912C173.867 165.159 173.701 165.384 173.471 165.418C171.658 165.685 169.833 165.817 168.012 165.817Z" fill="black"/>
<path d="M265.819 311.298H197.904C197.666 311.298 197.475 311.099 197.475 310.848C197.475 310.598 197.666 310.398 197.904 310.398H265.815C274.009 310.398 280.674 303.405 280.674 294.807V85.0345C280.674 76.4408 274.009 69.4479 265.815 69.4479H223.778C223.54 69.4479 223.35 69.2483 223.35 68.9978C223.35 68.7473 223.54 68.5477 223.778 68.5477H265.815C274.483 68.5477 281.532 75.9441 281.532 85.0345V294.803C281.536 303.898 274.487 311.298 265.819 311.298Z" fill="black"/>
<path d="M161.023 143.224C160.785 143.224 160.594 143.025 160.594 142.774V85.0345C160.594 75.9441 167.644 68.5477 176.308 68.5477H194.186C194.424 68.5477 194.614 68.7473 194.614 68.9978C194.614 69.2483 194.424 69.4479 194.186 69.4479H176.308C168.117 69.4479 161.452 76.4408 161.452 85.0345V142.774C161.452 143.025 161.258 143.224 161.023 143.224Z" fill="black"/>
<path d="M170.587 310.5C170.537 310.5 170.486 310.492 170.436 310.469C164.704 308.192 161 302.764 161 296.646V190.906C161 190.68 161.182 190.5 161.41 190.5C161.639 190.5 161.82 190.68 161.82 190.906V296.642C161.82 302.43 165.323 307.56 170.742 309.714C170.951 309.798 171.055 310.032 170.97 310.243C170.901 310.4 170.75 310.5 170.587 310.5Z" fill="black"/>
<path d="M265.819 301.396H199.046C198.807 301.396 198.617 301.197 198.617 300.946C198.617 300.696 198.807 300.496 199.046 300.496H265.819C265.981 300.496 266.143 300.488 266.3 300.471C269.076 300.216 271.245 297.728 271.245 294.802V85.0342C271.245 81.8965 268.813 79.3447 265.819 79.3447H224.074C223.835 79.3447 223.645 79.1452 223.645 78.8946C223.645 78.6441 223.835 78.4446 224.074 78.4446H265.815C269.279 78.4446 272.099 81.3997 272.099 85.0342V294.802C272.099 298.186 269.586 301.069 266.377 301.367C266.199 301.388 266.009 301.396 265.819 301.396Z" fill="black"/>
<path d="M170.456 143.224C170.217 143.224 170.027 143.025 170.027 142.774V85.0342C170.027 81.3997 172.844 78.4446 176.308 78.4446H192.688C192.927 78.4446 193.117 78.6441 193.117 78.8946C193.117 79.1452 192.927 79.3447 192.688 79.3447H176.308C173.317 79.3447 170.885 81.8965 170.885 85.0342V142.774C170.885 143.025 170.695 143.224 170.456 143.224Z" fill="black"/>
<path d="M173.803 300.802C173.742 300.802 173.677 300.789 173.621 300.76C171.439 299.673 170.031 297.338 170.031 294.803V178.478C170.031 178.228 170.221 178.028 170.46 178.028C170.699 178.028 170.889 178.228 170.889 178.478V294.807C170.889 296.994 172.107 299.01 173.989 299.949C174.203 300.055 174.292 300.322 174.191 300.547C174.118 300.709 173.965 300.802 173.803 300.802Z" fill="black"/>
<path d="M194.55 216.963C194.396 216.963 194.238 216.946 194.084 216.908C193.344 216.725 192.777 216.16 192.563 215.4C192.146 213.948 192.393 212.373 193.21 211.286C193.53 210.857 193.927 210.484 194.311 210.123C195.023 209.448 195.695 208.811 195.739 207.966C195.752 207.719 195.946 207.511 196.193 207.541C196.427 207.554 196.609 207.766 196.597 208.017C196.533 209.231 195.695 210.025 194.886 210.789C194.513 211.142 194.161 211.473 193.886 211.842C193.239 212.7 193.048 213.965 193.384 215.141C193.514 215.591 193.846 215.922 194.279 216.029C194.732 216.135 195.189 215.978 195.489 215.6L199.859 210.118C201.251 208.373 202.586 206.497 202.311 204.471C202.279 204.225 202.441 203.996 202.675 203.962C202.91 203.924 203.129 204.098 203.161 204.344C203.485 206.739 201.967 208.879 200.519 210.696L196.148 216.177C195.743 216.687 195.161 216.963 194.55 216.963Z" fill="black"/>
<path d="M193.991 222.618C193.639 222.618 193.255 222.414 192.887 222.024C191.758 220.814 190.892 219.213 190.374 217.4C189.929 215.846 189.726 214.131 189.754 212.165C189.803 209.197 190.398 206.182 191.47 203.444C191.559 203.214 191.814 203.108 192.029 203.197C192.247 203.291 192.352 203.554 192.263 203.783C191.227 206.416 190.657 209.316 190.608 212.173C190.58 214.046 190.77 215.668 191.191 217.137C191.669 218.814 192.462 220.283 193.494 221.387C193.732 221.642 193.951 221.744 194.02 221.701C194.068 221.659 194.137 221.54 194.097 221.085C193.959 219.663 193.821 218.236 193.688 216.806C193.664 216.559 193.838 216.338 194.072 216.313C194.307 216.292 194.517 216.47 194.542 216.716C194.675 218.147 194.813 219.574 194.95 221C194.991 221.451 194.983 222.007 194.602 222.363C194.55 222.41 194.501 222.448 194.449 222.482C194.311 222.576 194.157 222.618 193.991 222.618Z" fill="black"/>
<path d="M195.225 221.132C194.991 221.132 194.764 221.086 194.554 220.996C194.335 220.899 194.234 220.636 194.323 220.406C194.416 220.177 194.667 220.071 194.886 220.164C195.254 220.326 195.743 220.198 196.104 219.846C196.14 219.812 196.168 219.782 196.193 219.748C196.52 219.353 196.711 218.784 196.771 218.041C196.779 217.952 196.783 217.863 196.787 217.782C196.824 216.827 196.654 215.872 196.294 215.005C196.217 214.836 196.241 214.628 196.375 214.492C196.545 214.318 196.812 214.313 196.978 214.487L196.982 214.492C197.018 214.53 197.051 214.577 197.071 214.628C197.488 215.617 197.686 216.717 197.641 217.808C197.637 217.918 197.633 218.024 197.621 218.122C197.548 219.052 197.285 219.795 196.844 220.326C196.804 220.381 196.747 220.44 196.682 220.504C196.274 220.911 195.739 221.132 195.225 221.132Z" fill="black"/>
<path d="M197.702 218.33C197.516 218.33 197.33 218.287 197.152 218.194C196.941 218.084 196.852 217.812 196.961 217.591C197.067 217.37 197.326 217.281 197.536 217.392C197.759 217.51 198.095 217.349 198.269 217.128C198.495 216.827 198.58 216.394 198.637 215.969C198.786 214.755 198.73 213.536 198.463 212.352C198.41 212.11 198.552 211.868 198.782 211.812C199.013 211.757 199.244 211.906 199.296 212.148C199.584 213.439 199.648 214.763 199.482 216.088C199.414 216.615 199.296 217.213 198.936 217.689C198.657 218.05 198.188 218.33 197.702 218.33Z" fill="black"/>
<path d="M187.755 291.122C187.723 291.122 187.691 291.117 187.658 291.109C187.428 291.054 187.282 290.812 187.339 290.57L199.175 236.995C199.867 233.849 201.478 231.08 203.833 228.991L236.659 199.873C236.841 199.712 237.108 199.737 237.262 199.928C237.416 200.119 237.391 200.404 237.209 200.561L204.383 229.679C202.174 231.641 200.66 234.244 200.009 237.199L188.172 290.773C188.128 290.981 187.95 291.122 187.755 291.122Z" fill="black"/>
<path d="M154.589 91.5521H123.151C117.785 91.5521 113.419 86.9708 113.419 81.3408V41.0897C113.419 35.4597 117.785 30.8784 123.151 30.8784H200.134C205.5 30.8784 209.866 35.4597 209.866 41.0897V62.8287C209.866 63.0792 209.676 63.2788 209.437 63.2788C209.199 63.2788 209.008 63.0792 209.008 62.8287V41.0897C209.008 35.9564 205.027 31.7785 200.134 31.7785H123.151C118.259 31.7785 114.277 35.9564 114.277 41.0897V81.3408C114.277 86.4741 118.259 90.652 123.151 90.652H154.589C154.828 90.652 155.018 90.8516 155.018 91.1021C155.018 91.3526 154.824 91.5521 154.589 91.5521Z" fill="black"/>
<path d="M143.971 75.8762C135.615 75.8762 128.816 68.7431 128.816 59.9753C128.816 51.2076 135.615 44.0745 143.971 44.0745C147.216 44.0745 150.312 45.1359 152.922 47.1442C153.112 47.2928 153.153 47.5731 153.015 47.7726C152.874 47.9722 152.606 48.0147 152.416 47.8703C149.956 45.9766 147.034 44.9746 143.971 44.9746C136.088 44.9746 129.674 51.7043 129.674 59.9753C129.674 68.2463 136.088 74.9761 143.971 74.9761C151.854 74.9761 158.268 68.2463 158.268 59.9753C158.268 57.173 157.527 54.4429 156.123 52.0737C155.998 51.8614 156.058 51.5854 156.261 51.4538C156.463 51.3222 156.726 51.3859 156.851 51.5982C158.336 54.1075 159.122 57.0074 159.122 59.9753C159.126 68.7431 152.327 75.8762 143.971 75.8762Z" fill="#F67952"/>
<path d="M141.365 59.9754C141.365 58.4638 142.534 57.241 143.971 57.241C145.412 57.241 146.577 58.4681 146.577 59.9754C146.577 61.4869 145.408 62.7097 143.971 62.7097C142.53 62.714 141.365 61.4869 141.365 59.9754Z" fill="#F67952"/>
<path d="M143.971 63.164C142.296 63.164 140.936 61.7331 140.936 59.9796C140.936 58.2218 142.3 56.7952 143.971 56.7952C145.646 56.7952 147.006 58.226 147.006 59.9796C147.01 61.7331 145.646 63.164 143.971 63.164ZM143.971 57.691C142.769 57.691 141.794 58.7186 141.794 59.9753C141.794 61.2364 142.773 62.2639 143.971 62.2639C145.173 62.2639 146.152 61.2364 146.152 59.9753C146.152 58.7186 145.173 57.691 143.971 57.691Z" fill="#F67952"/>
<path d="M143.971 57.6911C143.732 57.6911 143.542 57.4915 143.542 57.241V50.5665C143.542 50.3159 143.732 50.1164 143.971 50.1164C144.21 50.1164 144.4 50.3159 144.4 50.5665V57.241C144.4 57.4915 144.21 57.6911 143.971 57.6911Z" fill="black"/>
<path d="M148.928 67.1806C148.438 67.1806 147.949 66.9853 147.572 66.5947L144.177 63.0324C144.011 62.8583 144.011 62.5738 144.177 62.3955C144.343 62.2214 144.614 62.2214 144.784 62.3955L148.179 65.9578C148.58 66.3781 149.276 66.3781 149.677 65.9578C150.089 65.5247 150.089 64.8199 149.677 64.3868L146.233 60.7736C146.067 60.5995 146.067 60.315 146.233 60.1367C146.399 59.9583 146.67 59.9626 146.84 60.1367L150.284 63.7499C151.032 64.5354 151.032 65.8092 150.284 66.5947C149.911 66.9853 149.422 67.1806 148.928 67.1806Z" fill="black"/>
<path d="M196.132 47.8277H173.487C173.248 47.8277 173.058 47.6282 173.058 47.3777C173.058 47.1272 173.248 46.9276 173.487 46.9276H196.132C196.371 46.9276 196.561 47.1272 196.561 47.3777C196.561 47.6239 196.371 47.8277 196.132 47.8277Z" fill="black"/>
<path d="M196.132 52.3285H173.487C173.248 52.3285 173.058 52.129 173.058 51.8785C173.058 51.628 173.248 51.4284 173.487 51.4284H196.132C196.371 51.4284 196.561 51.628 196.561 51.8785C196.561 52.129 196.371 52.3285 196.132 52.3285Z" fill="black"/>
<path d="M196.132 56.8293H173.487C173.248 56.8293 173.058 56.6297 173.058 56.3792C173.058 56.1287 173.248 55.9291 173.487 55.9291H196.132C196.371 55.9291 196.561 56.1287 196.561 56.3792C196.561 56.6255 196.371 56.8293 196.132 56.8293Z" fill="black"/>
<path d="M17.3965 149.458C17.3155 149.458 17.2346 149.436 17.1658 149.385C15.6038 148.328 14.0985 147.114 12.6943 145.785C12.5203 145.619 12.5041 145.335 12.6619 145.148C12.8197 144.965 13.0908 144.948 13.2689 145.114C14.6407 146.413 16.1096 147.594 17.6312 148.625C17.8294 148.761 17.8861 149.037 17.7566 149.25C17.6757 149.385 17.5381 149.458 17.3965 149.458ZM9.69168 142.354C9.57028 142.354 9.44888 142.299 9.3639 142.197C8.15396 140.711 7.03304 139.11 6.02948 137.433C5.90403 137.221 5.96473 136.945 6.16301 136.813C6.3613 136.682 6.62838 136.745 6.75382 136.953C7.73311 138.592 8.82974 140.159 10.0154 141.611C10.1692 141.802 10.1489 142.082 9.96685 142.244C9.88996 142.32 9.78879 142.354 9.69168 142.354ZM4.13565 133.302C3.97379 133.302 3.82002 133.204 3.74718 133.043C2.94999 131.26 2.27016 129.404 1.73196 127.523C1.66316 127.286 1.79266 127.035 2.01927 126.963C2.24588 126.891 2.48463 127.027 2.55342 127.264C3.08353 129.103 3.74718 130.916 4.52413 132.661C4.6253 132.886 4.53222 133.153 4.31775 133.26C4.2611 133.285 4.19635 133.302 4.13565 133.302ZM1.06022 123.027C0.853839 123.027 0.67174 122.87 0.639367 122.653C0.32373 120.696 0.149725 118.717 0.121399 116.764C0.117352 116.518 0.307544 116.31 0.546295 116.31C0.789093 116.314 0.979284 116.505 0.979284 116.756C1.00356 118.658 1.17352 120.594 1.48511 122.505C1.52558 122.751 1.36776 122.984 1.13306 123.023C1.10878 123.027 1.0845 123.027 1.06022 123.027ZM22.0744 113.185C20.31 113.185 18.4729 112.65 16.6155 111.601C16.405 111.482 16.3281 111.211 16.4415 110.99C16.5548 110.773 16.8137 110.688 17.0242 110.807C18.7561 111.788 20.4557 112.285 22.0703 112.285H22.1391C22.3779 112.285 22.568 112.484 22.568 112.735C22.568 112.985 22.3779 113.185 22.1391 113.185H22.0744ZM0.805279 112.268C0.789093 112.268 0.768859 112.268 0.752673 112.264C0.517968 112.234 0.352057 112.009 0.380383 111.763C0.619134 109.737 1.01166 107.788 1.55391 105.967C1.6227 105.729 1.8655 105.598 2.09211 105.67C2.31872 105.742 2.44416 105.997 2.37537 106.234C1.84931 108.005 1.46488 109.899 1.23422 111.869C1.20185 112.102 1.01975 112.268 0.805279 112.268ZM26.5742 111.741C26.4366 111.741 26.299 111.673 26.2181 111.542C26.0886 111.334 26.1372 111.058 26.3355 110.918C27.7558 109.92 28.9455 108.408 29.6861 106.655C29.7832 106.425 30.0381 106.328 30.2526 106.425C30.4711 106.527 30.5682 106.795 30.4711 107.02C29.6618 108.922 28.3628 110.574 26.813 111.665C26.7401 111.716 26.6551 111.741 26.5742 111.741ZM12.9856 108.782C12.8845 108.782 12.7833 108.744 12.7024 108.667C12.5203 108.502 12.3422 108.332 12.1682 108.162C10.9785 107.003 9.84949 105.733 8.80546 104.392C8.65574 104.201 8.68406 103.916 8.86616 103.759C9.05231 103.602 9.31939 103.632 9.46911 103.823C10.4848 105.135 11.5895 106.37 12.7509 107.504C12.9209 107.67 13.0908 107.835 13.2648 107.996C13.4429 108.162 13.4591 108.447 13.3013 108.633C13.2203 108.731 13.103 108.782 12.9856 108.782ZM30.9446 102.473C30.718 102.473 30.5318 102.29 30.5156 102.048C30.4913 101.653 30.4468 101.262 30.374 100.885C30.1069 99.4622 29.5404 98.112 28.6946 96.8638C28.5571 96.6599 28.6016 96.3797 28.7958 96.2354C28.99 96.091 29.2571 96.1377 29.3947 96.3415C30.3133 97.6917 30.9243 99.1608 31.2157 100.711C31.2926 101.127 31.3452 101.56 31.3735 101.997C31.3897 102.243 31.2076 102.46 30.9729 102.473C30.9648 102.468 30.9567 102.473 30.9446 102.473ZM3.75527 101.984C3.68648 101.984 3.61769 101.967 3.55699 101.933C3.34656 101.819 3.26563 101.543 3.37893 101.326C3.87667 100.341 4.43106 99.4028 5.03805 98.5324C4.44724 97.4157 3.905 96.2651 3.41535 95.089C3.32228 94.8597 3.4194 94.5964 3.63792 94.4945C3.85644 94.3969 4.10733 94.4988 4.20445 94.7281C4.63339 95.7556 5.1028 96.7661 5.60863 97.7469C5.71789 97.6025 5.83119 97.4582 5.9445 97.3181C6.1792 97.0251 6.422 96.7406 6.6648 96.4689C6.82666 96.2863 7.09779 96.2821 7.27179 96.4519C7.4458 96.6217 7.44984 96.9062 7.28798 97.0888C7.05327 97.3478 6.82262 97.6195 6.60005 97.8997C6.41795 98.129 6.23585 98.3626 6.06185 98.6046C6.29251 99.0249 6.52721 99.441 6.77001 99.8486C6.89545 100.061 6.83476 100.337 6.63242 100.469C6.43009 100.6 6.16706 100.536 6.04162 100.324C5.85952 100.018 5.68147 99.7085 5.50746 99.3985C5.01377 100.142 4.5565 100.927 4.1397 101.751C4.05877 101.899 3.90904 101.984 3.75527 101.984ZM10.6184 94.1082C10.4727 94.1082 10.3351 94.0317 10.2542 93.8959C10.1287 93.6836 10.1935 93.4076 10.3917 93.276C12.067 92.189 13.8395 91.4248 15.6605 91.0129C15.8911 90.962 16.1218 91.1148 16.1703 91.3568C16.2189 91.5988 16.0732 91.8409 15.8426 91.8918C14.1187 92.2867 12.4353 93.0085 10.8409 94.0402C10.7762 94.0869 10.6952 94.1082 10.6184 94.1082ZM25.6313 93.6793C25.5504 93.6793 25.4735 93.6581 25.4007 93.6072C23.867 92.5796 22.1351 91.9088 20.3829 91.6625C20.1482 91.6286 19.9823 91.4035 20.0146 91.1573C20.047 90.911 20.2615 90.7369 20.4962 90.7709C22.3698 91.0341 24.2231 91.7517 25.862 92.8471C26.0603 92.9788 26.121 93.259 25.9915 93.467C25.9106 93.6072 25.773 93.6793 25.6313 93.6793ZM2.17304 90.7199C1.99094 90.7199 1.82098 90.5968 1.76433 90.4015C1.21804 88.5206 0.793139 86.5844 0.501782 84.6441C0.465362 84.3978 0.623181 84.1685 0.857885 84.1303C1.09259 84.0879 1.31111 84.2577 1.34753 84.504C1.63484 86.4019 2.05164 88.2998 2.5858 90.1383C2.65459 90.376 2.5251 90.6265 2.29848 90.6987C2.25397 90.7115 2.21351 90.7199 2.17304 90.7199ZM0.457269 80.0967C0.226611 80.0967 0.0364197 79.9057 0.0283264 79.6636C0.00809326 79.1202 0 78.5724 0 78.0332C0 76.6024 0.0728393 75.163 0.214471 73.7576C0.238751 73.5113 0.453222 73.3288 0.68388 73.3585C0.918585 73.384 1.09259 73.6048 1.06426 73.851C0.926678 75.2267 0.857885 76.6321 0.857885 78.0332C0.857885 78.5597 0.865979 79.0947 0.886212 79.6297C0.894305 79.8759 0.712207 80.0882 0.473456 80.0967C0.469409 80.0967 0.465362 80.0967 0.457269 80.0967ZM1.42846 69.3801C1.39609 69.3801 1.36371 69.3759 1.32729 69.3674C1.09664 69.3079 0.955004 69.0659 1.00761 68.8239C1.36371 67.2402 1.82098 65.6734 2.36323 64.1704C2.48058 63.8435 2.60603 63.5165 2.73147 63.1938C2.8205 62.9646 3.07139 62.8542 3.28991 62.9476C3.50843 63.041 3.61364 63.3042 3.52461 63.5335C3.39917 63.8477 3.28182 64.1661 3.16446 64.4888C2.63436 65.9537 2.18923 67.4864 1.84122 69.0319C1.7967 69.24 1.6227 69.3801 1.42846 69.3801ZM5.20801 59.3725C5.13517 59.3725 5.06233 59.3513 4.99354 59.3131C4.78716 59.19 4.71837 58.914 4.83572 58.6974C5.7624 57.0076 6.82666 55.3602 8.00019 53.8062C8.14991 53.6109 8.41699 53.5769 8.60313 53.734C8.78928 53.8868 8.82165 54.1713 8.67192 54.3666C7.52268 55.8867 6.4827 57.4958 5.5803 59.1475C5.49937 59.2919 5.35369 59.3725 5.20801 59.3725ZM11.4843 50.8553C11.3751 50.8553 11.2618 50.8128 11.1808 50.7236C11.0149 50.5453 11.0149 50.2608 11.1849 50.0868C12.5122 48.7069 13.9487 47.4119 15.4541 46.2315C15.6443 46.0829 15.9113 46.1253 16.053 46.3249C16.1946 46.5245 16.1541 46.8047 15.9639 46.9533C14.491 48.1082 13.0868 49.3735 11.7878 50.7236C11.6988 50.8128 11.5895 50.8553 11.4843 50.8553ZM19.6423 44.3166C19.4926 44.3166 19.351 44.2359 19.27 44.0916C19.1527 43.875 19.2215 43.599 19.4279 43.4759C21.0587 42.4866 22.7582 41.612 24.4861 40.8817C24.7047 40.7883 24.9556 40.8987 25.0446 41.1279C25.1336 41.3572 25.0284 41.6205 24.8099 41.7139C23.1184 42.4314 21.4512 43.2848 19.8609 44.2529C19.788 44.2996 19.7152 44.3166 19.6423 44.3166ZM29.1155 40.1811C28.9253 40.1811 28.7513 40.0495 28.7027 39.8457C28.642 39.6037 28.7756 39.3574 29.0062 39.2937C30.8313 38.78 32.6968 38.4148 34.542 38.2025C34.7727 38.1728 34.9912 38.3554 35.0155 38.6016C35.0398 38.8479 34.8698 39.0687 34.6351 39.0984C32.8303 39.3064 31.0093 39.6631 29.2248 40.1641C29.1924 40.1769 29.1519 40.1811 29.1155 40.1811Z" fill="#F67952"/>
<path d="M86.869 30.2754C86.865 30.2754 86.8609 30.2754 86.8569 30.2754C84.8902 30.2202 83.0086 29.8465 81.2645 29.1587C81.0419 29.0695 80.9326 28.8105 81.0136 28.577C81.0985 28.3435 81.3454 28.2289 81.568 28.3138C83.223 28.9634 85.0076 29.32 86.8812 29.371C87.1159 29.3795 87.3061 29.5833 87.298 29.8338C87.2939 30.0801 87.1037 30.2754 86.869 30.2754ZM91.555 29.8211C91.3567 29.8211 91.1787 29.6725 91.1342 29.4602C91.0856 29.2181 91.2353 28.9804 91.47 28.9294C93.1899 28.56 94.9421 27.9656 96.6821 27.1674C96.9006 27.0697 97.1515 27.1716 97.2486 27.4009C97.3458 27.6302 97.2446 27.8934 97.0261 27.9953C95.2334 28.819 93.4205 29.4347 91.6441 29.8168C91.6117 29.8168 91.5834 29.8211 91.555 29.8211ZM101.012 25.6983C100.87 25.6983 100.733 25.6261 100.648 25.4903C100.522 25.2822 100.579 25.002 100.781 24.8704L101.008 24.7175C102.384 23.7877 103.768 22.7177 105.241 21.4567C105.423 21.2996 105.694 21.3293 105.844 21.5203C105.993 21.7114 105.965 21.9959 105.783 22.153C104.286 23.4352 102.877 24.5222 101.473 25.4733L101.239 25.6304C101.17 25.6771 101.093 25.6983 101.012 25.6983ZM109.065 18.9983C108.947 18.9983 108.834 18.9473 108.749 18.8539C108.587 18.6714 108.599 18.3869 108.773 18.217C109.842 17.1895 110.914 16.1196 111.95 15.0878L112.828 14.2132C113.002 14.0433 113.273 14.0476 113.435 14.2302C113.597 14.4085 113.589 14.6972 113.419 14.867L112.541 15.7417C111.501 16.7777 110.429 17.8477 109.352 18.8836C109.275 18.9601 109.17 18.9983 109.065 18.9983ZM155.504 13.6654C155.342 13.6654 155.188 13.5678 155.115 13.4064C154.432 11.8779 153.541 10.4258 152.473 9.08838C152.319 8.89731 152.343 8.61284 152.526 8.45574C152.708 8.29439 152.979 8.31987 153.129 8.51093C154.245 9.90359 155.176 11.4236 155.892 13.0243C155.994 13.2493 155.9 13.5168 155.686 13.623C155.629 13.6527 155.565 13.6654 155.504 13.6654ZM116.587 11.6274C116.47 11.6274 116.353 11.5765 116.268 11.4746C116.11 11.2877 116.126 11.0033 116.304 10.8377L116.733 10.4386C118.089 9.18603 119.368 8.09484 120.642 7.1013C120.832 6.95269 121.099 6.99515 121.241 7.19471C121.383 7.39427 121.342 7.6745 121.152 7.8231C119.898 8.79966 118.635 9.87811 117.3 11.1137L116.875 11.5085C116.794 11.5892 116.693 11.6274 116.587 11.6274ZM149.381 5.8615C149.292 5.8615 149.199 5.83178 149.122 5.77234C147.666 4.6217 146.067 3.67487 144.38 2.95306C144.161 2.85965 144.056 2.59641 144.145 2.36713C144.234 2.13785 144.485 2.02746 144.703 2.12087C146.46 2.86815 148.119 3.85744 149.636 5.05478C149.826 5.20339 149.863 5.48786 149.721 5.68317C149.636 5.79781 149.511 5.8615 149.381 5.8615ZM124.83 5.1864C124.681 5.1864 124.539 5.10573 124.458 4.96137C124.341 4.74483 124.41 4.46885 124.616 4.34572C126.336 3.30123 128.06 2.46054 129.735 1.84489C129.958 1.76422 130.204 1.88735 130.281 2.12087C130.358 2.35439 130.241 2.61339 130.018 2.69407C128.391 3.29274 126.716 4.10795 125.045 5.12271C124.976 5.16942 124.903 5.1864 124.83 5.1864ZM140.009 1.65382C139.989 1.65382 139.965 1.65382 139.941 1.64958C138.407 1.39482 136.861 1.33113 135.348 1.47125C135.068 1.49672 134.785 1.53069 134.51 1.5689C134.271 1.59863 134.061 1.42879 134.028 1.18253C134 0.936266 134.166 0.711234 134.397 0.677267C134.688 0.639054 134.979 0.605087 135.271 0.575366C136.853 0.431005 138.472 0.494694 140.074 0.762185C140.309 0.800398 140.467 1.03392 140.43 1.27594C140.398 1.49248 140.216 1.65382 140.009 1.65382Z" fill="#F67952"/>
<path d="M308.212 147.003C308.046 147.003 307.892 146.906 307.819 146.736C307.722 146.507 307.819 146.243 308.037 146.142C309.689 145.369 311.279 144.396 312.76 143.246C312.95 143.097 313.217 143.14 313.359 143.339C313.5 143.539 313.46 143.819 313.27 143.968C311.74 145.157 310.093 146.167 308.386 146.965C308.329 146.991 308.268 147.003 308.212 147.003ZM316.531 140.766C316.426 140.766 316.321 140.724 316.24 140.643C316.066 140.473 316.058 140.189 316.22 140.006C317.478 138.601 318.587 137.055 319.518 135.421C319.639 135.208 319.902 135.136 320.105 135.264C320.307 135.391 320.376 135.667 320.254 135.879C319.291 137.569 318.146 139.161 316.847 140.618C316.758 140.72 316.645 140.766 316.531 140.766ZM321.905 131.646C321.857 131.646 321.808 131.638 321.76 131.621C321.537 131.536 321.424 131.277 321.501 131.043C321.602 130.75 321.699 130.457 321.788 130.16C322.249 128.653 322.573 127.069 322.755 125.464C322.783 125.218 323.002 125.039 323.233 125.069C323.467 125.099 323.637 125.324 323.609 125.57C323.423 127.235 323.083 128.869 322.609 130.436C322.516 130.742 322.415 131.052 322.31 131.353C322.245 131.531 322.079 131.646 321.905 131.646ZM323.301 121.023C323.079 121.023 322.889 120.84 322.872 120.603C322.751 118.688 322.435 116.785 321.938 114.943C321.873 114.705 322.006 114.454 322.233 114.387C322.46 114.323 322.698 114.459 322.763 114.696C323.281 116.599 323.605 118.569 323.73 120.543C323.747 120.789 323.568 121.006 323.33 121.023C323.322 121.023 323.309 121.023 323.301 121.023ZM320.651 110.659C320.493 110.659 320.343 110.565 320.266 110.408C319.562 108.922 318.725 107.512 317.778 106.226C317.62 106.014 317.462 105.801 317.296 105.593C317.146 105.402 317.175 105.118 317.357 104.961C317.539 104.804 317.81 104.833 317.96 105.024C318.13 105.241 318.296 105.457 318.454 105.678C319.433 107.011 320.303 108.472 321.031 110.009C321.136 110.23 321.051 110.502 320.837 110.612C320.78 110.642 320.716 110.659 320.651 110.659ZM314.464 102.086C314.35 102.086 314.237 102.039 314.152 101.946L313.824 101.585C312.651 100.299 311.437 98.9697 310.368 97.6025C310.219 97.4115 310.247 97.127 310.429 96.9699C310.611 96.8128 310.882 96.8425 311.032 97.0336C312.08 98.3753 313.282 99.6915 314.443 100.965L314.771 101.326C314.933 101.505 314.929 101.789 314.759 101.963C314.678 102.044 314.573 102.086 314.464 102.086ZM308.114 93.6454C307.952 93.6454 307.803 93.552 307.726 93.3906C307.107 92.0319 306.722 90.6945 306.56 89.3018C306.504 88.8051 306.471 88.2913 306.471 87.7775L306.475 87.5355C306.48 87.285 306.67 87.0855 306.913 87.094C307.151 87.0982 307.337 87.302 307.333 87.5525L307.329 87.7818C307.329 88.2616 307.358 88.7371 307.41 89.1957C307.564 90.4864 307.916 91.7347 308.499 93.0042C308.6 93.2293 308.511 93.4968 308.296 93.6029C308.24 93.6326 308.175 93.6454 308.114 93.6454ZM307.726 83.1368C307.685 83.1368 307.641 83.1325 307.6 83.1156C307.374 83.0434 307.244 82.7929 307.317 82.5551C307.718 81.1794 308.224 79.791 308.717 78.4536C308.891 77.9823 309.065 77.5067 309.235 77.0312C309.32 76.7977 309.567 76.683 309.79 76.768C310.012 76.8571 310.126 77.1161 310.041 77.3496C309.871 77.8252 309.697 78.3007 309.523 78.7805C309.037 80.1052 308.535 81.4766 308.143 82.8226C308.082 83.0137 307.912 83.1368 307.726 83.1368ZM311.024 72.9169C310.996 72.9169 310.967 72.9127 310.935 72.9084C310.704 72.8575 310.554 72.6197 310.603 72.3777C310.89 70.9299 311.036 69.431 311.036 67.9153C311.036 67.4992 311.024 67.0831 311.004 66.6755C310.992 66.4292 311.174 66.2169 311.408 66.1999C311.627 66.1872 311.845 66.3783 311.857 66.6245C311.878 67.0491 311.89 67.4822 311.89 67.911C311.89 69.4862 311.736 71.0487 311.437 72.556C311.404 72.7683 311.226 72.9169 311.024 72.9169ZM310.7 62.2173C310.51 62.2173 310.336 62.0857 310.287 61.8819C309.822 60.0306 309.15 58.2389 308.288 56.5448C308.175 56.324 308.256 56.0522 308.466 55.9376C308.673 55.8187 308.936 55.9036 309.045 56.1244C309.935 57.878 310.635 59.7377 311.117 61.6526C311.178 61.8946 311.04 62.1409 310.813 62.2003C310.773 62.213 310.737 62.2173 310.7 62.2173ZM306.042 52.681C305.917 52.681 305.796 52.6258 305.711 52.5197C304.529 51.0251 303.19 49.7089 301.729 48.6134C301.535 48.4691 301.49 48.1889 301.628 47.9851C301.765 47.7813 302.032 47.7388 302.227 47.8789C303.744 49.0211 305.14 50.384 306.37 51.9422C306.52 52.1333 306.496 52.4178 306.314 52.5749C306.233 52.647 306.14 52.681 306.042 52.681ZM273.483 51.0124C273.37 51.0124 273.261 50.9657 273.176 50.8765C273.01 50.6982 273.018 50.4137 273.188 50.2396C274.535 48.8767 276.073 47.6921 277.761 46.7198C277.971 46.6009 278.23 46.6816 278.343 46.8981C278.457 47.1146 278.38 47.3906 278.173 47.5095C276.551 48.4436 275.074 49.5815 273.783 50.885C273.698 50.9699 273.593 51.0124 273.483 51.0124ZM297.86 46.3079C297.808 46.3079 297.751 46.2952 297.698 46.274C296.039 45.5564 294.267 45.0596 292.43 44.7921C292.195 44.7582 292.033 44.5331 292.065 44.2826C292.098 44.0364 292.312 43.8623 292.551 43.9005C294.457 44.1765 296.298 44.6945 298.026 45.4418C298.245 45.5352 298.35 45.7984 298.261 46.0277C298.188 46.2018 298.03 46.3079 297.86 46.3079ZM282.309 45.6498C282.127 45.6498 281.957 45.5267 281.9 45.3314C281.832 45.0936 281.961 44.8431 282.188 44.7709C283.992 44.1935 285.866 43.8411 287.76 43.7179C287.995 43.7094 288.201 43.892 288.213 44.1383C288.229 44.3845 288.047 44.6011 287.812 44.6138C285.987 44.7327 284.179 45.0766 282.434 45.6328C282.394 45.6413 282.349 45.6498 282.309 45.6498Z" fill="#F67952"/>
<path d="M251.453 23.2612L252.983 26.1993C253.21 26.6324 253.546 26.9848 253.958 27.2226L256.759 28.8275C258.458 29.8041 258.458 32.3686 256.759 33.3409L253.958 34.9459C253.546 35.1836 253.21 35.536 252.983 35.9691L251.453 38.9073C250.523 40.6906 248.079 40.6906 247.152 38.9073L245.622 35.9691C245.396 35.536 245.06 35.1836 244.647 34.9459L241.847 33.3409C240.147 32.3644 240.147 29.7998 241.847 28.8275L244.647 27.2226C245.06 26.9848 245.396 26.6324 245.622 26.1993L247.152 23.2612C248.083 21.4737 250.523 21.4737 251.453 23.2612Z" fill="#F67952"/>
<path d="M250.498 37.4636C249.43 37.4636 248.483 36.8777 247.969 35.8927L246.44 32.9503C246.254 32.5936 245.974 32.3006 245.634 32.1053L242.834 30.5004C241.895 29.9612 241.337 28.9719 241.337 27.8467C241.337 26.7258 241.895 25.7323 242.834 25.193L245.634 23.5881C245.974 23.3928 246.254 23.0998 246.44 22.7431L247.969 19.805C248.483 18.8199 249.426 18.234 250.498 18.234C251.567 18.234 252.514 18.8199 253.028 19.805L254.557 22.7431C254.743 23.0998 255.023 23.3928 255.363 23.5881L258.163 25.1973C259.102 25.7365 259.66 26.7258 259.66 27.851C259.66 28.9719 259.102 29.9654 258.163 30.5046L255.363 32.1096C255.023 32.3049 254.743 32.5979 254.557 32.9545L253.028 35.8927C252.514 36.8735 251.571 37.4636 250.498 37.4636ZM250.498 19.1341C249.746 19.1341 249.082 19.546 248.722 20.2381L247.192 23.1762C246.925 23.6857 246.533 24.1018 246.047 24.3778L243.247 25.9828C242.587 26.3606 242.195 27.057 242.195 27.8467C242.195 28.6364 242.587 29.3328 243.247 29.7107L246.047 31.3156C246.533 31.5916 246.925 32.0077 247.192 32.5172L248.722 35.4553C249.082 36.1474 249.746 36.5593 250.498 36.5593C251.251 36.5593 251.915 36.1474 252.275 35.4553L253.805 32.5172C254.072 32.0077 254.464 31.5916 254.95 31.3156L257.75 29.7107C258.41 29.3328 258.802 28.6364 258.802 27.8467C258.802 27.057 258.41 26.3606 257.75 25.9828L254.95 24.3778C254.464 24.1018 254.068 23.6857 253.805 23.1762L252.275 20.2381C251.915 19.5502 251.251 19.1341 250.498 19.1341Z" fill="black"/>
<path d="M55.2122 27.7829L56.4262 30.1097C56.6043 30.4536 56.8713 30.7338 57.1991 30.9207L59.4167 32.1944C60.7642 32.9672 60.7642 35.001 59.4167 35.7737L57.1991 37.0475C56.8713 37.2343 56.6043 37.5145 56.4262 37.8584L55.2122 40.1852C54.4757 41.5991 52.5374 41.5991 51.8009 40.1852L50.5869 37.8584C50.4089 37.5145 50.1418 37.2343 49.814 37.0475L47.5965 35.7737C46.2489 35.001 46.2489 32.9672 47.5965 32.1944L49.814 30.9207C50.1418 30.7338 50.4089 30.4536 50.5869 30.1097L51.8009 27.7829C52.5374 26.3691 54.4757 26.3691 55.2122 27.7829Z" fill="#F67952"/>
<path d="M49.7694 41.7011C48.8872 41.7011 48.1103 41.2171 47.6854 40.4061L46.4714 38.0794C46.3338 37.8119 46.1234 37.5954 45.8685 37.4468L43.6509 36.173C42.878 35.7314 42.4167 34.912 42.4167 33.9906C42.4167 33.065 42.878 32.2498 43.6509 31.804L45.8685 30.5302C46.1234 30.3858 46.3298 30.1651 46.4714 29.8976L47.6854 27.5708C48.1062 26.7598 48.8872 26.2758 49.7694 26.2758C50.6516 26.2758 51.4285 26.7598 51.8494 27.5708L53.0634 29.8976C53.201 30.1651 53.4114 30.3816 53.6663 30.5302L55.8839 31.804C56.6568 32.2455 57.1181 33.065 57.1181 33.9906C57.1181 34.9162 56.6568 35.7314 55.8839 36.173L53.6663 37.4468C53.4114 37.5911 53.205 37.8119 53.0634 38.0794L51.8494 40.4061C51.4285 41.2171 50.6516 41.7011 49.7694 41.7011ZM49.7694 27.1717C49.2069 27.1717 48.7092 27.4816 48.4381 27.9996L47.2241 30.3264C47.0056 30.7467 46.6818 31.0864 46.2812 31.3157L44.0637 32.5895C43.57 32.8739 43.2746 33.3962 43.2746 33.9864C43.2746 34.5765 43.57 35.0988 44.0637 35.379L46.2812 36.6528C46.6818 36.8821 47.0056 37.2217 47.2241 37.6421L48.4381 39.9688C48.7092 40.4868 49.2069 40.7968 49.7694 40.7968C50.3319 40.7968 50.8296 40.4868 51.1008 39.9688L52.3147 37.6421C52.5333 37.2217 52.857 36.8821 53.2576 36.6528L55.4752 35.379C55.9688 35.0945 56.2642 34.5765 56.2642 33.9821C56.2642 33.3919 55.9688 32.8697 55.4752 32.5852L53.2576 31.3114C52.857 31.0822 52.5333 30.7382 52.3147 30.3222L51.1008 27.9954C50.8296 27.4816 50.3319 27.1717 49.7694 27.1717Z" fill="black"/>
<path d="M301.255 187.403C300.58 187.403 299.985 187.034 299.661 186.414L298.795 184.754C298.706 184.584 298.576 184.448 298.415 184.355L296.832 183.446C296.242 183.106 295.885 182.482 295.889 181.773C295.889 181.064 296.242 180.44 296.832 180.1L298.415 179.192C298.576 179.098 298.706 178.962 298.795 178.792L299.661 177.128C299.985 176.508 300.58 176.135 301.255 176.135C301.931 176.135 302.526 176.504 302.85 177.128L303.716 178.792C303.805 178.962 303.934 179.098 304.096 179.192L305.678 180.1C306.269 180.44 306.625 181.064 306.625 181.773C306.625 182.482 306.273 183.106 305.678 183.446L304.096 184.355C303.934 184.448 303.805 184.584 303.716 184.754L302.85 186.414C302.526 187.034 301.927 187.403 301.255 187.403ZM301.255 177.035C300.899 177.035 300.584 177.23 300.414 177.557L299.548 179.221C299.382 179.54 299.131 179.803 298.823 179.977L297.241 180.886C296.929 181.064 296.743 181.395 296.743 181.769C296.743 182.142 296.929 182.474 297.241 182.652L298.823 183.561C299.131 183.735 299.378 183.998 299.548 184.316L300.414 185.976C300.584 186.303 300.899 186.499 301.255 186.499C301.611 186.499 301.927 186.303 302.097 185.976L302.963 184.316C303.129 183.998 303.38 183.735 303.687 183.561L305.27 182.652C305.581 182.474 305.767 182.142 305.767 181.769C305.767 181.395 305.581 181.064 305.27 180.886L303.687 179.977C303.38 179.803 303.133 179.54 302.963 179.221L302.097 177.557C301.923 177.23 301.611 177.035 301.255 177.035Z" fill="#F67952"/>
<path d="M311.137 199.453C310.684 199.453 310.267 199.194 310.049 198.778L309.543 197.805C309.506 197.737 309.454 197.682 309.393 197.648L308.466 197.117C308.07 196.888 307.823 196.451 307.823 195.975C307.823 195.5 308.07 195.062 308.466 194.833L309.393 194.302C309.458 194.264 309.51 194.209 309.547 194.141L310.053 193.173C310.271 192.757 310.684 192.498 311.137 192.498C311.59 192.498 312.007 192.757 312.226 193.173L312.732 194.145C312.768 194.213 312.821 194.268 312.885 194.302L313.808 194.833C314.205 195.062 314.451 195.5 314.451 195.975C314.451 196.451 314.205 196.888 313.808 197.117L312.881 197.648C312.817 197.686 312.764 197.742 312.732 197.81L312.226 198.778C312.007 199.194 311.59 199.453 311.137 199.453ZM311.137 193.398C311.068 193.398 310.902 193.419 310.801 193.606L310.295 194.578C310.182 194.799 310.012 194.973 309.802 195.096L308.875 195.627C308.697 195.729 308.677 195.907 308.677 195.98C308.677 196.052 308.697 196.23 308.875 196.332L309.802 196.863C310.008 196.982 310.182 197.16 310.295 197.381L310.801 198.353C310.898 198.54 311.068 198.561 311.137 198.561C311.206 198.561 311.372 198.54 311.473 198.353L311.979 197.381C312.092 197.16 312.262 196.982 312.473 196.863L313.395 196.332C313.573 196.23 313.593 196.052 313.593 195.98C313.593 195.907 313.573 195.733 313.395 195.627L312.469 195.096C312.262 194.978 312.092 194.799 311.975 194.578L311.469 193.606C311.376 193.419 311.206 193.398 311.137 193.398Z" fill="#F67952"/>
<path d="M71.0709 18.8667C70.6177 18.8667 70.2009 18.6077 69.9824 18.1916L69.4765 17.2193C69.4401 17.1514 69.3875 17.0962 69.3268 17.0622L68.4001 16.5315C68.0036 16.3022 67.7567 15.8649 67.7567 15.3893C67.7567 14.9138 68.0036 14.4764 68.4001 14.2472L69.3268 13.7164C69.3916 13.6782 69.4442 13.623 69.4806 13.5551L69.9864 12.587C70.2049 12.1709 70.6217 11.9119 71.0749 11.9119C71.5282 11.9119 71.945 12.1709 72.1594 12.587L72.6653 13.5593C72.7017 13.6273 72.7543 13.6825 72.819 13.7207L73.7417 14.2514C74.1382 14.4807 74.3851 14.918 74.3851 15.3936C74.3851 15.8691 74.1382 16.3064 73.7417 16.5357L72.815 17.0664C72.7503 17.1047 72.6976 17.1598 72.6653 17.2278L72.1594 18.1958C71.9409 18.6077 71.5241 18.8667 71.0709 18.8667ZM71.0709 12.8121C71.0021 12.8121 70.8362 12.8333 70.735 13.0201L70.2292 13.9924C70.1159 14.2132 69.9459 14.3915 69.7355 14.5104L68.8088 15.0411C68.6308 15.143 68.6106 15.3214 68.6106 15.3936C68.6106 15.4657 68.6308 15.6398 68.8088 15.746L69.7355 16.2767C69.9419 16.3956 70.1119 16.5739 70.2292 16.7947L70.735 17.767C70.8322 17.9538 71.0021 17.9751 71.0709 17.9751C71.1397 17.9751 71.3056 17.9538 71.4027 17.767L71.9086 16.7947C72.0219 16.5739 72.1918 16.3956 72.4022 16.2767L73.3289 15.746C73.507 15.6441 73.5272 15.4657 73.5272 15.3936C73.5272 15.3214 73.507 15.143 73.3289 15.0411L72.4063 14.5062C72.1959 14.3873 72.03 14.209 71.9126 13.9882L71.4068 13.0159C71.3097 12.829 71.1397 12.8121 71.0709 12.8121Z" fill="#F67952"/>
<path d="M131.678 239.924C131.225 239.924 130.808 239.665 130.589 239.248L130.084 238.276C130.047 238.208 129.995 238.153 129.934 238.119L129.007 237.588C128.611 237.359 128.364 236.922 128.364 236.446C128.364 235.971 128.611 235.533 129.007 235.304L129.934 234.773C129.999 234.735 130.051 234.68 130.084 234.616L130.589 233.644C130.808 233.228 131.225 232.969 131.678 232.969C132.131 232.969 132.548 233.228 132.766 233.644L133.272 234.616C133.309 234.684 133.361 234.739 133.422 234.773L134.349 235.304C134.745 235.533 134.992 235.971 134.992 236.446C134.992 236.922 134.745 237.359 134.349 237.588L133.422 238.119C133.357 238.157 133.305 238.212 133.272 238.28L132.766 239.248C132.548 239.665 132.131 239.924 131.678 239.924ZM131.678 233.869C131.609 233.869 131.439 233.89 131.342 234.077L130.836 235.049C130.723 235.27 130.553 235.448 130.343 235.567L129.42 236.098C129.242 236.2 129.222 236.378 129.222 236.45C129.222 236.523 129.242 236.701 129.42 236.803L130.347 237.334C130.557 237.452 130.727 237.631 130.84 237.852L131.346 238.82C131.443 239.006 131.613 239.028 131.682 239.028C131.751 239.028 131.917 239.006 132.018 238.82L132.524 237.847C132.637 237.627 132.807 237.448 133.017 237.329L133.944 236.799C134.122 236.697 134.142 236.518 134.142 236.446C134.142 236.374 134.122 236.2 133.944 236.094L133.017 235.563C132.811 235.444 132.637 235.266 132.524 235.045L132.018 234.073C131.917 233.89 131.747 233.869 131.678 233.869Z" fill="#F67952"/>
<path d="M15.4622 299.97C14.839 299.97 14.2846 299.626 13.9892 299.053L13.2082 297.554C13.1313 297.41 13.018 297.291 12.8804 297.21L11.452 296.391C10.9057 296.077 10.5779 295.499 10.5779 294.845C10.5779 294.192 10.9057 293.61 11.452 293.296L12.8804 292.476C13.018 292.395 13.1313 292.277 13.2082 292.132L13.9892 290.633C14.2886 290.06 14.839 289.716 15.4622 289.716C16.0853 289.716 16.6397 290.06 16.9392 290.633L17.7202 292.132C17.7971 292.277 17.9104 292.395 18.048 292.476L19.4764 293.296C20.0227 293.61 20.3505 294.187 20.3505 294.845C20.3505 295.499 20.0227 296.081 19.4764 296.391L18.048 297.21C17.9104 297.291 17.7971 297.41 17.7202 297.554L16.9392 299.053C16.6357 299.626 16.0853 299.97 15.4622 299.97ZM15.4622 290.612C15.1546 290.612 14.8875 290.782 14.7378 291.062L13.9568 292.561C13.803 292.858 13.5724 293.1 13.2891 293.262L11.8607 294.081C11.5936 294.234 11.4317 294.518 11.4317 294.841C11.4317 295.164 11.5936 295.444 11.8607 295.601L13.2891 296.421C13.5724 296.582 13.803 296.824 13.9568 297.121L14.7378 298.62C14.8835 298.9 15.1546 299.07 15.4622 299.07C15.7697 299.07 16.0368 298.9 16.1865 298.62L16.9675 297.121C17.1213 296.824 17.3519 296.582 17.6352 296.421L19.0637 295.601C19.3307 295.448 19.4926 295.164 19.4926 294.841C19.4926 294.518 19.3307 294.238 19.0637 294.081L17.6352 293.262C17.3519 293.1 17.1213 292.858 16.9675 292.561L16.1865 291.062C16.0368 290.778 15.7657 290.612 15.4622 290.612Z" fill="#F67952"/>
<path d="M18.9243 213.31C18.7856 213.31 18.6434 213.295 18.5048 213.261C17.8373 213.101 17.3266 212.603 17.1333 211.934C16.7576 210.655 16.9801 209.268 17.7169 208.311C18.0051 207.933 18.3625 207.604 18.709 207.286C19.351 206.692 19.9565 206.131 19.9967 205.387C20.0076 205.17 20.1827 204.986 20.4052 205.013C20.6167 205.024 20.7809 205.211 20.7699 205.431C20.7116 206.501 19.9565 207.2 19.227 207.873C18.8914 208.183 18.5741 208.475 18.326 208.8C17.7424 209.556 17.571 210.67 17.8737 211.706C17.9905 212.102 18.2896 212.394 18.6799 212.487C19.0884 212.581 19.5006 212.442 19.7705 212.11L23.7099 207.282C24.9647 205.746 26.1684 204.093 25.9204 202.309C25.8912 202.092 26.0371 201.89 26.2487 201.86C26.4602 201.827 26.6572 201.98 26.6864 202.197C26.9782 204.306 25.6103 206.19 24.3045 207.791L20.3651 212.618C20.0003 213.067 19.475 213.31 18.9243 213.31Z" fill="black"/>
<path d="M18.4209 218.291C18.1036 218.291 17.757 218.111 17.4251 217.767C16.4074 216.701 15.6268 215.292 15.1599 213.695C14.7587 212.327 14.5763 210.816 14.6018 209.085C14.6456 206.471 15.1818 203.816 16.1484 201.404C16.2287 201.202 16.4585 201.109 16.6518 201.188C16.8488 201.27 16.9436 201.502 16.8634 201.704C15.9296 204.022 15.4153 206.576 15.3715 209.092C15.3459 210.741 15.5174 212.17 15.8967 213.463C16.3272 214.94 17.0421 216.234 17.9722 217.206C18.1874 217.431 18.3844 217.52 18.4464 217.483C18.4902 217.446 18.5522 217.341 18.5157 216.941C18.3917 215.688 18.2677 214.432 18.1473 213.172C18.1254 212.955 18.2823 212.76 18.4938 212.738C18.7054 212.719 18.8951 212.876 18.917 213.093C19.0373 214.353 19.1614 215.61 19.2854 216.866C19.3219 217.262 19.3146 217.752 18.9717 218.066C18.9243 218.107 18.8805 218.141 18.8331 218.171C18.709 218.253 18.5704 218.291 18.4209 218.291Z" fill="black"/>
<path d="M19.5334 216.982C19.3219 216.982 19.1176 216.941 18.9279 216.862C18.7309 216.776 18.6397 216.544 18.72 216.342C18.8039 216.14 19.03 216.047 19.227 216.129C19.559 216.271 20.0003 216.159 20.3249 215.849C20.3578 215.819 20.3833 215.793 20.4052 215.763C20.7006 215.415 20.8721 214.914 20.9268 214.26C20.9341 214.181 20.9377 214.103 20.9414 214.032C20.9742 213.19 20.821 212.349 20.4964 211.586C20.4271 211.437 20.449 211.253 20.5693 211.134C20.7225 210.98 20.9633 210.977 21.1128 211.13L21.1165 211.134C21.1493 211.167 21.1785 211.208 21.1967 211.253C21.5724 212.125 21.7512 213.093 21.711 214.054C21.7074 214.151 21.7037 214.245 21.6928 214.331C21.6271 215.15 21.3901 215.804 20.9925 216.271C20.956 216.32 20.9049 216.372 20.8466 216.428C20.4782 216.787 19.9967 216.982 19.5334 216.982Z" fill="black"/>
<path d="M21.7658 214.514C21.598 214.514 21.4302 214.477 21.2697 214.394C21.08 214.297 20.9998 214.058 21.0982 213.863C21.1931 213.669 21.4265 213.59 21.6162 213.688C21.8168 213.792 22.1196 213.65 22.2764 213.456C22.4807 213.19 22.5573 212.809 22.6084 212.435C22.7433 211.366 22.6923 210.292 22.4515 209.249C22.4041 209.036 22.5318 208.823 22.7397 208.774C22.9476 208.726 23.1555 208.857 23.2029 209.07C23.4619 210.206 23.5203 211.373 23.3707 212.54C23.3087 213.003 23.2029 213.531 22.8783 213.949C22.6266 214.267 22.2035 214.514 21.7658 214.514Z" fill="black"/>
<path d="M68.5888 128.264L77.6495 133.622C81.0892 135.866 83.7957 139.115 85.4225 142.948L93.2467 161.363L114.268 165.477C114.363 165.817 114.483 166.288 114.574 166.871C114.753 168.008 114.819 169.556 114.396 171.291C114.129 172.39 113.732 173.306 113.323 174.036C113.028 174.57 112.732 175.004 112.484 175.337C105.185 174.215 97.8828 173.09 90.5839 171.964C87.2901 171.456 84.434 169.369 82.8948 166.344L77.54 155.818C77.3212 156.319 77.0513 156.802 76.7412 157.265C75.3952 159.262 74.8663 161.722 75.2676 164.112L79.2252 187.747H46.7323L50.7118 164.422C51.113 162.074 50.9307 159.655 50.1902 157.392L48.0162 150.778L48.0089 150.782C41.0018 167.694 33.9911 184.614 26.9877 201.526C26.6302 201.713 26.1779 201.926 25.6454 202.125C24.6897 202.491 23.4604 202.816 22.016 202.899C19.5502 203.037 17.5659 202.379 16.3658 201.844C16.1105 201.728 15.8953 201.623 15.7129 201.526L36.0885 142.993C37.2411 139.684 39.5683 136.943 42.6031 135.312L54.5017 129.135L54.7351 129.016L54.9649 129.476C56.1431 131.177 57.7554 132.598 59.6667 133.319C61.5781 134.045 63.7885 134.019 65.5941 133.05C67.396 132.082 68.5268 130.336 68.5632 128.245L68.5888 128.264Z" fill="#F67952"/>
<path d="M110.055 317.146C110.522 321.106 100.513 319.468 96.1101 317.277C92.6083 315.538 85.1417 310.18 84.9848 305.528C84.828 300.877 86.4475 298.97 86.4475 298.97H86.4512C86.1265 300.133 85.8931 302.425 87.8518 304.986C90.6751 308.681 106.765 315.673 105.594 311.661C104.963 309.511 102.125 305.906 99.63 303.034C103.391 306.231 109.508 312.577 110.055 317.146Z" fill="black"/>
<path d="M50.2631 102.692L50.1209 102.699C48.5232 103.361 46.6958 103.417 45.0653 102.856C43.4348 102.299 42.0086 101.125 41.1186 99.6142C40.6918 98.885 40.389 98.0811 40.2833 97.2398C40.0352 95.2655 40.9581 93.2463 42.4499 91.9675C43.9345 90.6925 45.9188 90.1166 47.8557 90.1241C49.1944 90.1278 50.555 90.4083 51.6821 91.1449C52.7873 91.8703 53.7357 93.71 53.8633 95.0673C56.7121 93.351 61.0929 91.8815 63.9709 92.0236C67.2866 92.1956 70.5366 93.5679 72.9988 95.8526L73.0206 95.9647C74.476 97.4828 74.6001 100.014 73.6444 101.903C73.3161 102.549 72.882 103.122 72.375 103.623C71.4011 104.591 70.1536 105.287 68.8478 105.717C66.8708 106.363 64.7661 106.446 62.6906 106.453C61.5124 106.453 60.305 106.438 59.1816 106.812C58.0618 107.186 57.2264 108.39 56.9419 109.564L56.9456 109.572C56.4532 109.684 56.0009 109.99 55.7346 110.432C55.3297 111.097 55.3771 112.025 55.8513 112.642C56.0702 112.929 56.3839 113.146 56.7267 113.262L56.7012 113.445C56.7669 114.414 56.796 115.386 56.796 116.358C54.3302 115.278 52.7909 112.664 51.9009 110.349C51.0729 108.203 50.3872 105.141 50.2631 102.692Z" fill="black"/>
<path d="M73.3635 111.49C73.3635 111.647 73.3197 111.797 73.2431 111.924C73.2358 111.614 73.2249 111.311 73.2067 111.004C73.3052 111.142 73.3635 111.311 73.3635 111.49Z" fill="black"/>
<path d="M56.6282 299.108C56.6282 299.108 58.7329 303.24 58.5104 310.741C58.2915 318.234 51.6967 330.547 46.9073 322.643C42.1216 314.742 46.0574 303.06 47.739 300.121C47.035 303.917 46.776 307.798 46.9693 311.653C47.024 312.704 47.1116 313.77 47.5092 314.742C47.9031 315.71 48.6545 316.578 49.6394 316.854C50.7483 317.172 51.9629 316.679 52.7982 315.867C53.6372 315.06 54.1588 313.968 54.6038 312.883C56.4531 308.366 56.8398 303.988 56.5297 299.119L56.6282 299.108Z" fill="black"/>
<path d="M21.3667 203.313C19.6195 203.313 17.8504 202.936 16.2162 202.207C15.95 202.087 15.7275 201.979 15.5414 201.878C15.3663 201.788 15.2861 201.578 15.3518 201.392L35.7274 142.862C36.9165 139.448 39.2947 136.644 42.4244 134.965L54.7169 128.582C54.9065 128.485 55.14 128.559 55.2385 128.754C55.337 128.948 55.2604 129.188 55.0707 129.288L54.6767 129.49L42.7782 135.668C39.8236 137.253 37.5767 139.904 36.4532 143.127L16.1944 201.328C16.2965 201.377 16.4059 201.429 16.5226 201.481C18.2589 202.252 20.1484 202.607 21.9977 202.502C23.2014 202.435 24.3869 202.184 25.514 201.754C25.9116 201.605 26.3056 201.433 26.6886 201.238C33.6737 184.367 40.6662 167.496 47.6551 150.628C47.739 150.426 47.9688 150.333 48.1621 150.419C48.3591 150.505 48.4503 150.737 48.3664 150.938C41.3593 167.851 34.3486 184.771 27.3451 201.683C27.3087 201.769 27.2466 201.84 27.1664 201.881C26.7141 202.117 26.2472 202.326 25.7803 202.498C24.5802 202.955 23.3218 203.224 22.0378 203.295C21.8153 203.306 21.5928 203.313 21.3667 203.313Z" fill="black"/>
<path d="M79.2325 188.144H46.7395C46.6264 188.144 46.517 188.091 46.444 188.002C46.3711 187.912 46.3383 187.792 46.3601 187.68L50.3397 164.355C50.73 162.081 50.5513 159.718 49.8327 157.52L46.3784 146.99C46.3091 146.784 46.4185 146.556 46.6228 146.489C46.827 146.422 47.0459 146.53 47.1116 146.739L50.5658 157.269C51.3282 159.591 51.5142 162.093 51.102 164.493L47.2027 187.355H78.7765L74.8955 164.183C74.4723 161.674 75.0195 159.139 76.4311 157.041C76.7302 156.6 76.9856 156.136 77.1971 155.657C77.7114 154.498 77.9704 153.268 77.9704 151.993C77.9704 150.445 77.5728 148.912 76.8141 147.566L74.8189 144.006C74.7131 143.815 74.7751 143.576 74.9611 143.464C75.1472 143.355 75.3806 143.419 75.49 143.61L77.4853 147.169C78.306 148.635 78.7437 150.303 78.7437 151.993C78.7437 153.38 78.4592 154.723 77.9011 155.986C77.6713 156.506 77.3904 157.015 77.0658 157.493C75.7709 159.419 75.2675 161.745 75.6542 164.048L79.6118 187.684C79.6301 187.8 79.6009 187.916 79.5279 188.005C79.455 188.095 79.3456 188.144 79.2325 188.144Z" fill="black"/>
<path d="M112.488 175.733C112.47 175.733 112.451 175.733 112.429 175.729C105.131 174.608 97.828 173.482 90.5292 172.357C87.1259 171.833 84.1458 169.653 82.5555 166.527L77.2044 156.009C77.1169 155.852 77.146 155.646 77.281 155.523C77.4379 155.377 77.6822 155.384 77.8245 155.549C77.8464 155.575 77.8683 155.605 77.8865 155.635L83.2412 166.161C84.7185 169.062 87.487 171.085 90.6459 171.571C97.8682 172.686 105.094 173.8 112.316 174.911C112.568 174.555 112.791 174.204 112.991 173.845C113.451 173.022 113.797 172.132 114.023 171.198C114.363 169.807 114.417 168.371 114.195 166.939C114.137 166.568 114.064 166.202 113.965 165.824L93.1773 161.756C93.0533 161.73 92.9475 161.644 92.8965 161.524L85.0723 143.109C83.4674 139.332 80.8301 136.169 77.4451 133.959L68.399 128.612L68.5668 128.253L68.7602 127.909L77.85 133.282C81.3809 135.582 84.1203 138.868 85.7836 142.791L93.5275 161.016L114.348 165.091C114.49 165.118 114.607 165.226 114.647 165.372C114.786 165.865 114.892 166.337 114.965 166.815C115.205 168.356 115.143 169.893 114.779 171.392C114.534 172.394 114.162 173.355 113.67 174.238C113.418 174.694 113.137 175.131 112.802 175.58C112.725 175.677 112.608 175.733 112.488 175.733Z" fill="black"/>
<path d="M97.3284 296.165H83.7556C83.5732 296.165 83.4164 296.038 83.3799 295.855L64.5983 210.493C64.5509 210.28 64.6822 210.067 64.8901 210.018C65.098 209.969 65.3059 210.104 65.3534 210.317L84.0657 295.369H96.887L85.8165 211.368C85.3058 207.472 84.3866 203.613 83.0844 199.892L78.8714 187.878C78.7985 187.673 78.9043 187.444 79.1049 187.37C79.3055 187.295 79.528 187.403 79.601 187.609L83.814 199.623C85.1344 203.396 86.0646 207.311 86.5862 211.259L97.715 295.709C97.7296 295.821 97.6968 295.937 97.6239 296.023C97.5436 296.117 97.4378 296.165 97.3284 296.165Z" fill="black"/>
<path d="M58.9736 296.165H45.7218C45.5139 296.165 45.3425 295.997 45.3352 295.784L42.1909 209.928C41.9903 206.537 42.3259 203.149 43.1831 199.862L46.3638 187.646C46.4185 187.433 46.6337 187.31 46.838 187.366C47.0459 187.422 47.1663 187.639 47.1116 187.852L43.9308 200.068C43.0955 203.269 42.7709 206.574 42.9642 209.891L46.0939 295.376H58.6125L64.5764 210.526L60.5968 204.798C60.4728 204.618 60.5129 204.372 60.688 204.244C60.8631 204.117 61.1038 204.158 61.2278 204.338L65.2876 210.179C65.3387 210.253 65.3642 210.347 65.3569 210.437L59.3566 295.799C59.3457 296.005 59.1779 296.165 58.9736 296.165Z" fill="black"/>
<path d="M64.974 210.803C64.8901 210.803 64.8026 210.773 64.7333 210.717C64.5655 210.579 64.5399 210.328 64.6749 210.16L69.1213 204.514C69.2563 204.342 69.4971 204.316 69.6648 204.454C69.8326 204.592 69.8582 204.843 69.7232 205.011L65.2768 210.657C65.2002 210.754 65.0871 210.803 64.974 210.803Z" fill="black"/>
<path d="M48.0964 299.048C47.8922 299.048 47.7244 298.887 47.7098 298.678L47.5311 295.795C47.5311 295.788 47.5311 295.75 47.5311 295.743C47.5311 295.522 47.7025 295.346 47.9177 295.346C48.1329 295.346 48.3044 295.522 48.3044 295.743V295.769L48.4831 298.626C48.4977 298.843 48.3335 299.033 48.122 299.045C48.111 299.048 48.1037 299.048 48.0964 299.048Z" fill="black"/>
<path d="M56.5151 299.276C56.5042 299.276 56.4932 299.276 56.4786 299.276C56.2671 299.258 56.1102 299.063 56.1285 298.846C56.1759 298.319 56.1795 297.837 56.1832 297.321C56.1868 296.816 56.1905 296.292 56.2415 295.735C56.2598 295.526 56.4239 295.354 56.6428 295.361C56.8507 295.373 57.0112 295.533 57.0112 295.743V295.769C56.9638 296.33 56.9601 296.812 56.9565 297.324C56.9528 297.829 56.9492 298.356 56.8981 298.914C56.8835 299.123 56.7121 299.276 56.5151 299.276Z" fill="black"/>
<path d="M50.347 317.34C50.0698 317.34 49.7999 317.303 49.5373 317.228C48.5269 316.944 47.6368 316.069 47.1554 314.888C46.7286 313.844 46.6374 312.726 46.5863 311.668C46.393 307.779 46.652 303.868 47.3633 300.039C47.4399 299.624 47.5238 299.205 47.6113 298.79C47.6587 298.577 47.863 298.443 48.0709 298.487C48.2788 298.536 48.4101 298.745 48.3664 298.959C48.2788 299.366 48.1986 299.774 48.122 300.185C47.4253 303.95 47.1663 307.798 47.3596 311.623C47.4107 312.61 47.4909 313.654 47.8703 314.577C48.2606 315.538 48.9609 316.241 49.7452 316.462C50.8139 316.765 51.8863 316.2 52.5356 315.568C53.3308 314.802 53.8305 313.743 54.25 312.719C55.9023 308.68 56.486 304.493 56.1467 299.134L56.1321 298.895C56.1212 298.678 56.2853 298.491 56.5006 298.48C56.7085 298.465 56.8945 298.637 56.9054 298.858L56.92 299.089C57.2702 304.571 56.6647 308.871 54.9649 313.029C54.5126 314.136 53.9691 315.28 53.0681 316.148C52.2766 316.918 51.2881 317.34 50.347 317.34Z" fill="black"/>
<path d="M50.3689 325.585C49.2527 325.585 47.8812 324.995 46.5827 322.848C41.7605 314.884 45.4993 303.255 47.4107 299.916C47.5165 299.725 47.7536 299.661 47.9396 299.774C48.122 299.886 48.184 300.125 48.0782 300.316C46.3055 303.412 42.6615 314.869 47.2429 322.429C48.3846 324.318 49.6686 325.081 51.062 324.695C54.5199 323.742 57.9742 316.017 58.131 310.726C58.3462 303.416 56.3145 299.329 56.2926 299.287C56.1942 299.093 56.2671 298.854 56.4568 298.753C56.6465 298.652 56.8799 298.727 56.9784 298.921C57.0659 299.093 59.1268 303.232 58.9043 310.748C58.7402 316.349 55.1108 324.4 51.2626 325.458C50.9854 325.537 50.6862 325.585 50.3689 325.585Z" fill="black"/>
<path d="M162.058 173.528C161.881 173.403 161.803 173.21 161.882 173.092L164.575 169.088C165.144 168.242 164.983 166.973 164.157 165.771C164.043 165.605 164.076 165.437 164.23 165.399C164.385 165.359 164.602 165.459 164.716 165.625C165.691 167.04 165.879 168.539 165.209 169.536L162.516 173.54C162.44 173.66 162.233 173.652 162.058 173.528Z" fill="black"/>
<path d="M148.328 163.279C148.151 163.154 148.077 162.954 148.161 162.829L151.021 158.577C151.617 157.689 152.736 157.252 154.091 157.378C154.279 157.396 154.47 157.553 154.517 157.726C154.564 157.9 154.45 158.029 154.259 158.01C153.109 157.903 152.16 158.273 151.654 159.025L148.794 163.277C148.713 163.404 148.505 163.404 148.328 163.279Z" fill="black"/>
<path d="M144.505 209.219L123.237 194.188C122.799 193.878 122.507 193.409 122.418 192.869C122.329 192.329 122.455 191.787 122.772 191.348L144.598 160.879C144.722 160.708 144.959 160.666 145.13 160.787L166.872 176.154C167.043 176.275 167.091 176.513 166.979 176.693L147.273 208.641C146.984 209.11 146.535 209.428 146.006 209.536C145.481 209.646 144.946 209.531 144.505 209.219ZM145 161.658L123.395 191.82C123.201 192.087 123.126 192.416 123.182 192.741C123.236 193.07 123.41 193.352 123.677 193.541L144.944 208.572C145.212 208.761 145.533 208.829 145.852 208.764C146.171 208.698 146.443 208.505 146.62 208.221L166.128 176.595L144.998 161.662L145 161.658Z" fill="black"/>
<path d="M104.314 313.25C100.25 313.25 89.7668 308.138 87.5454 305.229C85.4772 302.522 85.7398 300.077 86.0791 298.861C86.1739 298.506 86.2833 298.244 86.3526 298.099L86.028 295.967C85.9952 295.75 86.1374 295.548 86.349 295.515C86.5605 295.477 86.7575 295.627 86.7903 295.844L87.1332 298.102C87.1478 298.192 87.1296 298.282 87.0895 298.36C87.0895 298.36 86.9472 298.626 86.8232 299.078C86.5241 300.151 86.2979 302.313 88.1546 304.743C90.5985 307.94 102.938 313.478 105.087 312.337C105.185 312.285 105.346 312.199 105.222 311.777C104.729 310.09 102.694 307.159 99.3382 303.3C97.208 300.847 95.3039 298.899 95.282 298.88C95.2273 298.824 95.1872 298.749 95.1762 298.671L94.713 296.076C94.6729 295.859 94.8151 295.653 95.023 295.616C95.2382 295.575 95.4352 295.72 95.4717 295.934L95.913 298.409C96.3106 298.817 98.025 300.6 99.9145 302.776C102.307 305.528 105.295 309.283 105.962 311.552C106.159 312.222 105.97 312.768 105.441 313.044C105.163 313.183 104.78 313.25 104.314 313.25Z" fill="black"/>
<path d="M105.919 319.935C102.672 319.935 98.4263 318.866 95.9423 317.632C92.4588 315.901 84.766 310.453 84.5982 305.539C84.4377 300.787 86.0828 298.79 86.1557 298.708C86.298 298.543 86.5424 298.525 86.7029 298.671C86.8633 298.813 86.8816 299.063 86.7393 299.231C86.7247 299.246 85.2219 301.108 85.3715 305.517C85.5174 309.821 92.55 315.071 96.2815 316.925C99.7978 318.675 106.954 320.066 109.132 318.473C109.566 318.156 109.741 317.748 109.676 317.198C109.139 312.715 102.953 306.377 99.382 303.341C99.2178 303.202 99.1959 302.952 99.3309 302.784C99.4659 302.615 99.7103 302.593 99.8744 302.731C100.881 303.588 109.745 311.279 110.442 317.105C110.54 317.939 110.241 318.638 109.581 319.12C108.782 319.696 107.461 319.935 105.919 319.935Z" fill="black"/>
<path d="M62.3878 134.221C61.4321 134.221 60.4582 134.045 59.5281 133.693C57.6532 132.983 55.9643 131.607 54.6476 129.707C54.5235 129.528 54.5637 129.281 54.7387 129.154C54.9138 129.027 55.1546 129.068 55.2786 129.247C56.5042 131.016 58.069 132.295 59.798 132.949C61.6838 133.667 63.7848 133.574 65.4117 132.699C67.1334 131.775 68.1401 130.149 68.1729 128.242C68.1766 128.025 68.3626 127.853 68.5669 127.853C68.7784 127.856 68.9499 128.036 68.9462 128.257C68.9097 130.433 67.7206 132.355 65.7692 133.405C64.7588 133.944 63.5879 134.221 62.3878 134.221Z" fill="black"/>
<path d="M54.3886 129.763C54.3266 129.763 54.2682 129.748 54.2099 129.719C54.0202 129.618 53.9472 129.378 54.0457 129.184L54.1588 128.959C55.5412 126.17 56.4021 121.346 56.4057 116.366C56.4057 115.386 56.3729 114.414 56.3109 113.483C56.2963 113.266 56.4568 113.075 56.6684 113.06C56.8726 113.053 57.066 113.21 57.0805 113.427C57.1462 114.38 57.179 115.367 57.179 116.366C57.1754 121.462 56.2817 126.428 54.8482 129.318L54.7315 129.554C54.6622 129.685 54.5272 129.763 54.3886 129.763Z" fill="black"/>
<path d="M68.7675 128.817C68.6836 128.817 68.5961 128.788 68.5231 128.728C68.4538 128.672 68.3918 128.612 68.3261 128.552C66.827 127.195 66.1959 125.441 66.3418 123.037C66.3564 122.82 66.5351 122.651 66.7504 122.666C66.9619 122.681 67.1261 122.868 67.1115 123.085C66.9802 125.224 67.5309 126.772 68.8441 127.961C68.9025 128.017 68.9535 128.062 69.0082 128.107C69.1724 128.245 69.1979 128.496 69.0666 128.664C68.99 128.769 68.8769 128.817 68.7675 128.817Z" fill="black"/>
<path d="M57.3614 113.775C57.106 113.775 56.8471 113.73 56.599 113.644C56.1795 113.498 55.8038 113.229 55.5449 112.892C54.9758 112.148 54.9175 111.026 55.4062 110.226C55.7236 109.706 56.2525 109.329 56.8616 109.19C57.1717 109.119 57.4963 109.116 57.8027 109.183C58.0106 109.228 58.1456 109.437 58.1018 109.654C58.0581 109.867 57.8538 110.005 57.6422 109.961C57.4453 109.916 57.2337 109.919 57.0294 109.968C56.6282 110.058 56.2671 110.316 56.0628 110.652C55.7418 111.18 55.7783 111.92 56.154 112.41C56.3218 112.627 56.5662 112.802 56.8471 112.9C57.1644 113.012 57.5 113.019 57.7954 112.918C57.9997 112.847 58.2149 112.963 58.2842 113.169C58.3499 113.378 58.2405 113.599 58.0398 113.67C57.8246 113.737 57.5912 113.775 57.3614 113.775Z" fill="black"/>
<path d="M56.9419 116.822C56.8945 116.822 56.8507 116.814 56.8033 116.796C56.7413 116.77 56.6793 116.747 56.6209 116.717C53.9509 115.547 52.3824 112.69 51.5398 110.499C50.668 108.226 50.0005 105.096 49.8765 102.71C49.8619 102.471 49.851 102.228 49.851 101.992C49.851 101.772 50.0224 101.596 50.2376 101.596C50.4528 101.596 50.6243 101.772 50.6243 101.992C50.6243 102.209 50.6315 102.434 50.6461 102.662C50.7629 104.976 51.4085 108.005 52.2547 110.207C53.0426 112.256 54.4944 114.922 56.9419 115.996C57.0003 116.026 57.0368 116.037 57.0769 116.052C57.2775 116.13 57.376 116.358 57.2994 116.564C57.241 116.728 57.0951 116.822 56.9419 116.822Z" fill="black"/>
<path d="M56.9419 109.964C56.9127 109.964 56.8799 109.961 56.8507 109.953C56.6428 109.901 56.5151 109.688 56.5662 109.475C56.8543 108.282 57.7371 106.883 59.0612 106.442C60.1992 106.061 61.3993 106.064 62.5519 106.061H62.6905C64.5727 106.053 66.7467 105.993 68.731 105.343C70.0587 104.905 71.226 104.217 72.105 103.342C72.5975 102.856 72.9987 102.31 73.2978 101.723C74.2389 99.8685 74.0055 97.5689 72.7434 96.2489C72.5938 96.0919 72.5975 95.8414 72.747 95.6881C72.9002 95.5348 73.1446 95.5348 73.2942 95.6918C74.786 97.2473 75.0742 99.9395 73.9836 102.09C73.6443 102.751 73.192 103.365 72.6412 103.911C71.6783 104.864 70.4089 105.619 68.9644 106.094C66.8744 106.779 64.6311 106.842 62.6905 106.85H62.5519C61.454 106.85 60.3232 106.85 59.2982 107.19C58.2623 107.534 57.5437 108.712 57.3139 109.658C57.2738 109.841 57.1133 109.964 56.9419 109.964Z" fill="black"/>
<path d="M52.6852 96.2563C52.5648 96.2563 52.4481 96.2003 52.3751 96.0956C52.2475 95.9198 52.2839 95.673 52.459 95.5422C52.8128 95.2767 53.2177 95.0037 53.67 94.7345C56.3547 93.1192 60.896 91.4851 63.9928 91.6384C67.4252 91.8142 70.7153 93.2126 73.2614 95.5683C73.4182 95.7142 73.4328 95.9647 73.2906 96.1292C73.1483 96.29 72.9039 96.305 72.7434 96.1591C70.3652 93.9567 67.1626 92.5994 63.9563 92.4311C60.9908 92.2778 56.6501 93.8633 54.064 95.4225C53.6372 95.6768 53.2542 95.9348 52.9223 96.1853C52.8457 96.2302 52.7654 96.2563 52.6852 96.2563Z" fill="black"/>
<path d="M47.3778 103.634C46.5498 103.634 45.7218 103.499 44.9412 103.234C43.2341 102.647 41.7204 101.405 40.7866 99.8199C40.3015 98.9898 40.006 98.141 39.9002 97.2922C39.6449 95.258 40.5276 93.1043 42.2019 91.6684C43.6536 90.4195 45.6452 89.7315 47.8156 89.7315C47.8301 89.7315 47.8447 89.7315 47.8557 89.7315C49.4387 89.7352 50.7957 90.1017 51.8899 90.8159C53.1812 91.6647 54.1186 93.6651 54.2463 95.0374C54.2499 95.0711 54.2572 95.1122 54.2572 95.1496C54.2572 95.3702 54.0858 95.546 53.8706 95.546C53.659 95.546 53.4876 95.374 53.484 95.1571C53.484 95.1459 53.4767 95.1122 53.4767 95.1122C53.3526 93.7998 52.4152 92.1022 51.4741 91.4852C50.5038 90.8533 49.2892 90.528 47.8557 90.5242C47.8411 90.5242 47.8301 90.5242 47.8192 90.5242C45.8312 90.5242 44.0147 91.1449 42.7016 92.2742C41.2498 93.5193 40.4547 95.4487 40.6735 97.1912C40.7647 97.9316 41.0273 98.6794 41.4577 99.4123C42.2967 100.837 43.6573 101.955 45.1966 102.482C46.7359 103.009 48.4831 102.957 49.9859 102.333C50.1829 102.25 50.409 102.348 50.4893 102.549C50.5695 102.751 50.4747 102.983 50.2777 103.065C49.3548 103.443 48.3663 103.634 47.3778 103.634Z" fill="black"/>
<path d="M67.0823 122.85C66.9619 122.85 66.8415 122.846 66.7212 122.842C65.7947 122.808 64.8645 122.644 63.9927 122.479C63.7812 122.438 63.6426 122.233 63.6827 122.019C63.7228 121.803 63.9234 121.66 64.1314 121.702C64.9776 121.862 65.8749 122.019 66.7503 122.053C67.6732 122.09 68.4538 121.975 69.1395 121.698C70.5621 121.122 71.7257 119.746 72.3239 117.925C72.882 116.239 72.9221 114.384 72.8783 112.627C72.8747 112.398 72.8674 112.17 72.8565 111.946C72.8492 111.628 72.8382 111.329 72.82 111.026C72.758 109.725 72.6522 108.394 72.5026 107.063C72.3713 105.93 72.2181 104.815 72.0394 103.746C72.0029 103.529 72.1452 103.323 72.3567 103.29C72.5683 103.252 72.7689 103.398 72.8017 103.615C72.9841 104.696 73.141 105.825 73.2723 106.973C73.4255 108.323 73.5349 109.676 73.5969 110.989C73.6115 111.295 73.6225 111.606 73.6334 111.916C73.6443 112.14 73.6516 112.38 73.6553 112.612C73.6954 114.436 73.6553 116.377 73.0571 118.179C72.3823 120.221 71.0582 121.773 69.424 122.434C68.7273 122.711 67.9613 122.85 67.0823 122.85Z" fill="black"/>
<path d="M129.272 173.014C129.308 173.019 129.343 173.023 129.379 173.024C129.558 173.034 129.727 173.01 129.887 172.959C130.608 172.71 130.908 171.878 130.825 171.222C130.735 170.562 130.34 170.015 130.004 169.617C128.554 167.877 126.485 166.568 123.851 165.723C121.523 164.977 117.501 165.408 114.893 166.195C114.688 166.255 114.572 166.477 114.631 166.688C114.69 166.898 114.906 167.02 115.112 166.956C117.608 166.204 121.439 165.779 123.621 166.478C126.112 167.276 128.064 168.504 129.416 170.129C129.682 170.449 129.993 170.871 130.057 171.325C130.101 171.663 129.954 172.096 129.639 172.206C129.575 172.227 129.502 172.237 129.42 172.231C129.162 172.218 128.862 172.068 128.608 171.93C128.384 171.811 128.066 171.595 127.702 171.345C125.647 169.945 121.824 167.347 117.809 169.758C117.624 169.869 117.563 170.113 117.672 170.299C117.779 170.49 118.017 170.551 118.199 170.44C121.801 168.278 125.363 170.701 127.274 172.002C127.675 172.276 127.989 172.487 128.25 172.629C128.545 172.794 128.896 172.969 129.272 173.014Z" fill="black"/>
<path d="M117.765 174.767C119.484 174.974 121.248 174.795 122.888 174.221L122.975 174.191C123.053 174.163 123.133 174.132 123.208 174.101C123.624 173.926 123.927 173.737 124.159 173.503C124.326 173.338 124.465 173.13 124.556 172.9C124.695 172.566 124.718 172.207 124.617 171.892C124.457 171.378 123.977 170.977 123.369 170.845C122.944 170.749 122.526 170.784 122.122 170.817L121.984 170.826C120.289 170.943 119.073 170.612 118.267 169.817C118.138 169.687 118.02 169.551 117.915 169.402C117.788 169.224 117.547 169.187 117.374 169.314C117.2 169.445 117.165 169.692 117.289 169.869C117.422 170.055 117.565 170.224 117.726 170.387C118.697 171.349 120.106 171.752 122.034 171.618L122.179 171.606C122.546 171.577 122.892 171.552 123.208 171.619C123.461 171.676 123.791 171.845 123.883 172.136C123.926 172.271 123.911 172.431 123.846 172.593C123.791 172.723 123.716 172.844 123.623 172.936C123.464 173.098 123.239 173.233 122.921 173.365C122.857 173.39 122.786 173.418 122.714 173.443L122.632 173.474C120.061 174.375 117.149 174.228 114.656 173.075C114.56 173.033 114.481 172.998 114.402 172.959C114.212 172.859 113.979 172.941 113.885 173.137C113.791 173.332 113.868 173.57 114.058 173.667C114.154 173.716 114.253 173.761 114.353 173.802C115.434 174.302 116.589 174.626 117.765 174.767Z" fill="black"/>
<path d="M127.849 174.94C127.998 174.958 128.145 174.965 128.286 174.956C128.873 174.931 129.408 174.659 129.709 174.234C130.021 173.802 130.065 173.232 129.853 172.785C129.845 172.673 129.788 172.57 129.688 172.503L129.607 172.449C129.448 172.33 129.225 172.355 129.093 172.509C128.96 172.659 128.963 172.888 129.096 173.041C129.249 173.215 129.244 173.543 129.086 173.763C128.922 173.995 128.602 174.148 128.247 174.165C128.008 174.177 127.746 174.138 127.465 174.045C127.346 174.012 127.239 173.973 127.139 173.935C126.331 173.628 125.586 173.187 124.926 172.624C124.762 172.482 124.518 172.508 124.38 172.676C124.242 172.844 124.267 173.095 124.431 173.236C125.159 173.859 125.979 174.342 126.87 174.682C126.99 174.73 127.118 174.775 127.248 174.809C127.453 174.874 127.653 174.917 127.849 174.94Z" fill="black"/>
<path d="M126.027 175.972C126.368 176.013 126.69 175.964 126.969 175.824C127.466 175.573 127.761 175.04 127.691 174.522C127.662 174.305 127.467 174.152 127.254 174.185C127.042 174.215 126.897 174.415 126.926 174.633C126.949 174.806 126.821 175.016 126.633 175.111C126.427 175.212 126.156 175.22 125.864 175.126C125.583 175.036 125.317 174.871 124.998 174.667C124.495 174.344 123.984 174.024 123.477 173.701C123.296 173.587 123.059 173.643 122.944 173.829C122.833 174.015 122.888 174.258 123.069 174.375C123.576 174.695 124.083 175.018 124.586 175.337C124.875 175.52 125.234 175.751 125.634 175.881C125.765 175.926 125.899 175.957 126.027 175.972Z" fill="black"/>
</svg>
