<svg width="324" height="327" viewBox="0 0 324 327" fill="none" xmlns="http://www.w3.org/2000/svg">
<path d="M76.0969 107.463L86.1488 113.399C89.9647 115.884 92.9673 119.483 94.7721 123.729L103.452 144.127L126.773 148.684C126.878 149.06 127.012 149.582 127.113 150.228C127.311 151.488 127.384 153.202 126.915 155.124C126.619 156.342 126.178 157.357 125.725 158.164C125.397 158.757 125.069 159.237 124.794 159.606C116.697 158.363 108.595 157.116 100.498 155.87C96.844 155.306 93.6755 152.995 91.9678 149.644L86.0274 137.985C85.7846 138.54 85.4851 139.074 85.1412 139.588C83.6479 141.8 83.0612 144.525 83.5063 147.172L87.8969 173.353H51.8495L56.2644 147.516C56.7095 144.914 56.5072 142.235 55.6857 139.729L53.274 132.402L53.2659 132.406C45.4923 151.14 37.7147 169.882 29.9451 188.616C29.5486 188.823 29.0468 189.059 28.456 189.278C27.3958 189.684 26.0321 190.045 24.4296 190.136C21.6941 190.289 19.4927 189.56 18.1614 188.968C17.8781 188.839 17.6393 188.723 17.437 188.616L40.0415 123.778C41.3202 120.113 43.902 117.077 47.2688 115.271L60.4689 108.428L60.7278 108.296L60.9828 108.805C62.2898 110.69 64.0785 112.264 66.1989 113.063C68.3193 113.867 70.7716 113.838 72.7747 112.765C74.7737 111.692 76.0281 109.758 76.0686 107.443L76.0969 107.463Z" fill="#5D9FEE"/>
<path d="M122.099 316.687C122.617 321.074 111.513 319.26 106.629 316.832C102.744 314.906 94.4605 308.971 94.2865 303.819C94.1125 298.666 95.9092 296.554 95.9092 296.554H95.9133C95.5531 297.842 95.2941 300.381 97.4672 303.218C100.599 307.31 118.449 315.056 117.15 310.611C116.45 308.23 113.302 304.237 110.534 301.056C114.706 304.597 121.492 311.626 122.099 316.687Z" fill="black"/>
<path d="M55.7666 79.1371L55.6088 79.1454C53.8364 79.8785 51.809 79.9406 50.0002 79.3193C48.1913 78.7022 46.6091 77.4016 45.6217 75.7283C45.1483 74.9206 44.8124 74.0301 44.6951 73.0982C44.4199 70.9113 45.4437 68.6746 47.0988 67.2581C48.7457 65.8457 50.9471 65.2079 53.0959 65.2161C54.581 65.2203 56.0904 65.5309 57.3408 66.3469C58.5669 67.1504 59.619 69.1882 59.7607 70.6917C62.9211 68.7906 67.7811 67.1628 70.9739 67.3202C74.6523 67.5108 78.2578 69.0308 80.9893 71.5615L81.0135 71.6858C82.6282 73.3674 82.7657 76.1715 81.7055 78.2631C81.3413 78.9797 80.8598 79.6134 80.2973 80.1684C79.2168 81.2412 77.8329 82.0115 76.3842 82.4879C74.1909 83.2044 71.856 83.2955 69.5535 83.3038C68.2464 83.3038 66.907 83.2873 65.6606 83.7014C64.4183 84.1156 63.4916 85.4493 63.176 86.7499L63.1801 86.7582C62.6338 86.8824 62.132 87.2221 61.8366 87.7108C61.3874 88.4481 61.44 89.4752 61.9661 90.1587C62.2089 90.4776 62.5569 90.7178 62.9373 90.8462L62.9089 91.0492C62.9818 92.1219 63.0141 93.1988 63.0141 94.2757C60.2786 93.0787 58.571 90.1835 57.5836 87.6197C56.665 85.2422 55.9042 81.85 55.7666 79.1371Z" fill="black"/>
<path d="M81.3935 88.8829C81.3935 89.0568 81.3451 89.2225 81.2603 89.3633C81.2522 89.0195 81.2401 88.6841 81.22 88.3444C81.3289 88.4977 81.3935 88.6841 81.3935 88.8829Z" fill="black"/>
<path d="M62.828 296.707C62.828 296.707 65.1629 301.283 64.9161 309.592C64.6733 317.892 57.357 331.532 52.0437 322.776C46.7346 314.024 51.1009 301.085 52.9664 297.829C52.1854 302.033 51.8981 306.332 52.1125 310.603C52.1732 311.767 52.2704 312.947 52.7114 314.024C53.1485 315.097 53.9821 316.058 55.0747 316.364C56.3048 316.716 57.6524 316.169 58.579 315.271C59.5098 314.376 60.0884 313.167 60.5821 311.965C62.6338 306.962 63.0627 302.112 62.7188 296.719L62.828 296.707Z" fill="black"/>
<path d="M23.7093 190.596C21.7709 190.596 19.8083 190.177 17.9954 189.37C17.7 189.237 17.4532 189.117 17.2468 189.005C17.0526 188.906 16.9635 188.674 17.0364 188.467L39.6408 123.633C40.96 119.852 43.5984 116.745 47.0705 114.886L60.7076 107.816C60.918 107.708 61.177 107.791 61.2863 108.006C61.3955 108.221 61.3105 108.487 61.1001 108.598L60.6631 108.822L47.463 115.664C44.1852 117.421 41.6925 120.357 40.4461 123.928L17.9712 188.396C18.0845 188.45 18.2059 188.508 18.3353 188.566C20.2615 189.419 22.3577 189.813 24.4093 189.697C25.7447 189.622 27.0599 189.345 28.3103 188.868C28.7514 188.703 29.1884 188.512 29.6133 188.297C37.3626 169.609 45.12 150.92 52.8733 132.236C52.9664 132.013 53.2213 131.909 53.4358 132.004C53.6543 132.1 53.7555 132.356 53.6624 132.58C45.8888 151.314 38.1112 170.056 30.3417 188.79C30.3012 188.885 30.2324 188.964 30.1434 189.009C29.6416 189.27 29.1237 189.502 28.6057 189.693C27.2744 190.198 25.8783 190.496 24.4538 190.575C24.207 190.587 23.9602 190.596 23.7093 190.596Z" fill="black"/>
<path d="M87.905 173.792H51.8576C51.7321 173.792 51.6107 173.734 51.5298 173.634C51.4489 173.535 51.4125 173.402 51.4367 173.278L55.8516 147.441C56.2846 144.923 56.0863 142.305 55.2891 139.87L51.457 128.206C51.3801 127.978 51.5015 127.726 51.7281 127.651C51.9547 127.577 52.1975 127.697 52.2703 127.929L56.1025 139.592C56.9482 142.164 57.1546 144.935 56.6974 147.594L52.3715 172.918H87.3991L83.0935 147.251C82.6241 144.471 83.2311 141.663 84.7971 139.34C85.129 138.851 85.4122 138.337 85.6469 137.807C86.2175 136.523 86.5048 135.16 86.5048 133.748C86.5048 132.033 86.0637 130.335 85.222 128.844L83.0085 124.901C82.8912 124.69 82.96 124.425 83.1664 124.3C83.3727 124.18 83.6317 124.251 83.7531 124.462L85.9666 128.405C86.8771 130.029 87.3627 131.876 87.3627 133.748C87.3627 135.285 87.0471 136.772 86.4279 138.171C86.173 138.747 85.8614 139.311 85.5013 139.841C84.0647 141.974 83.5063 144.55 83.9352 147.101L88.3258 173.282C88.346 173.411 88.3137 173.539 88.2327 173.639C88.1518 173.738 88.0304 173.792 87.905 173.792Z" fill="black"/>
<path d="M124.798 160.045C124.778 160.045 124.758 160.045 124.733 160.041C116.636 158.798 108.535 157.552 100.437 156.305C96.6619 155.725 93.3558 153.31 91.5914 149.848L85.655 138.196C85.5579 138.023 85.5903 137.795 85.74 137.658C85.914 137.497 86.1851 137.505 86.343 137.687C86.3672 137.716 86.3915 137.749 86.4118 137.782L92.3522 149.442C93.9911 152.656 97.0625 154.897 100.567 155.435C108.579 156.669 116.596 157.904 124.608 159.134C124.887 158.74 125.134 158.351 125.357 157.953C125.866 157.042 126.251 156.056 126.502 155.021C126.878 153.48 126.939 151.89 126.692 150.303C126.627 149.893 126.546 149.487 126.437 149.069L103.375 144.563C103.238 144.534 103.12 144.438 103.064 144.306L94.3836 123.907C92.6031 119.724 89.6774 116.22 85.9221 113.772L75.8865 107.849L76.0726 107.451L76.2871 107.07L86.3713 113.022C90.2884 115.569 93.3274 119.21 95.1727 123.555L103.764 143.743L126.862 148.257C127.02 148.286 127.149 148.406 127.194 148.568C127.347 149.115 127.465 149.636 127.546 150.167C127.813 151.873 127.744 153.575 127.339 155.236C127.068 156.346 126.655 157.411 126.109 158.388C125.83 158.894 125.518 159.378 125.146 159.875C125.061 159.983 124.932 160.045 124.798 160.045Z" fill="black"/>
<path d="M107.98 293.447H92.9228C92.7205 293.447 92.5465 293.306 92.506 293.103L71.6699 198.548C71.6173 198.312 71.763 198.076 71.9937 198.022C72.2243 197.968 72.455 198.117 72.5076 198.353L93.2668 292.565H107.491L95.2092 199.517C94.6426 195.201 93.6229 190.927 92.1782 186.806L87.5044 173.498C87.4235 173.27 87.5408 173.017 87.7634 172.934C87.9859 172.851 88.2328 172.972 88.3137 173.199L92.9876 186.507C94.4524 190.687 95.4843 195.023 96.063 199.397L108.409 292.942C108.425 293.066 108.389 293.194 108.308 293.29C108.219 293.393 108.102 293.447 107.98 293.447Z" fill="black"/>
<path d="M65.43 293.447H50.7286C50.4979 293.447 50.3078 293.261 50.2997 293.025L46.8115 197.922C46.5889 194.166 46.9612 190.413 47.9121 186.772L51.4408 173.241C51.5015 173.005 51.7403 172.868 51.9669 172.93C52.1975 172.992 52.3311 173.233 52.2704 173.469L48.7417 187C47.815 190.546 47.4549 194.207 47.6693 197.881L51.1414 292.573H65.0294L71.6456 198.585L67.2307 192.24C67.0932 192.041 67.1377 191.768 67.3319 191.627C67.5262 191.486 67.7932 191.531 67.9308 191.73L72.4347 198.2C72.4914 198.283 72.5197 198.386 72.5116 198.486L65.8549 293.041C65.8428 293.269 65.6566 293.447 65.43 293.447Z" fill="black"/>
<path d="M72.0867 198.892C71.9937 198.892 71.8966 198.859 71.8197 198.796C71.6335 198.643 71.6052 198.366 71.7549 198.179L76.6878 191.925C76.8375 191.734 77.1046 191.705 77.2907 191.859C77.4769 192.012 77.5052 192.29 77.3555 192.476L72.4226 198.73C72.3376 198.838 72.2122 198.892 72.0867 198.892Z" fill="black"/>
<path d="M53.3629 296.64C53.1363 296.64 52.9502 296.462 52.934 296.23L52.7357 293.037C52.7357 293.029 52.7357 292.987 52.7357 292.979C52.7357 292.735 52.9259 292.54 53.1647 292.54C53.4034 292.54 53.5936 292.735 53.5936 292.979V293.008L53.7919 296.172C53.8081 296.413 53.626 296.624 53.3913 296.636C53.3791 296.64 53.371 296.64 53.3629 296.64Z" fill="black"/>
<path d="M62.7025 296.893C62.6904 296.893 62.6782 296.893 62.6621 296.893C62.4273 296.873 62.2533 296.657 62.2736 296.417C62.3262 295.833 62.3302 295.299 62.3343 294.727C62.3383 294.168 62.3424 293.588 62.399 292.971C62.4193 292.739 62.6014 292.548 62.8441 292.557C63.0748 292.569 63.2529 292.747 63.2529 292.979V293.008C63.2003 293.63 63.1962 294.164 63.1922 294.731C63.1881 295.29 63.1841 295.874 63.1274 296.492C63.1112 296.724 62.921 296.893 62.7025 296.893Z" fill="black"/>
<path d="M55.8597 316.903C55.5522 316.903 55.2527 316.861 54.9614 316.778C53.8405 316.464 52.8531 315.494 52.3189 314.186C51.8455 313.03 51.7443 311.792 51.6876 310.619C51.4732 306.312 51.7605 301.979 52.5496 297.738C52.6346 297.278 52.7276 296.814 52.8247 296.355C52.8774 296.119 53.104 295.97 53.3346 296.019C53.5653 296.073 53.711 296.305 53.6624 296.541C53.5653 296.993 53.4763 297.444 53.3913 297.9C52.6184 302.071 52.3311 306.333 52.5455 310.57C52.6022 311.663 52.6912 312.819 53.1121 313.842C53.545 314.906 54.322 315.685 55.192 315.929C56.3777 316.265 57.5674 315.639 58.2877 314.939C59.1699 314.09 59.7243 312.918 60.1896 311.783C62.0227 307.31 62.6702 302.671 62.2939 296.736L62.2777 296.471C62.2655 296.231 62.4476 296.023 62.6864 296.011C62.917 295.994 63.1234 296.185 63.1356 296.429L63.1517 296.686C63.5402 302.758 62.8685 307.521 60.9828 312.127C60.481 313.353 59.878 314.621 58.8785 315.581C58.0004 316.435 56.9037 316.903 55.8597 316.903Z" fill="black"/>
<path d="M55.8839 326.036C54.6456 326.036 53.1241 325.381 51.6835 323.004C46.3339 314.182 50.4817 301.3 52.6021 297.602C52.7194 297.39 52.9825 297.32 53.1889 297.444C53.3912 297.568 53.46 297.834 53.3426 298.045C51.376 301.474 47.3334 314.165 52.4159 322.54C53.6825 324.632 55.107 325.477 56.6528 325.05C60.489 323.994 64.3211 315.437 64.4951 309.576C64.7339 301.478 62.4799 296.951 62.4556 296.906C62.3464 296.69 62.4273 296.425 62.6377 296.313C62.8482 296.202 63.1071 296.284 63.2164 296.5C63.3135 296.69 65.5999 301.275 65.353 309.601C65.1709 315.805 61.1445 324.723 56.8753 325.895C56.5678 325.982 56.236 326.036 55.8839 326.036Z" fill="black"/>
<path d="M115.73 312.372C111.222 312.372 99.5916 306.71 97.1272 303.487C94.8327 300.489 95.1241 297.78 95.5004 296.434C95.6057 296.04 95.727 295.75 95.8039 295.589L95.4438 293.228C95.4074 292.988 95.5652 292.764 95.7999 292.727C96.0346 292.685 96.2531 292.851 96.2895 293.091L96.6699 295.593C96.6861 295.692 96.6659 295.792 96.6214 295.879C96.6214 295.879 96.4635 296.173 96.3259 296.674C95.9941 297.863 95.7432 300.257 97.803 302.949C100.514 306.49 114.204 312.624 116.587 311.361C116.697 311.303 116.875 311.208 116.737 310.74C116.191 308.872 113.933 305.624 110.21 301.35C107.847 298.633 105.734 296.475 105.71 296.454C105.649 296.392 105.605 296.309 105.593 296.222L105.079 293.348C105.034 293.108 105.192 292.88 105.423 292.838C105.662 292.793 105.88 292.954 105.921 293.19L106.41 295.932C106.851 296.384 108.753 298.36 110.849 300.77C113.504 303.819 116.818 307.977 117.559 310.491C117.777 311.233 117.567 311.837 116.98 312.144C116.672 312.297 116.247 312.372 115.73 312.372Z" fill="black"/>
<path d="M117.51 319.777C113.909 319.777 109.198 318.592 106.443 317.226C102.578 315.308 94.0437 309.273 93.8576 303.831C93.6795 298.566 95.5045 296.355 95.5855 296.263C95.7433 296.081 96.0144 296.061 96.1925 296.222C96.3705 296.379 96.3907 296.657 96.2329 296.843C96.2167 296.86 94.5495 298.923 94.7154 303.806C94.8773 308.573 102.679 314.388 106.819 316.443C110.72 318.381 118.659 319.922 121.075 318.158C121.557 317.805 121.751 317.354 121.678 316.745C121.083 311.779 114.22 304.758 110.259 301.395C110.076 301.242 110.052 300.965 110.202 300.778C110.352 300.592 110.623 300.567 110.805 300.72C111.922 301.669 121.755 310.189 122.528 316.642C122.637 317.565 122.305 318.34 121.573 318.874C120.687 319.512 119.222 319.777 117.51 319.777Z" fill="black"/>
<path d="M69.2177 114.062C68.1574 114.062 67.077 113.867 66.0451 113.478C63.9651 112.691 62.0915 111.166 60.6307 109.062C60.4931 108.863 60.5376 108.59 60.7319 108.449C60.9261 108.308 61.1932 108.354 61.3308 108.553C62.6904 110.512 64.4264 111.928 66.3445 112.653C68.4367 113.449 70.7675 113.345 72.5723 112.376C74.4823 111.353 75.5992 109.551 75.6356 107.439C75.6397 107.198 75.846 107.008 76.0726 107.008C76.3073 107.012 76.4975 107.211 76.4935 107.455C76.453 109.866 75.1338 111.995 72.9689 113.159C71.848 113.755 70.549 114.062 69.2177 114.062Z" fill="black"/>
<path d="M60.3433 109.124C60.2745 109.124 60.2098 109.108 60.145 109.075C59.9346 108.963 59.8537 108.698 59.9629 108.482L60.0884 108.234C61.6221 105.144 62.577 99.801 62.5811 94.284C62.5811 93.1989 62.5447 92.122 62.4759 91.0906C62.4597 90.8504 62.6377 90.6392 62.8725 90.6226C63.0991 90.6143 63.3135 90.7883 63.3297 91.0285C63.4026 92.0847 63.439 93.1781 63.439 94.284C63.4349 99.9294 62.4435 105.43 60.8532 108.632L60.7237 108.893C60.6468 109.037 60.4971 109.124 60.3433 109.124Z" fill="black"/>
<path d="M76.2951 108.077C76.2021 108.077 76.105 108.043 76.024 107.977C75.9471 107.915 75.8783 107.849 75.8055 107.783C74.1423 106.279 73.4423 104.336 73.6041 101.673C73.6203 101.433 73.8186 101.247 74.0574 101.263C74.2921 101.28 74.4742 101.487 74.458 101.727C74.3123 104.096 74.9233 105.811 76.3801 107.128C76.4449 107.19 76.5015 107.24 76.5622 107.29C76.7443 107.443 76.7726 107.72 76.627 107.907C76.542 108.023 76.4165 108.077 76.2951 108.077Z" fill="black"/>
<path d="M63.6413 91.4137C63.3581 91.4137 63.0708 91.364 62.7956 91.2688C62.3302 91.1072 61.9134 90.809 61.6261 90.4362C60.9948 89.612 60.9301 88.3694 61.4723 87.4831C61.8244 86.9073 62.4112 86.489 63.0869 86.3358C63.4309 86.2571 63.7911 86.2529 64.131 86.3275C64.3616 86.3772 64.5114 86.6091 64.4628 86.8494C64.4142 87.0854 64.1876 87.2387 63.9529 87.189C63.7344 87.1393 63.4997 87.1434 63.2731 87.1973C62.828 87.2967 62.4273 87.5825 62.2007 87.9552C61.8446 88.5392 61.8851 89.3593 62.3019 89.9019C62.488 90.1422 62.7592 90.3368 63.0708 90.4445C63.4228 90.5688 63.7951 90.5771 64.1229 90.4652C64.3495 90.3865 64.5882 90.5149 64.6651 90.7427C64.738 90.9747 64.6166 91.2191 64.394 91.2977C64.1553 91.3723 63.8963 91.4137 63.6413 91.4137Z" fill="black"/>
<path d="M63.176 94.7893C63.1234 94.7893 63.0748 94.7811 63.0222 94.7603C62.9534 94.7313 62.8846 94.7065 62.8199 94.6734C59.8577 93.377 58.1177 90.2125 57.1829 87.7854C56.2158 85.2671 55.4752 81.8003 55.3377 79.1578C55.3215 78.8927 55.3093 78.6235 55.3093 78.3626C55.3093 78.1182 55.4995 77.9235 55.7383 77.9235C55.977 77.9235 56.1672 78.1182 56.1672 78.3626C56.1672 78.6028 56.1753 78.8513 56.1915 79.104C56.321 81.6678 57.0372 85.0227 57.9761 87.4623C58.8501 89.7321 60.4607 92.6853 63.176 93.874C63.2407 93.9071 63.2812 93.9195 63.3257 93.9361C63.5483 94.0231 63.6575 94.2757 63.5725 94.5035C63.5078 94.6858 63.3459 94.7893 63.176 94.7893Z" fill="black"/>
<path d="M63.176 87.1931C63.1436 87.1931 63.1072 87.189 63.0748 87.1807C62.8442 87.1227 62.7025 86.8866 62.7592 86.6505C63.0789 85.3293 64.0581 83.7802 65.5271 83.2915C66.7896 82.869 68.121 82.8731 69.3997 82.869H69.5535C71.6415 82.8607 74.0533 82.7944 76.2547 82.0737C77.7277 81.5891 79.0226 80.827 79.9978 79.8578C80.5441 79.3194 80.9893 78.7147 81.3211 78.0644C82.3651 76.01 82.1061 73.4627 80.706 72.0006C80.5401 71.8267 80.5441 71.5492 80.71 71.3794C80.88 71.2095 81.1511 71.2095 81.317 71.3835C82.9721 73.1065 83.2918 76.0887 82.0818 78.4703C81.7055 79.2034 81.2037 79.8827 80.5927 80.4874C79.5244 81.5436 78.1161 82.3802 76.5137 82.9063C74.195 83.6642 71.7063 83.7346 69.5535 83.7429H69.3997C68.1817 83.7429 66.9272 83.7429 65.7901 84.1198C64.6409 84.5009 63.8437 85.8056 63.5887 86.8535C63.5442 87.0564 63.3662 87.1931 63.176 87.1931Z" fill="black"/>
<path d="M58.4536 72.0088C58.3201 72.0088 58.1906 71.9467 58.1096 71.8307C57.968 71.636 58.0085 71.3626 58.2027 71.2177C58.5952 70.9236 59.0444 70.6212 59.5462 70.323C62.5245 68.5337 67.5626 66.7237 70.9981 66.8935C74.806 67.0882 78.4561 68.6373 81.2806 71.2467C81.4546 71.4082 81.4708 71.6857 81.313 71.868C81.1552 72.0461 80.8841 72.0626 80.706 71.9011C78.0676 69.4615 74.5147 67.958 70.9577 67.7716C67.6678 67.6018 62.8523 69.358 59.9832 71.0851C59.5098 71.3668 59.0849 71.6526 58.7166 71.9301C58.6316 71.9798 58.5426 72.0088 58.4536 72.0088Z" fill="black"/>
<path d="M52.5657 80.1808C51.6471 80.1808 50.7286 80.0317 49.8626 79.7376C47.9688 79.0874 46.2894 77.7123 45.2535 75.9561C44.7153 75.0366 44.3875 74.0964 44.2701 73.1562C43.9869 70.903 44.9662 68.5172 46.8236 66.9268C48.4341 65.5434 50.6436 64.7812 53.0513 64.7812C53.0675 64.7812 53.0837 64.7812 53.0958 64.7812C54.8521 64.7854 56.3574 65.1913 57.5714 65.9824C59.0039 66.9226 60.0439 69.1385 60.1855 70.6586C60.1896 70.6959 60.1977 70.7414 60.1977 70.7829C60.1977 71.0272 60.0075 71.2219 59.7687 71.2219C59.534 71.2219 59.3438 71.0314 59.3398 70.7911C59.3398 70.7787 59.3317 70.7414 59.3317 70.7414C59.1941 69.2876 58.1541 67.4072 57.1101 66.7238C56.0337 66.0238 54.6862 65.6635 53.0958 65.6593C53.0797 65.6593 53.0675 65.6593 53.0554 65.6593C50.85 65.6593 48.8347 66.3469 47.378 67.5977C45.7674 68.977 44.8852 71.1142 45.128 73.0443C45.2292 73.8644 45.5206 74.6928 45.9981 75.5046C46.9288 77.0827 48.4382 78.3211 50.1458 78.9051C51.8535 79.4891 53.7919 79.4311 55.4591 78.7394C55.6776 78.6483 55.9285 78.756 56.0175 78.9797C56.1065 79.2033 56.0013 79.4601 55.7828 79.5513C54.759 79.9696 53.6624 80.1808 52.5657 80.1808Z" fill="black"/>
<path d="M74.4256 101.466C74.2921 101.466 74.1585 101.462 74.025 101.458C72.9971 101.42 71.9653 101.238 70.9981 101.056C70.7634 101.01 70.6096 100.782 70.6542 100.546C70.6987 100.306 70.9212 100.149 71.1519 100.194C72.0907 100.372 73.0862 100.546 74.0574 100.584C75.0812 100.625 75.9471 100.497 76.7079 100.19C78.2861 99.5523 79.577 98.0281 80.2406 96.011C80.8597 94.143 80.9043 92.0886 80.8557 90.142C80.8517 89.8893 80.8436 89.6366 80.8314 89.3881C80.8233 89.0361 80.8112 88.7047 80.791 88.3692C80.7222 86.9278 80.6048 85.4533 80.4389 83.9788C80.2932 82.7238 80.1233 81.4895 79.925 80.3049C79.8845 80.0647 80.0423 79.8369 80.277 79.7996C80.5117 79.7582 80.7343 79.9197 80.7707 80.16C80.9731 81.357 81.1471 82.6078 81.2927 83.8794C81.4627 85.3746 81.5841 86.874 81.6529 88.3278C81.6691 88.6674 81.6812 89.0112 81.6934 89.355C81.7055 89.6035 81.7136 89.8686 81.7176 90.1254C81.7621 92.1466 81.7176 94.2963 81.054 96.2927C80.3054 98.5541 78.8364 100.273 77.0235 101.006C76.2506 101.313 75.4008 101.466 74.4256 101.466Z" fill="black"/>
<path d="M158.531 164.411H138.204C136.477 164.411 134.971 163.218 134.546 161.507C134.465 161.213 134.425 160.886 134.425 160.542V153.36C134.425 153.116 134.615 152.921 134.854 152.921C135.093 152.921 135.283 153.116 135.283 153.36V160.542C135.283 160.807 135.315 161.056 135.376 161.283C135.708 162.613 136.869 163.532 138.204 163.532H158.531C160.141 163.532 161.452 162.19 161.452 160.542C161.452 160.298 161.643 160.103 161.881 160.103C162.12 160.103 162.31 160.298 162.31 160.542C162.31 162.675 160.615 164.411 158.531 164.411Z" fill="black"/>
<path d="M161.788 148.886C161.594 148.886 161.416 148.75 161.372 148.547C161.06 147.188 159.89 146.24 158.531 146.24H138.205C136.853 146.24 135.688 147.18 135.372 148.522C135.356 148.572 135.352 148.601 135.348 148.626L134.927 148.551L134.51 148.452C134.522 148.398 134.53 148.344 134.546 148.294C134.947 146.579 136.456 145.362 138.209 145.362H158.535C160.295 145.362 161.809 146.588 162.213 148.348C162.266 148.584 162.124 148.82 161.894 148.874C161.857 148.882 161.821 148.886 161.788 148.886ZM134.927 148.551H134.931H134.927Z" fill="black"/>
<path d="M133.138 154.313C132.665 154.313 132.187 154.234 131.73 154.072C131.507 153.994 131.386 153.745 131.463 153.513C131.54 153.285 131.783 153.161 132.009 153.24C132.879 153.546 133.846 153.484 134.664 153.066C134.7 153.049 134.716 153.045 134.733 153.033C134.874 152.954 135 152.875 135.125 152.797C135.412 152.618 135.708 152.432 136.06 152.32C136.817 152.076 137.565 152.254 138.294 152.424C138.439 152.457 138.589 152.494 138.735 152.523C139.981 152.784 141.288 152.722 142.51 152.337C142.761 152.258 143.077 152.146 143.299 151.948C143.469 151.79 143.566 151.566 143.538 151.393C143.477 151.045 142.955 150.821 142.571 150.684C141.134 150.171 139.702 149.657 138.265 149.139C137.569 148.891 136.841 148.63 136.141 148.646C135.809 148.655 135.461 148.717 135.089 148.837C134.526 149.019 133.98 149.309 133.405 149.616C132.997 149.835 132.572 150.059 132.139 150.245C130.544 150.929 128.735 151.069 127.056 150.647C126.825 150.589 126.684 150.353 126.741 150.117C126.797 149.881 127.032 149.74 127.258 149.794C128.764 150.171 130.378 150.042 131.807 149.433C132.207 149.264 132.616 149.044 133.009 148.837C133.591 148.526 134.19 148.207 134.826 148C135.279 147.855 135.704 147.777 136.121 147.768C136.978 147.748 137.812 148.05 138.545 148.311C139.981 148.829 141.414 149.342 142.85 149.856C143.259 150.001 144.222 150.345 144.38 151.239C144.465 151.711 144.27 152.237 143.866 152.606C143.514 152.917 143.089 153.074 142.761 153.178C141.401 153.604 139.949 153.675 138.561 153.385C138.407 153.352 138.253 153.318 138.099 153.281C137.456 153.128 136.849 152.987 136.315 153.161C136.064 153.24 135.825 153.389 135.574 153.546C135.433 153.633 135.295 153.724 135.149 153.799C135.117 153.816 135.073 153.84 135.028 153.857C134.445 154.159 133.794 154.313 133.138 154.313Z" fill="black"/>
<path d="M133.96 161.954C132.984 161.954 132.046 161.532 131.325 161.204L130.868 160.997C129.185 160.235 127.501 159.477 125.822 158.719C125.603 158.62 125.506 158.363 125.603 158.139C125.7 157.916 125.951 157.816 126.17 157.916C127.853 158.674 129.537 159.432 131.22 160.194L131.677 160.401C132.697 160.861 133.616 161.225 134.486 161.018C134.716 160.964 134.947 161.109 135 161.345C135.052 161.581 134.911 161.817 134.68 161.871C134.437 161.929 134.198 161.954 133.96 161.954Z" fill="black"/>
<path d="M240.969 127.291L250.939 170.665C246.792 171.692 239.933 173.133 233.551 173.146C226.304 173.167 218.097 172.003 213.638 170.789V170.242L211.537 162.845V162.841C215.665 162.634 219.477 160.501 221.877 157.042L239.046 132.298C240.135 130.77 240.754 129.043 240.92 127.291H240.969Z" fill="#F67952"/>
<path d="M201.757 162.87L173.673 162.924V160.948V151.04V147.975L200.628 147.292L196.047 131.698C194.25 125.58 196.852 119.003 202.307 115.892L204.096 114.873C204.14 114.935 204.181 115.002 204.221 115.064C206.637 118.564 211.129 120.436 215.244 119.628C219.287 118.833 223.568 115.283 224.673 111.199C224.713 111.05 224.75 110.905 224.782 110.756L236.683 117.893C239.771 120.084 241.268 123.729 240.924 127.287C240.758 129.039 240.139 130.766 239.051 132.294L221.881 157.038C219.477 160.496 215.665 162.629 211.542 162.837C211.44 162.841 211.331 162.845 211.23 162.849L201.757 162.87Z" fill="#F67952"/>
<path d="M197.803 85.7226C197.229 85.4368 196.666 85.1221 196.132 84.77L195.877 84.4552C194.275 81.7547 194.469 78.0518 196.359 75.5501C198.24 73.0484 201.688 71.9011 204.65 72.804C206.232 73.2886 207.641 74.2786 209.235 74.7176C211.991 75.4714 215.066 74.5146 217.692 75.662C219.42 76.4116 220.675 77.9607 221.852 79.4559C222.633 80.4376 223.431 81.4523 223.811 82.6618C224.244 84.0245 224.102 85.5155 223.722 86.8948C223.338 88.2699 222.718 89.5622 222.184 90.8834C220.562 94.8555 221.043 99.13 218.793 101.048C218.312 99.3122 217.907 97.3075 217.62 94.9839L217.616 94.9798C218.271 94.6236 218.842 94.1307 219.263 93.5094C220.133 92.2213 220.181 90.316 219.149 89.1604C218.437 88.3693 217.288 88.0255 216.272 88.2989C215.778 88.4314 215.333 88.7089 214.977 89.0776C214.702 88.0628 214.435 87.0439 214.164 86.0291L213.868 85.9256C209.267 87.2965 204.278 88.0255 199.721 86.5096C199.058 86.2818 198.422 86.0208 197.803 85.7226Z" fill="black"/>
<path d="M213.642 170.789L214.152 172.226L204.124 199.36L202.744 199.264L191.879 198.515L191.041 198.457L201.753 162.874L211.222 162.857C211.323 162.853 211.432 162.849 211.533 162.845V162.849L213.634 170.246V170.789H213.642Z" fill="#F67952"/>
<path d="M198.944 93.0164C198.977 93.2359 199.017 93.4595 199.057 93.6791C198.977 93.5382 198.928 93.3726 198.928 93.1945C198.928 93.1365 198.932 93.0743 198.944 93.0164Z" fill="black"/>
<path d="M192.158 303.769V313.249H157.333L159.02 310.47C160.157 308.594 162.112 307.405 164.265 307.285L167.777 307.078C169.922 306.954 171.949 306.051 173.503 304.535L175.458 302.63C175.741 302.352 176.121 302.199 176.514 302.199H176.894C177.42 302.199 177.91 302.476 178.189 302.928L179.618 305.251C180.148 306.113 181.07 306.631 182.066 306.631H185.226C186.149 306.631 187.019 306.179 187.565 305.409L189.382 302.845C189.556 302.601 189.795 302.414 190.066 302.311C190.24 302.236 190.43 302.199 190.625 302.199C191.474 302.199 192.158 302.903 192.158 303.769Z" fill="black"/>
<path d="M192.984 299.577H174.75C174.62 299.577 174.499 299.519 174.418 299.416C174.337 299.312 174.304 299.18 174.329 299.051L188.241 227.728C189.083 223.42 191.126 219.51 194.145 216.42C194.44 216.114 194.756 215.807 195.088 215.501L196.164 214.519C203.744 207.602 215.665 196.618 220.824 191.859C220.727 191.809 220.65 191.726 220.61 191.615L213.237 170.938C213.18 170.785 213.217 170.611 213.322 170.491C213.431 170.371 213.593 170.321 213.747 170.362C218.036 171.535 226.121 172.707 233.349 172.707C233.418 172.707 233.482 172.707 233.547 172.707C239.649 172.694 246.314 171.357 250.834 170.238C251.033 170.189 251.235 170.288 251.324 170.478L251.36 170.553C253.351 174.848 259.191 189.668 250.636 200.027C249.462 201.443 248.046 202.731 246.436 203.85L211.914 230.71L193.396 299.254C193.344 299.445 193.174 299.577 192.984 299.577ZM175.272 298.699H192.656L211.125 230.337C211.149 230.246 211.206 230.163 211.278 230.105L245.934 203.146C247.5 202.056 248.855 200.822 249.98 199.468C258.053 189.701 252.732 175.652 250.701 171.183C246.148 172.293 239.589 173.581 233.555 173.593C233.486 173.593 233.422 173.593 233.353 173.593C226.474 173.593 218.817 172.537 214.322 171.427L214.556 172.081L221.419 191.316C227.586 185.63 232.167 181.392 232.167 181.392C232.341 181.231 232.612 181.243 232.774 181.425C232.932 181.604 232.92 181.881 232.742 182.047C232.742 182.047 228.052 186.383 221.771 192.174C216.834 196.73 204.508 208.091 196.735 215.182L195.658 216.159C195.343 216.449 195.035 216.748 194.752 217.042C191.851 220.011 189.892 223.768 189.083 227.902L175.272 298.699Z" fill="black"/>
<path d="M266.313 293.592C266.147 293.592 265.993 293.497 265.92 293.331L231.576 213.952C231.479 213.728 231.58 213.471 231.795 213.372C232.013 213.273 232.264 213.376 232.361 213.596L232.616 214.184L266.709 292.975C266.806 293.195 266.709 293.456 266.491 293.555C266.43 293.58 266.369 293.592 266.313 293.592Z" fill="black"/>
<path d="M271.674 253.905C271.504 253.905 271.343 253.801 271.274 253.627L250.579 200.197C250.49 199.973 250.6 199.716 250.822 199.625C251.041 199.538 251.292 199.646 251.381 199.873L272.075 253.304C272.164 253.528 272.055 253.784 271.832 253.876C271.78 253.896 271.727 253.905 271.674 253.905Z" fill="black"/>
<path d="M213.642 170.681C213.456 170.681 213.286 170.557 213.229 170.367L211.129 162.969C211.064 162.737 211.193 162.493 211.42 162.427C211.651 162.356 211.885 162.493 211.95 162.725L214.05 170.122C214.115 170.354 213.986 170.599 213.759 170.665C213.723 170.673 213.682 170.681 213.642 170.681Z" fill="black"/>
<path d="M250.94 171.108C250.745 171.108 250.567 170.971 250.523 170.768L240.552 127.394C240.499 127.158 240.641 126.922 240.872 126.864C241.102 126.81 241.333 126.955 241.39 127.191L251.36 170.565C251.413 170.801 251.271 171.037 251.041 171.095C251.004 171.104 250.972 171.108 250.94 171.108Z" fill="black"/>
<path d="M173.673 163.363C173.56 163.363 173.451 163.317 173.37 163.234C173.289 163.151 173.244 163.04 173.244 162.924V147.975C173.244 147.735 173.43 147.541 173.661 147.536L207.944 146.662L220.849 127.481C220.982 127.283 221.249 127.229 221.444 127.37C221.638 127.506 221.686 127.78 221.553 127.978L208.523 147.346C208.446 147.462 208.316 147.532 208.179 147.536L174.094 148.402V162.48L211.27 162.41L211.513 162.402C215.536 162.199 219.186 160.153 221.525 156.785L238.694 132.042C239.706 130.621 240.329 128.964 240.491 127.245C240.831 123.716 239.277 120.27 236.432 118.253L224.56 111.133C224.353 111.013 224.288 110.744 224.406 110.533C224.527 110.321 224.786 110.255 224.993 110.375L236.894 117.512C240.022 119.728 241.717 123.484 241.345 127.328C241.167 129.204 240.491 131.01 239.39 132.551L222.225 157.291C219.732 160.877 215.843 163.06 211.558 163.276L211.242 163.288L173.673 163.363Z" fill="black"/>
<path d="M192.158 313.689H157.333C157.175 313.689 157.033 313.602 156.957 313.465C156.88 313.324 156.884 313.154 156.969 313.022L158.656 310.243C159.866 308.246 161.954 306.979 164.24 306.85L167.753 306.643C169.788 306.527 171.727 305.666 173.208 304.22L175.162 302.315C175.518 301.967 176.012 301.764 176.514 301.764H176.894C177.574 301.764 178.193 302.112 178.553 302.696L179.982 305.02C180.435 305.753 181.216 306.192 182.066 306.192H185.226C186.011 306.192 186.756 305.802 187.217 305.152L189.034 302.588C189.261 302.274 189.564 302.038 189.912 301.901C190.123 301.81 190.37 301.764 190.62 301.764C191.705 301.764 192.583 302.663 192.583 303.769V313.25C192.587 313.494 192.397 313.689 192.158 313.689ZM158.106 312.811H191.729V303.769C191.729 303.148 191.231 302.642 190.624 302.642C190.483 302.642 190.349 302.667 190.232 302.717C190.026 302.795 189.86 302.928 189.73 303.106L187.913 305.67C187.29 306.548 186.286 307.07 185.23 307.07H182.07C180.921 307.07 179.873 306.478 179.257 305.488L177.829 303.164C177.627 302.837 177.279 302.642 176.898 302.642H176.518C176.235 302.642 175.959 302.754 175.757 302.949L173.803 304.854C172.176 306.44 170.043 307.389 167.806 307.517L164.293 307.724C162.282 307.84 160.449 308.954 159.389 310.707L158.106 312.811Z" fill="black"/>
<path d="M192.158 318.063H157.333C157.094 318.063 156.904 317.868 156.904 317.624V313.25C156.904 313.005 157.094 312.811 157.333 312.811C157.572 312.811 157.762 313.005 157.762 313.25V317.185H191.729V313.25C191.729 313.005 191.919 312.811 192.158 312.811C192.397 312.811 192.587 313.005 192.587 313.25V317.624C192.587 317.864 192.397 318.063 192.158 318.063Z" fill="black"/>
<path d="M176.894 302.642C176.87 302.642 176.846 302.638 176.817 302.634C176.583 302.593 176.429 302.365 176.469 302.125L176.907 299.586C176.947 299.345 177.17 299.188 177.404 299.229C177.639 299.271 177.793 299.499 177.752 299.739L177.315 302.278C177.283 302.489 177.101 302.642 176.894 302.642Z" fill="black"/>
<path d="M190.018 302.642C189.989 302.642 189.961 302.638 189.937 302.634C189.706 302.588 189.552 302.356 189.597 302.12L190.082 299.581C190.127 299.341 190.353 299.188 190.584 299.233C190.815 299.279 190.968 299.511 190.924 299.747L190.438 302.286C190.398 302.493 190.22 302.642 190.018 302.642Z" fill="black"/>
<path d="M200.628 147.731C200.442 147.731 200.272 147.607 200.215 147.421L195.634 131.831C193.793 125.564 196.512 118.701 202.097 115.516L203.885 114.497C204.075 114.389 204.314 114.443 204.444 114.625C204.492 114.691 204.537 114.766 204.581 114.832C206.884 118.171 211.238 119.976 215.163 119.202C219.25 118.398 223.244 114.836 224.256 111.088L224.268 111.046C224.301 110.922 224.333 110.798 224.357 110.674C224.406 110.438 224.632 110.284 224.863 110.334C225.094 110.384 225.243 110.616 225.195 110.852C225.166 110.993 225.13 111.129 225.094 111.27L225.081 111.316C223.989 115.362 219.704 119.202 215.321 120.063C211.133 120.883 206.487 118.995 203.962 115.453L202.513 116.278C197.277 119.264 194.728 125.701 196.456 131.574L201.036 147.164C201.105 147.396 200.976 147.64 200.749 147.711C200.713 147.727 200.668 147.731 200.628 147.731Z" fill="black"/>
<path d="M207.321 147.561C207.127 147.561 206.949 147.425 206.904 147.222L203.711 133.177C203.659 132.941 203.8 132.704 204.031 132.651C204.262 132.593 204.492 132.742 204.545 132.978L207.742 147.023C207.794 147.259 207.653 147.495 207.422 147.549C207.386 147.557 207.349 147.561 207.321 147.561Z" fill="black"/>
<path d="M204.124 199.799C204.116 199.799 204.104 199.799 204.096 199.799L191.017 198.892C190.888 198.884 190.766 198.813 190.693 198.701C190.621 198.59 190.6 198.453 190.637 198.325L201.348 162.742L201.769 162.845L202.174 162.986L202.166 163.011L191.616 198.051L203.837 198.896L213.808 171.916C213.893 171.688 214.14 171.576 214.362 171.663C214.585 171.75 214.694 172.003 214.609 172.231L214.552 172.384L204.525 199.513C204.464 199.687 204.302 199.799 204.124 199.799Z" fill="black"/>
<path d="M204.124 115.569C203.991 115.569 203.857 115.507 203.776 115.387C203.639 115.188 203.683 114.915 203.873 114.774C203.91 114.745 203.954 114.72 203.995 114.691C205.84 113.444 209.7 110.831 209.7 107.12C209.7 106.875 209.891 106.681 210.129 106.681C210.368 106.681 210.558 106.875 210.558 107.12C210.558 111.307 206.281 114.198 204.456 115.432C204.42 115.457 204.395 115.474 204.371 115.49C204.298 115.54 204.213 115.569 204.124 115.569Z" fill="black"/>
<path d="M226.203 112.881C226.101 112.881 226 112.844 225.919 112.774C225.782 112.653 225.604 112.513 225.389 112.347C225.114 112.132 224.774 111.866 224.394 111.539C221.622 109.158 219.651 105.761 218.372 101.16C217.858 99.2999 217.458 97.2414 217.183 95.0338C217.154 94.7935 217.32 94.574 217.555 94.545C217.79 94.516 218.004 94.6859 218.036 94.9261C218.304 97.0882 218.696 99.1094 219.198 100.924C220.428 105.351 222.306 108.603 224.944 110.868C225.308 111.183 225.624 111.432 225.907 111.651C226.142 111.833 226.336 111.987 226.482 112.119C226.66 112.281 226.676 112.558 226.522 112.74C226.441 112.832 226.32 112.881 226.203 112.881Z" fill="black"/>
<path d="M209.672 107.319C208.106 107.319 206.495 106.846 205.128 105.989C202.396 104.278 200.875 101.441 200.082 99.3619C199.329 97.4028 198.912 95.3401 198.633 93.7579C198.588 93.5177 198.746 93.2899 198.977 93.2485C199.212 93.2029 199.434 93.3645 199.475 93.6005C199.766 95.2366 200.158 97.1626 200.879 99.043C201.627 100.998 203.048 103.657 205.577 105.243C206.807 106.018 208.264 106.445 209.672 106.445C210.821 106.445 211.91 106.159 212.816 105.612C213.023 105.492 213.286 105.562 213.403 105.769C213.52 105.981 213.456 106.25 213.249 106.37C212.213 106.991 210.975 107.319 209.672 107.319Z" fill="black"/>
<path d="M198.944 93.4557C198.738 93.4557 198.556 93.3066 198.524 93.0912C198.418 92.4741 198.321 91.8528 198.228 91.2357L197.318 85.3666C197.281 85.1264 197.439 84.9027 197.674 84.8654C197.904 84.824 198.127 84.9897 198.163 85.2299L199.074 91.099C199.167 91.712 199.268 92.3291 199.369 92.9421C199.41 93.1824 199.252 93.4102 199.017 93.4474C198.993 93.4557 198.969 93.4557 198.944 93.4557Z" fill="black"/>
<path d="M215.345 96.1067C215.131 96.1067 214.945 95.941 214.92 95.7132C214.896 95.473 215.066 95.2576 215.301 95.2286C216.062 95.1416 216.794 94.9179 217.409 94.5783C218.036 94.2387 218.538 93.7913 218.906 93.2446C219.708 92.06 219.675 90.3909 218.83 89.4382C218.227 88.7672 217.239 88.4732 216.381 88.7051C215.973 88.8128 215.592 89.0447 215.281 89.3678C214.941 89.7157 214.71 90.1382 214.609 90.5855C214.556 90.8216 214.33 90.9707 214.095 90.9169C213.864 90.863 213.719 90.6269 213.771 90.3908C213.909 89.7778 214.22 89.2104 214.67 88.7465C215.09 88.3116 215.604 88.0051 216.159 87.856C217.316 87.5412 218.643 87.9388 219.461 88.8459C220.582 90.1092 220.646 92.2133 219.611 93.7416C219.165 94.4044 218.558 94.9469 217.81 95.3487C217.102 95.738 216.264 95.999 215.39 96.0942C215.374 96.1067 215.358 96.1067 215.345 96.1067Z" fill="black"/>
<path d="M214.989 89.5707C214.791 89.5707 214.617 89.434 214.573 89.231C214.569 89.2145 214.556 89.1606 214.552 89.1523C214.419 88.6636 214.281 88.1417 214.14 87.6198C214.01 87.127 213.877 86.6341 213.743 86.1412C213.678 85.9092 213.812 85.6649 214.042 85.6027C214.269 85.5406 214.508 85.6731 214.569 85.9092C214.702 86.4021 214.836 86.8991 214.965 87.392C215.103 87.9139 215.244 88.4358 215.382 88.9535C215.394 89.0032 215.402 89.0239 215.406 89.0446C215.455 89.2807 215.305 89.5168 215.074 89.5665C215.046 89.5707 215.018 89.5707 214.989 89.5707Z" fill="black"/>
<path d="M205.213 87.777C203.177 87.777 201.308 87.4912 199.58 86.9155C198.936 86.7043 198.277 86.4351 197.621 86.1161C197.002 85.8096 196.423 85.4783 195.901 85.1345C195.703 85.002 195.642 84.7327 195.772 84.5298C195.901 84.3268 196.164 84.2647 196.363 84.3972C196.856 84.7203 197.407 85.0351 197.993 85.325C198.609 85.6232 199.236 85.8759 199.847 86.0789C203.638 87.338 208.183 87.1475 213.743 85.4907C213.974 85.4203 214.208 85.557 214.273 85.7889C214.338 86.0209 214.208 86.2652 213.982 86.3315C210.748 87.2966 207.843 87.777 205.213 87.777Z" fill="black"/>
<path d="M218.789 101.474C218.668 101.474 218.542 101.421 218.457 101.317C218.307 101.131 218.332 100.853 218.514 100.7C219.736 99.6603 220.092 97.7716 220.505 95.5888C220.788 94.0729 221.112 92.3581 221.788 90.7097C221.925 90.3659 222.071 90.0221 222.217 89.6825C222.617 88.7381 223.034 87.7606 223.309 86.7707C223.73 85.2548 223.762 83.9169 223.402 82.7945C223.042 81.6513 222.265 80.6738 221.516 79.7295C220.428 78.3502 219.194 76.7887 217.522 76.0639C216.155 75.4675 214.657 75.4716 213.071 75.4799C211.764 75.484 210.417 75.4923 209.122 75.1361C208.256 74.8959 207.442 74.5024 206.661 74.1255C205.937 73.7734 205.253 73.4421 204.525 73.2184C201.753 72.3776 198.463 73.4669 196.694 75.8154C194.926 78.1597 194.736 81.6969 196.241 84.2276C196.363 84.4347 196.298 84.7039 196.096 84.8323C195.893 84.9566 195.63 84.8944 195.505 84.6873C193.797 81.8129 194.003 77.9443 196.011 75.2852C198.018 72.622 201.615 71.4291 204.763 72.3859C205.557 72.6261 206.301 72.9906 207.021 73.3385C207.806 73.7196 208.543 74.0758 209.336 74.2953C210.518 74.6184 211.809 74.6101 213.059 74.6059C214.661 74.5977 216.325 74.5894 217.85 75.2562C219.72 76.068 221.079 77.7911 222.176 79.1745C222.937 80.1354 223.799 81.2206 224.212 82.5211C224.624 83.8092 224.592 85.321 224.127 87.0068C223.831 88.0547 223.406 89.057 222.993 90.0304C222.848 90.37 222.706 90.7055 222.569 91.0451C221.929 92.6108 221.63 94.2096 221.338 95.7545C220.897 98.1071 220.513 100.137 219.056 101.375C218.983 101.445 218.886 101.474 218.789 101.474Z" fill="black"/>
<path d="M157.102 153.7C156.677 153.7 156.172 153.65 155.73 153.472C155.2 153.252 154.86 152.871 154.747 152.37C154.63 151.844 154.739 151.041 155.925 150.179C160.295 146.973 166.373 146.65 171.047 149.371C171.221 149.471 171.395 149.578 171.569 149.686C172.241 150.096 172.872 150.477 173.576 150.618C173.811 150.664 173.96 150.896 173.916 151.132C173.871 151.372 173.645 151.525 173.414 151.48C172.568 151.31 171.84 150.867 171.136 150.44C170.966 150.336 170.796 150.233 170.626 150.138C166.304 147.623 160.465 147.934 156.422 150.9C156.062 151.165 155.471 151.678 155.585 152.18C155.617 152.316 155.698 152.519 156.05 152.664C156.382 152.797 156.859 152.855 157.402 152.822L157.717 152.801C159.769 152.677 161.825 152.548 163.876 152.42C164.111 152.407 164.317 152.59 164.33 152.83C164.346 153.07 164.164 153.281 163.929 153.294C161.877 153.422 159.822 153.551 157.77 153.675L157.454 153.696C157.341 153.696 157.224 153.7 157.102 153.7Z" fill="black"/>
<path d="M164.164 157.605C164.16 157.605 164.151 157.605 164.147 157.605C161.8 157.514 159.453 157.415 157.11 157.32L156.155 157.278C155.593 157.258 154.096 157.204 153.565 156.081C153.189 155.298 153.513 154.387 154.003 153.836C154.496 153.285 155.168 152.971 155.706 152.714C155.921 152.61 156.176 152.71 156.277 152.929C156.378 153.149 156.281 153.41 156.066 153.513C155.573 153.745 155.01 154.01 154.638 154.429C154.355 154.748 154.14 155.282 154.338 155.696C154.614 156.276 155.528 156.375 156.192 156.4L157.151 156.442C159.498 156.537 161.841 156.636 164.188 156.727C164.423 156.736 164.609 156.939 164.601 157.183C164.58 157.419 164.39 157.605 164.164 157.605Z" fill="black"/>
<path d="M168.012 161.768C165.062 161.768 162.116 161.428 159.211 160.757C158.345 160.554 157.365 160.277 156.706 159.519C156.297 159.051 156.095 158.372 156.18 157.742C156.248 157.228 156.503 156.81 156.892 156.557C157.09 156.429 157.357 156.491 157.483 156.694C157.608 156.897 157.547 157.17 157.349 157.299C157.127 157.44 157.054 157.684 157.029 157.862C156.977 158.239 157.102 158.657 157.345 158.935C157.835 159.502 158.66 159.73 159.397 159.9C163.994 160.964 168.688 161.172 173.354 160.513C173.588 160.476 173.803 160.646 173.835 160.886C173.867 161.126 173.702 161.346 173.471 161.379C171.658 161.64 169.833 161.768 168.012 161.768Z" fill="black"/>
<path d="M265.819 303.686H197.904C197.666 303.686 197.475 303.491 197.475 303.247C197.475 303.003 197.666 302.808 197.904 302.808H265.815C274.009 302.808 280.674 295.986 280.674 287.599V82.9643C280.674 74.5811 274.009 67.7594 265.815 67.7594H223.779C223.54 67.7594 223.35 67.5647 223.35 67.3203C223.35 67.076 223.54 66.8813 223.779 66.8813H265.815C274.483 66.8813 281.532 74.0965 281.532 82.9643V287.595C281.536 296.467 274.487 303.686 265.819 303.686Z" fill="black"/>
<path d="M161.023 139.729C160.785 139.729 160.594 139.534 160.594 139.29V82.9643C160.594 74.0965 167.644 66.8813 176.308 66.8813H194.186C194.424 66.8813 194.614 67.076 194.614 67.3203C194.614 67.5647 194.424 67.7594 194.186 67.7594H176.308C168.117 67.7594 161.452 74.5811 161.452 82.9643V139.29C161.452 139.534 161.258 139.729 161.023 139.729Z" fill="black"/>
<path d="M170.622 302.568C170.569 302.568 170.517 302.56 170.464 302.535C164.471 300.074 160.599 294.209 160.599 287.599V173.353C160.599 173.109 160.789 172.914 161.027 172.914C161.266 172.914 161.456 173.109 161.456 173.353V287.595C161.456 293.849 165.119 299.391 170.784 301.719C171.002 301.81 171.112 302.062 171.023 302.29C170.95 302.46 170.792 302.568 170.622 302.568Z" fill="black"/>
<path d="M265.819 294.027H199.046C198.807 294.027 198.617 293.832 198.617 293.588C198.617 293.344 198.807 293.149 199.046 293.149H265.819C265.981 293.149 266.143 293.141 266.3 293.124C269.076 292.876 271.245 290.448 271.245 287.595V82.9642C271.245 79.9033 268.813 77.414 265.819 77.414H224.074C223.835 77.414 223.645 77.2194 223.645 76.975C223.645 76.7306 223.835 76.5359 224.074 76.5359H265.815C269.279 76.5359 272.099 79.4187 272.099 82.9642V287.595C272.099 290.896 269.586 293.708 266.377 293.998C266.199 294.019 266.009 294.027 265.819 294.027Z" fill="black"/>
<path d="M170.456 139.729C170.217 139.729 170.027 139.534 170.027 139.29V82.9642C170.027 79.4187 172.844 76.5359 176.308 76.5359H192.688C192.927 76.5359 193.117 76.7306 193.117 76.975C193.117 77.2194 192.927 77.414 192.688 77.414H176.308C173.317 77.414 170.885 79.9033 170.885 82.9642V139.29C170.885 139.534 170.695 139.729 170.456 139.729Z" fill="black"/>
<path d="M173.803 293.447C173.742 293.447 173.677 293.435 173.621 293.406C171.439 292.345 170.031 290.067 170.031 287.595V174.119C170.031 173.875 170.221 173.68 170.46 173.68C170.699 173.68 170.889 173.875 170.889 174.119V287.599C170.889 289.732 172.107 291.699 173.989 292.615C174.203 292.718 174.292 292.979 174.191 293.199C174.118 293.356 173.965 293.447 173.803 293.447Z" fill="black"/>
<path d="M194.55 211.661C194.396 211.661 194.238 211.645 194.084 211.607C193.344 211.429 192.777 210.879 192.563 210.137C192.146 208.721 192.393 207.184 193.21 206.124C193.53 205.705 193.927 205.341 194.311 204.989C195.023 204.33 195.695 203.709 195.739 202.885C195.752 202.644 195.946 202.441 196.193 202.47C196.427 202.483 196.609 202.69 196.597 202.934C196.533 204.119 195.695 204.893 194.886 205.639C194.513 205.983 194.161 206.306 193.886 206.666C193.239 207.503 193.048 208.737 193.384 209.884C193.514 210.323 193.846 210.647 194.279 210.75C194.732 210.854 195.189 210.7 195.489 210.332L199.859 204.985C201.251 203.282 202.586 201.452 202.311 199.476C202.279 199.236 202.441 199.012 202.675 198.979C202.91 198.942 203.129 199.111 203.161 199.352C203.485 201.688 201.967 203.775 200.519 205.548L196.148 210.895C195.743 211.392 195.161 211.661 194.55 211.661Z" fill="black"/>
<path d="M193.991 217.178C193.639 217.178 193.255 216.979 192.887 216.598C191.758 215.418 190.892 213.856 190.374 212.088C189.929 210.572 189.726 208.899 189.755 206.981C189.803 204.086 190.398 201.145 191.47 198.473C191.559 198.25 191.814 198.146 192.029 198.233C192.247 198.324 192.352 198.581 192.263 198.805C191.228 201.373 190.657 204.202 190.608 206.989C190.58 208.816 190.77 210.398 191.191 211.831C191.669 213.467 192.462 214.9 193.494 215.977C193.732 216.226 193.951 216.325 194.02 216.284C194.068 216.242 194.137 216.126 194.097 215.683C193.959 214.296 193.821 212.904 193.688 211.508C193.664 211.268 193.838 211.052 194.072 211.028C194.307 211.007 194.517 211.181 194.542 211.421C194.675 212.817 194.813 214.209 194.95 215.6C194.991 216.039 194.983 216.582 194.602 216.93C194.55 216.975 194.501 217.013 194.449 217.046C194.311 217.137 194.157 217.178 193.991 217.178Z" fill="black"/>
<path d="M195.226 215.729C194.991 215.729 194.764 215.683 194.554 215.596C194.335 215.501 194.234 215.244 194.323 215.02C194.416 214.797 194.667 214.693 194.886 214.784C195.254 214.942 195.744 214.817 196.104 214.474C196.14 214.441 196.168 214.412 196.193 214.378C196.52 213.993 196.711 213.438 196.771 212.713C196.779 212.626 196.783 212.539 196.788 212.461C196.824 211.529 196.654 210.597 196.294 209.752C196.217 209.586 196.241 209.383 196.375 209.251C196.545 209.081 196.812 209.077 196.978 209.247L196.982 209.251C197.018 209.288 197.051 209.334 197.071 209.383C197.488 210.348 197.686 211.421 197.641 212.486C197.637 212.593 197.633 212.697 197.621 212.792C197.548 213.699 197.285 214.424 196.844 214.942C196.804 214.996 196.747 215.054 196.682 215.116C196.274 215.513 195.739 215.729 195.226 215.729Z" fill="black"/>
<path d="M197.702 212.995C197.516 212.995 197.33 212.954 197.152 212.863C196.941 212.755 196.852 212.49 196.961 212.274C197.067 212.059 197.326 211.972 197.536 212.08C197.759 212.196 198.095 212.038 198.269 211.823C198.495 211.529 198.58 211.106 198.637 210.692C198.786 209.508 198.73 208.319 198.463 207.163C198.41 206.927 198.552 206.691 198.782 206.637C199.013 206.583 199.244 206.728 199.296 206.965C199.584 208.224 199.648 209.516 199.482 210.808C199.414 211.322 199.296 211.906 198.936 212.37C198.657 212.722 198.188 212.995 197.702 212.995Z" fill="black"/>
<path d="M187.755 284.004C187.723 284.004 187.691 284 187.658 283.991C187.428 283.937 187.282 283.701 187.339 283.465L199.175 231.203C199.867 228.134 201.478 225.433 203.833 223.395L236.659 194.99C236.841 194.833 237.108 194.858 237.262 195.044C237.416 195.23 237.391 195.508 237.209 195.661L204.383 224.066C202.174 225.98 200.66 228.519 200.009 231.402L188.172 283.664C188.128 283.867 187.95 284.004 187.755 284.004Z" fill="black"/>
<path d="M154.589 89.322H123.151C117.785 89.322 113.419 84.8529 113.419 79.3608V40.0955C113.419 34.6034 117.785 30.1343 123.151 30.1343H200.134C205.5 30.1343 209.866 34.6034 209.866 40.0955V61.3021C209.866 61.5464 209.676 61.7411 209.437 61.7411C209.199 61.7411 209.008 61.5464 209.008 61.3021V40.0955C209.008 35.088 205.027 31.0124 200.134 31.0124H123.151C118.259 31.0124 114.277 35.088 114.277 40.0955V79.3608C114.277 84.3683 118.259 88.4439 123.151 88.4439H154.589C154.828 88.4439 155.018 88.6386 155.018 88.883C155.018 89.1273 154.824 89.322 154.589 89.322Z" fill="black"/>
<path d="M143.971 74.03C135.615 74.03 128.816 67.0716 128.816 58.5186C128.816 49.9656 135.615 43.0072 143.971 43.0072C147.216 43.0072 150.312 44.0427 152.922 46.0018C153.112 46.1468 153.153 46.4201 153.015 46.6148C152.873 46.8095 152.606 46.8509 152.416 46.7101C149.956 44.8628 147.034 43.8853 143.971 43.8853C136.088 43.8853 129.674 50.4502 129.674 58.5186C129.674 66.587 136.088 73.1519 143.971 73.1519C151.854 73.1519 158.268 66.587 158.268 58.5186C158.268 55.785 157.527 53.1217 156.123 50.8105C155.997 50.6034 156.058 50.3342 156.261 50.2058C156.463 50.0774 156.726 50.1396 156.851 50.3466C158.336 52.7945 159.121 55.6234 159.121 58.5186C159.126 67.0716 152.327 74.03 143.971 74.03Z" fill="#F67952"/>
<path d="M141.365 58.5185C141.365 57.0439 142.534 55.8511 143.971 55.8511C145.412 55.8511 146.577 57.0481 146.577 58.5185C146.577 59.993 145.408 61.1858 143.971 61.1858C142.53 61.19 141.365 59.993 141.365 58.5185Z" fill="#F67952"/>
<path d="M143.971 61.6292C142.296 61.6292 140.936 60.2333 140.936 58.5227C140.936 56.808 142.3 55.4163 143.971 55.4163C145.646 55.4163 147.006 56.8121 147.006 58.5227C147.01 60.2333 145.646 61.6292 143.971 61.6292ZM143.971 56.2903C142.769 56.2903 141.794 57.2926 141.794 58.5186C141.794 59.7487 142.773 60.7511 143.971 60.7511C145.173 60.7511 146.152 59.7487 146.152 58.5186C146.152 57.2926 145.173 56.2903 143.971 56.2903Z" fill="#F67952"/>
<path d="M143.971 56.2903C143.732 56.2903 143.542 56.0957 143.542 55.8513V49.3402C143.542 49.0959 143.732 48.9012 143.971 48.9012C144.21 48.9012 144.4 49.0959 144.4 49.3402V55.8513C144.4 56.0957 144.21 56.2903 143.971 56.2903Z" fill="black"/>
<path d="M148.928 65.5472C148.438 65.5472 147.949 65.3567 147.572 64.9756L144.177 61.5006C144.011 61.3308 144.011 61.0532 144.177 60.8793C144.343 60.7095 144.614 60.7095 144.784 60.8793L148.179 64.3543C148.58 64.7644 149.276 64.7644 149.677 64.3543C150.089 63.9319 150.089 63.2443 149.677 62.8218L146.233 59.2971C146.067 59.1273 146.067 58.8498 146.233 58.6758C146.399 58.5018 146.67 58.506 146.84 58.6758L150.284 62.2006C151.032 62.9668 151.032 64.2094 150.284 64.9756C149.911 65.3567 149.422 65.5472 148.928 65.5472Z" fill="black"/>
<path d="M196.132 46.6687H173.487C173.248 46.6687 173.058 46.474 173.058 46.2296C173.058 45.9853 173.248 45.7906 173.487 45.7906H196.132C196.371 45.7906 196.561 45.9853 196.561 46.2296C196.561 46.4699 196.371 46.6687 196.132 46.6687Z" fill="black"/>
<path d="M196.132 51.059H173.487C173.248 51.059 173.058 50.8643 173.058 50.6199C173.058 50.3756 173.248 50.1809 173.487 50.1809H196.132C196.371 50.1809 196.561 50.3756 196.561 50.6199C196.561 50.8643 196.371 51.059 196.132 51.059Z" fill="black"/>
<path d="M196.132 55.4495H173.487C173.248 55.4495 173.058 55.2548 173.058 55.0105C173.058 54.7661 173.248 54.5714 173.487 54.5714H196.132C196.371 54.5714 196.561 54.7661 196.561 55.0105C196.561 55.2507 196.371 55.4495 196.132 55.4495Z" fill="black"/>
<path d="M17.3965 145.809C17.3155 145.809 17.2346 145.788 17.1658 145.739C15.6038 144.707 14.0985 143.523 12.6943 142.226C12.5203 142.065 12.5041 141.787 12.6619 141.605C12.8197 141.427 13.0908 141.41 13.2689 141.572C14.6407 142.839 16.1096 143.991 17.6312 144.997C17.8294 145.13 17.8861 145.399 17.7566 145.606C17.6757 145.739 17.5381 145.809 17.3965 145.809ZM9.69168 138.88C9.57028 138.88 9.44888 138.826 9.3639 138.727C8.15396 137.277 7.03304 135.715 6.02948 134.079C5.90403 133.872 5.96473 133.603 6.16301 133.475C6.3613 133.346 6.62838 133.408 6.75382 133.611C7.73311 135.21 8.82974 136.738 10.0154 138.155C10.1692 138.341 10.1489 138.615 9.96685 138.772C9.88996 138.847 9.78879 138.88 9.69168 138.88ZM4.13565 130.049C3.97379 130.049 3.82002 129.954 3.74718 129.797C2.94999 128.057 2.27016 126.247 1.73196 124.412C1.66316 124.18 1.79266 123.936 2.01927 123.865C2.24588 123.795 2.48463 123.928 2.55342 124.159C3.08353 125.953 3.74718 127.721 4.52413 129.424C4.6253 129.643 4.53222 129.904 4.31775 130.008C4.2611 130.033 4.19635 130.049 4.13565 130.049ZM1.06022 120.026C0.853839 120.026 0.67174 119.873 0.639367 119.661C0.32373 117.752 0.149725 115.822 0.121399 113.917C0.117352 113.676 0.307544 113.473 0.546295 113.473C0.789093 113.477 0.979284 113.664 0.979284 113.908C1.00356 115.764 1.17352 117.653 1.48511 119.516C1.52558 119.757 1.36776 119.984 1.13306 120.022C1.10878 120.026 1.0845 120.026 1.06022 120.026ZM22.0744 110.425C20.31 110.425 18.4729 109.903 16.6155 108.88C16.405 108.764 16.3281 108.499 16.4415 108.284C16.5548 108.072 16.8137 107.989 17.0242 108.105C18.7561 109.062 20.4557 109.547 22.0703 109.547H22.1391C22.3779 109.547 22.568 109.742 22.568 109.986C22.568 110.23 22.3779 110.425 22.1391 110.425H22.0744ZM0.805279 109.53C0.789093 109.53 0.768859 109.53 0.752673 109.526C0.517968 109.497 0.352057 109.278 0.380383 109.037C0.619134 107.062 1.01166 105.161 1.55391 103.384C1.6227 103.152 1.8655 103.023 2.09211 103.094C2.31872 103.164 2.44416 103.413 2.37537 103.645C1.84931 105.372 1.46488 107.219 1.23422 109.141C1.20185 109.369 1.01975 109.53 0.805279 109.53ZM26.5742 109.017C26.4366 109.017 26.299 108.95 26.2181 108.822C26.0886 108.619 26.1372 108.35 26.3355 108.213C27.7558 107.24 28.9455 105.765 29.6861 104.055C29.7832 103.831 30.0381 103.736 30.2526 103.831C30.4711 103.93 30.5682 104.191 30.4711 104.411C29.6618 106.266 28.3628 107.878 26.813 108.942C26.7401 108.992 26.6551 109.017 26.5742 109.017ZM12.9856 106.13C12.8845 106.13 12.7833 106.092 12.7024 106.018C12.5203 105.856 12.3422 105.691 12.1682 105.525C10.9785 104.394 9.84949 103.156 8.80546 101.847C8.65574 101.661 8.68406 101.383 8.86616 101.23C9.05231 101.077 9.31939 101.106 9.46911 101.292C10.4848 102.572 11.5895 103.777 12.7509 104.883C12.9209 105.045 13.0908 105.206 13.2648 105.364C13.4429 105.525 13.4591 105.803 13.3013 105.985C13.2203 106.08 13.103 106.13 12.9856 106.13ZM30.9446 99.9749C30.718 99.9749 30.5318 99.7968 30.5156 99.5607C30.4913 99.1755 30.4468 98.7945 30.374 98.4258C30.1069 97.0383 29.5404 95.7212 28.6946 94.5035C28.5571 94.3046 28.6016 94.0313 28.7958 93.8905C28.99 93.7496 29.2571 93.7952 29.3947 93.994C30.3133 95.3111 30.9243 96.7442 31.2157 98.256C31.2926 98.6619 31.3452 99.0844 31.3735 99.511C31.3897 99.7512 31.2076 99.9625 30.9729 99.9749C30.9648 99.9708 30.9567 99.9749 30.9446 99.9749ZM3.75527 99.4986C3.68648 99.4986 3.61769 99.482 3.55699 99.4489C3.34656 99.3371 3.26563 99.0678 3.37893 98.8566C3.87667 97.8957 4.43106 96.9803 5.03805 96.1312C4.44724 95.0419 3.905 93.9194 3.41535 92.7721C3.32228 92.5485 3.4194 92.2917 3.63792 92.1923C3.85644 92.097 4.10733 92.1964 4.20445 92.4201C4.63339 93.4224 5.1028 94.4082 5.60863 95.365C5.71789 95.2241 5.83119 95.0833 5.9445 94.9466C6.1792 94.6608 6.422 94.3833 6.6648 94.1183C6.82666 93.9402 7.09779 93.936 7.27179 94.1017C7.4458 94.2674 7.44984 94.5449 7.28798 94.723C7.05327 94.9756 6.82262 95.2407 6.60005 95.5141C6.41795 95.7377 6.23585 95.9655 6.06185 96.2016C6.29251 96.6117 6.52721 97.0176 6.77001 97.4152C6.89545 97.6223 6.83476 97.8915 6.63242 98.0199C6.43009 98.1483 6.16706 98.0862 6.04162 97.8791C5.85952 97.5809 5.68147 97.2785 5.50746 96.9762C5.01377 97.701 4.5565 98.4673 4.1397 99.2708C4.05877 99.4157 3.90904 99.4986 3.75527 99.4986ZM10.6184 91.8154C10.4727 91.8154 10.3351 91.7408 10.2542 91.6083C10.1287 91.4012 10.1935 91.132 10.3917 91.0036C12.067 89.9432 13.8395 89.1977 15.6605 88.7959C15.8911 88.7462 16.1218 88.8953 16.1703 89.1314C16.2189 89.3675 16.0732 89.6036 15.8426 89.6533C14.1187 90.0385 12.4353 90.7426 10.8409 91.7491C10.7762 91.7947 10.6952 91.8154 10.6184 91.8154ZM25.6313 91.397C25.5504 91.397 25.4735 91.3763 25.4007 91.3266C23.867 90.3243 22.1351 89.6699 20.3829 89.4296C20.1482 89.3965 19.9823 89.177 20.0146 88.9367C20.047 88.6965 20.2615 88.5267 20.4962 88.5598C22.3698 88.8166 24.2231 89.5166 25.862 90.5852C26.0603 90.7136 26.121 90.987 25.9915 91.1899C25.9106 91.3266 25.773 91.397 25.6313 91.397ZM2.17304 88.5101C1.99094 88.5101 1.82098 88.39 1.76433 88.1995C1.21804 86.3646 0.793139 84.4759 0.501782 82.5831C0.465362 82.3428 0.623181 82.1192 0.857885 82.0819C1.09259 82.0405 1.31111 82.2062 1.34753 82.4464C1.63484 84.2978 2.05164 86.1492 2.5858 87.9427C2.65459 88.1746 2.5251 88.419 2.29848 88.4894C2.25397 88.5018 2.21351 88.5101 2.17304 88.5101ZM0.457269 78.1471C0.226611 78.1471 0.0364197 77.9607 0.0283264 77.7246C0.00809326 77.1945 0 76.6602 0 76.1341C0 74.7383 0.0728393 73.3342 0.214471 71.9632C0.238751 71.723 0.453222 71.5449 0.68388 71.5739C0.918585 71.5988 1.09259 71.8141 1.06426 72.0544C0.926678 73.3963 0.857885 74.7673 0.857885 76.1341C0.857885 76.6477 0.865979 77.1696 0.886212 77.6915C0.894305 77.9317 0.712207 78.1388 0.473456 78.1471C0.469409 78.1471 0.465362 78.1471 0.457269 78.1471ZM1.42846 67.6929C1.39609 67.6929 1.36371 67.6888 1.32729 67.6805C1.09664 67.6225 0.955004 67.3864 1.00761 67.1504C1.36371 65.6054 1.82098 64.0771 2.36323 62.6108C2.48058 62.2919 2.60603 61.973 2.73147 61.6582C2.8205 61.4345 3.07139 61.3268 3.28991 61.418C3.50843 61.5091 3.61364 61.7659 3.52461 61.9895C3.39917 62.296 3.28182 62.6067 3.16446 62.9215C2.63436 64.3504 2.18923 65.8457 1.84122 67.3533C1.7967 67.5563 1.6227 67.6929 1.42846 67.6929ZM5.20801 57.9305C5.13517 57.9305 5.06233 57.9098 4.99354 57.8725C4.78716 57.7524 4.71837 57.4832 4.83572 57.2719C5.7624 55.6234 6.82666 54.0164 8.00019 52.5005C8.14991 52.3099 8.41699 52.2768 8.60313 52.43C8.78928 52.5792 8.82165 52.8567 8.67192 53.0472C7.52268 54.53 6.4827 56.0998 5.5803 57.711C5.49937 57.8518 5.35369 57.9305 5.20801 57.9305ZM11.4843 49.6218C11.3751 49.6218 11.2618 49.5804 11.1808 49.4934C11.0149 49.3195 11.0149 49.042 11.1849 48.8722C12.5122 47.526 13.9487 46.2628 15.4541 45.1113C15.6443 44.9663 15.9113 45.0078 16.053 45.2024C16.1946 45.3971 16.1541 45.6705 15.9639 45.8154C14.491 46.942 13.0868 48.1763 11.7878 49.4934C11.6988 49.5804 11.5895 49.6218 11.4843 49.6218ZM19.6423 43.2433C19.4926 43.2433 19.351 43.1646 19.27 43.0238C19.1527 42.8126 19.2215 42.5433 19.4279 42.4232C21.0587 41.4582 22.7582 40.6049 24.4861 39.8925C24.7047 39.8014 24.9556 39.9091 25.0446 40.1327C25.1336 40.3564 25.0284 40.6132 24.8099 40.7043C23.1184 41.4043 21.4512 42.2368 19.8609 43.1812C19.788 43.2267 19.7152 43.2433 19.6423 43.2433ZM29.1155 39.2091C28.9253 39.2091 28.7513 39.0807 28.7027 38.8819C28.642 38.6458 28.7756 38.4056 29.0062 38.3434C30.8313 37.8423 32.6968 37.4861 34.542 37.279C34.7727 37.25 34.9912 37.4281 35.0155 37.6683C35.0398 37.9085 34.8698 38.1239 34.6351 38.1529C32.8303 38.3559 31.0093 38.7038 29.2248 39.1925C29.1924 39.205 29.1519 39.2091 29.1155 39.2091Z" fill="#F67952"/>
<path d="M86.869 29.546C86.865 29.546 86.8609 29.546 86.8569 29.546C84.8902 29.4922 83.0086 29.1277 81.2645 28.4567C81.0419 28.3697 80.9326 28.1171 81.0136 27.8893C81.0985 27.6615 81.3454 27.5496 81.568 27.6325C83.223 28.2662 85.0076 28.6141 86.8812 28.6638C87.1159 28.6721 87.3061 28.8709 87.298 29.1153C87.2939 29.3555 87.1037 29.546 86.869 29.546ZM91.555 29.1029C91.3567 29.1029 91.1787 28.9579 91.1342 28.7508C91.0856 28.5147 91.2353 28.2828 91.47 28.2331C93.1899 27.8727 94.9421 27.2929 96.6821 26.5142C96.9006 26.4189 97.1515 26.5183 97.2486 26.742C97.3458 26.9656 97.2446 27.2224 97.0261 27.3218C95.2334 28.1254 93.4205 28.7259 91.6441 29.0987C91.6117 29.0987 91.5834 29.1029 91.555 29.1029ZM101.012 25.0811C100.87 25.0811 100.733 25.0107 100.648 24.8781C100.522 24.6752 100.579 24.4018 100.781 24.2734L101.008 24.1243C102.384 23.2172 103.768 22.1735 105.241 20.9433C105.423 20.7901 105.694 20.8191 105.844 21.0054C105.993 21.1918 105.965 21.4693 105.783 21.6226C104.286 22.8734 102.877 23.9338 101.473 24.8616L101.239 25.0148C101.17 25.0604 101.093 25.0811 101.012 25.0811ZM109.065 18.5452C108.947 18.5452 108.834 18.4955 108.749 18.4043C108.587 18.2262 108.599 17.9487 108.773 17.7831C109.842 16.7807 110.914 15.737 111.95 14.7305L112.828 13.8772C113.002 13.7116 113.273 13.7157 113.435 13.8938C113.597 14.0678 113.589 14.3494 113.419 14.5151L112.541 15.3683C111.501 16.3789 110.429 17.4227 109.352 18.4333C109.275 18.5079 109.17 18.5452 109.065 18.5452ZM155.504 13.3429C155.342 13.3429 155.188 13.2477 155.115 13.0903C154.432 11.5992 153.541 10.1827 152.473 8.87797C152.319 8.69158 152.343 8.41408 152.526 8.26083C152.708 8.10343 152.979 8.12828 153.129 8.31467C154.245 9.67321 155.176 11.156 155.892 12.7175C155.994 12.937 155.9 13.198 155.686 13.3015C155.629 13.3305 155.565 13.3429 155.504 13.3429ZM116.587 11.3548C116.47 11.3548 116.353 11.3051 116.268 11.2057C116.11 11.0235 116.126 10.746 116.304 10.5844L116.733 10.1951C118.089 8.97323 119.368 7.90876 120.642 6.93956C120.832 6.79459 121.099 6.83601 121.241 7.03068C121.383 7.22535 121.342 7.49872 121.152 7.64368C119.898 8.59632 118.635 9.64836 117.3 10.8537L116.875 11.2389C116.794 11.3175 116.693 11.3548 116.587 11.3548ZM149.381 5.73012C149.292 5.73012 149.199 5.70113 149.122 5.64315C147.666 4.52069 146.067 3.59705 144.38 2.89292C144.161 2.8018 144.056 2.545 144.145 2.32134C144.234 2.09768 144.485 1.98999 144.703 2.08111C146.46 2.81009 148.119 3.77515 149.636 4.94316C149.826 5.08813 149.863 5.36564 149.721 5.55617C149.636 5.668 149.511 5.73012 149.381 5.73012ZM124.83 5.07156C124.681 5.07156 124.539 4.99287 124.458 4.85204C124.341 4.64081 124.41 4.37158 124.616 4.25147C126.336 3.23256 128.06 2.41246 129.735 1.81189C129.958 1.73319 130.204 1.85331 130.281 2.08111C130.358 2.30892 130.241 2.56157 130.018 2.64027C128.391 3.22428 126.716 4.01952 125.045 5.00943C124.976 5.055 124.903 5.07156 124.83 5.07156ZM140.009 1.6255C139.989 1.6255 139.965 1.6255 139.941 1.62136C138.407 1.37285 136.861 1.31072 135.348 1.4474C135.068 1.47225 134.785 1.50539 134.51 1.54266C134.271 1.57166 134.061 1.40598 134.028 1.16575C134 0.925522 134.166 0.706001 134.397 0.672866C134.688 0.635589 134.979 0.602453 135.271 0.57346C136.853 0.432636 138.472 0.494764 140.074 0.755704C140.309 0.792981 140.467 1.02079 140.43 1.25687C140.398 1.46811 140.216 1.6255 140.009 1.6255Z" fill="#F67952"/>
<path d="M308.212 143.415C308.046 143.415 307.892 143.32 307.819 143.154C307.722 142.931 307.819 142.674 308.037 142.574C309.689 141.821 311.279 140.872 312.76 139.75C312.95 139.605 313.217 139.646 313.359 139.841C313.5 140.035 313.46 140.309 313.27 140.454C311.74 141.614 310.093 142.599 308.386 143.378C308.329 143.403 308.268 143.415 308.212 143.415ZM316.531 137.331C316.426 137.331 316.321 137.289 316.24 137.211C316.066 137.045 316.058 136.767 316.22 136.589C317.478 135.218 318.587 133.711 319.518 132.116C319.639 131.909 319.902 131.839 320.105 131.963C320.307 132.087 320.376 132.356 320.254 132.563C319.291 134.212 318.146 135.765 316.847 137.186C316.758 137.285 316.645 137.331 316.531 137.331ZM321.905 128.434C321.857 128.434 321.808 128.426 321.76 128.409C321.537 128.326 321.424 128.074 321.501 127.846C321.602 127.56 321.699 127.274 321.788 126.984C322.249 125.514 322.573 123.969 322.755 122.403C322.783 122.163 323.002 121.989 323.233 122.018C323.467 122.047 323.637 122.267 323.609 122.507C323.423 124.131 323.083 125.725 322.609 127.254C322.516 127.552 322.415 127.854 322.31 128.148C322.245 128.322 322.079 128.434 321.905 128.434ZM323.301 118.071C323.079 118.071 322.889 117.893 322.872 117.661C322.751 115.793 322.435 113.937 321.938 112.14C321.873 111.908 322.006 111.663 322.233 111.597C322.46 111.535 322.698 111.668 322.763 111.9C323.281 113.755 323.605 115.677 323.73 117.603C323.747 117.843 323.568 118.054 323.33 118.071C323.322 118.071 323.309 118.071 323.301 118.071ZM320.651 107.961C320.493 107.961 320.343 107.869 320.266 107.716C319.562 106.267 318.725 104.891 317.778 103.636C317.62 103.429 317.462 103.222 317.296 103.019C317.146 102.833 317.175 102.555 317.357 102.402C317.539 102.249 317.81 102.278 317.96 102.464C318.13 102.676 318.296 102.887 318.454 103.102C319.433 104.403 320.303 105.827 321.031 107.327C321.136 107.542 321.051 107.807 320.837 107.915C320.78 107.944 320.716 107.961 320.651 107.961ZM314.464 99.5981C314.35 99.5981 314.237 99.5525 314.152 99.4614L313.824 99.1093C312.651 97.8543 311.437 96.5579 310.368 95.2242C310.219 95.0379 310.247 94.7603 310.429 94.6071C310.611 94.4538 310.882 94.4828 311.032 94.6692C312.08 95.9781 313.282 97.2621 314.443 98.5046L314.771 98.8567C314.933 99.0306 314.929 99.3082 314.759 99.478C314.678 99.5567 314.573 99.5981 314.464 99.5981ZM308.114 91.364C307.952 91.364 307.803 91.2729 307.726 91.1155C307.107 89.7901 306.722 88.4854 306.56 87.1268C306.504 86.6422 306.471 86.1411 306.471 85.6399L306.475 85.4038C306.48 85.1594 306.67 84.9648 306.913 84.973C307.151 84.9772 307.337 85.176 307.333 85.4204L307.329 85.644C307.329 86.1121 307.358 86.576 307.41 87.0233C307.564 88.2824 307.916 89.5001 308.499 90.7386C308.6 90.9581 308.511 91.219 308.296 91.3226C308.24 91.3516 308.175 91.364 308.114 91.364ZM307.726 81.1128C307.685 81.1128 307.641 81.1086 307.6 81.0921C307.374 81.0217 307.244 80.7773 307.317 80.5453C307.718 79.2034 308.224 77.849 308.717 76.5443C308.891 76.0845 309.065 75.6206 309.235 75.1567C309.32 74.9289 309.567 74.8171 309.79 74.8999C310.012 74.9869 310.126 75.2396 310.041 75.4674C309.871 75.9313 309.697 76.3952 309.523 76.8632C309.037 78.1555 308.535 79.4933 308.143 80.8063C308.082 80.9927 307.912 81.1128 307.726 81.1128ZM311.024 71.1432C310.996 71.1432 310.967 71.1391 310.935 71.135C310.704 71.0853 310.554 70.8533 310.603 70.6172C310.89 69.2048 311.036 67.7427 311.036 66.2641C311.036 65.8582 311.024 65.4523 311.004 65.0546C310.992 64.8144 311.174 64.6073 311.408 64.5908C311.627 64.5783 311.845 64.7647 311.857 65.0049C311.878 65.4191 311.89 65.8416 311.89 66.2599C311.89 67.7966 311.736 69.3208 311.437 70.7912C311.404 70.9983 311.226 71.1432 311.024 71.1432ZM310.7 60.7056C310.51 60.7056 310.336 60.5773 310.287 60.3784C309.822 58.5726 309.15 56.8247 308.288 55.1721C308.175 54.9567 308.256 54.6916 308.466 54.5798C308.673 54.4638 308.936 54.5466 309.045 54.762C309.935 56.4726 310.635 58.2868 311.117 60.1548C311.178 60.3909 311.04 60.6311 310.813 60.6891C310.773 60.7015 310.737 60.7056 310.7 60.7056ZM306.042 51.4029C305.917 51.4029 305.796 51.3491 305.711 51.2456C304.529 49.7876 303.19 48.5036 301.729 47.435C301.535 47.2942 301.49 47.0208 301.628 46.822C301.765 46.6232 302.032 46.5818 302.227 46.7185C303.744 47.8326 305.14 49.1622 306.37 50.6823C306.52 50.8686 306.496 51.1461 306.314 51.2994C306.233 51.3698 306.14 51.4029 306.042 51.4029ZM273.483 49.7752C273.37 49.7752 273.261 49.7296 273.176 49.6426C273.01 49.4687 273.018 49.1912 273.188 49.0214C274.535 47.6918 276.073 46.5362 277.761 45.5877C277.971 45.4717 278.23 45.5504 278.343 45.7617C278.457 45.9729 278.38 46.2421 278.173 46.3581C276.551 47.2693 275.074 48.3794 273.783 49.6509C273.698 49.7338 273.593 49.7752 273.483 49.7752ZM297.86 45.186C297.808 45.186 297.751 45.1735 297.698 45.1528C296.039 44.4528 294.267 43.9682 292.43 43.7073C292.195 43.6742 292.033 43.4546 292.065 43.2103C292.098 42.97 292.312 42.8002 292.551 42.8375C294.457 43.1067 296.298 43.612 298.026 44.341C298.245 44.4321 298.35 44.6889 298.261 44.9126C298.188 45.0824 298.03 45.186 297.86 45.186ZM282.309 44.544C282.127 44.544 281.957 44.4238 281.9 44.2333C281.832 44.0014 281.961 43.757 282.188 43.6866C283.992 43.1233 285.866 42.7795 287.76 42.6594C287.995 42.6511 288.201 42.8292 288.213 43.0694C288.229 43.3097 288.047 43.5209 287.812 43.5333C285.987 43.6493 284.179 43.9848 282.434 44.5274C282.394 44.5357 282.349 44.544 282.309 44.544Z" fill="#F67952"/>
<path d="M251.454 22.7037L252.983 25.5699C253.21 25.9923 253.546 26.3361 253.958 26.5681L256.759 28.1337C258.458 29.0863 258.458 31.5881 256.759 32.5365L253.958 34.1022C253.546 34.3341 253.21 34.6779 252.983 35.1004L251.454 37.9666C250.523 39.7062 248.079 39.7062 247.152 37.9666L245.622 35.1004C245.396 34.6779 245.06 34.3341 244.647 34.1022L241.847 32.5365C240.147 31.5839 240.147 29.0822 241.847 28.1337L244.647 26.5681C245.06 26.3361 245.396 25.9923 245.622 25.5699L247.152 22.7037C248.083 20.9599 250.523 20.9599 251.454 22.7037Z" fill="#F67952"/>
<path d="M250.498 36.5583C249.43 36.5583 248.483 35.9868 247.969 35.0258L246.44 32.1555C246.254 31.8076 245.974 31.5218 245.634 31.3313L242.834 29.7656C241.895 29.2396 241.337 28.2745 241.337 27.1769C241.337 26.0835 241.895 25.1143 242.834 24.5883L245.634 23.0226C245.974 22.8321 246.254 22.5463 246.44 22.1984L247.969 19.3322C248.483 18.3713 249.426 17.7997 250.498 17.7997C251.567 17.7997 252.514 18.3713 253.028 19.3322L254.557 22.1984C254.743 22.5463 255.023 22.8321 255.363 23.0226L258.163 24.5924C259.102 25.1184 259.66 26.0835 259.66 27.1811C259.66 28.2745 259.102 29.2438 258.163 29.7698L255.363 31.3354C255.023 31.5259 254.743 31.8117 254.557 32.1596L253.028 35.0258C252.514 35.9826 251.571 36.5583 250.498 36.5583ZM250.498 18.6778C249.746 18.6778 249.082 19.0795 248.722 19.7547L247.192 22.6209C246.925 23.1179 246.533 23.5238 246.047 23.793L243.247 25.3586C242.587 25.7273 242.195 26.4065 242.195 27.1769C242.195 27.9473 242.587 28.6266 243.247 28.9952L246.047 30.5609C246.533 30.8301 246.925 31.236 247.192 31.733L248.722 34.5992C249.082 35.2744 249.746 35.6761 250.498 35.6761C251.251 35.6761 251.915 35.2744 252.275 34.5992L253.805 31.733C254.072 31.236 254.464 30.8301 254.95 30.5609L257.75 28.9952C258.41 28.6266 258.802 27.9473 258.802 27.1769C258.802 26.4065 258.41 25.7273 257.75 25.3586L254.95 23.793C254.464 23.5238 254.068 23.1179 253.805 22.6209L252.275 19.7547C251.915 19.0837 251.251 18.6778 250.498 18.6778Z" fill="black"/>
<path d="M55.2122 27.1146L56.4262 29.3844C56.6043 29.7199 56.8713 29.9933 57.1991 30.1755L59.4167 31.4181C60.7642 32.1719 60.7642 34.1559 59.4167 34.9097L57.1991 36.1523C56.8713 36.3345 56.6043 36.6079 56.4262 36.9434L55.2122 39.2131C54.4757 40.5924 52.5374 40.5924 51.8009 39.2131L50.5869 36.9434C50.4089 36.6079 50.1418 36.3345 49.814 36.1523L47.5965 34.9097C46.2489 34.1559 46.2489 32.1719 47.5965 31.4181L49.814 30.1755C50.1418 29.9933 50.4089 29.7199 50.5869 29.3844L51.8009 27.1146C52.5374 25.7354 54.4757 25.7354 55.2122 27.1146Z" fill="#F67952"/>
<path d="M49.7695 40.692C48.8873 40.692 48.1104 40.2198 47.6855 39.4287L46.4715 37.1589C46.3339 36.898 46.1235 36.6868 45.8685 36.5418L43.651 35.2992C42.8781 34.8685 42.4167 34.0691 42.4167 33.1703C42.4167 32.2674 42.8781 31.4721 43.651 31.0372L45.8685 29.7947C46.1235 29.6538 46.3298 29.4384 46.4715 29.1775L47.6855 26.9077C48.1063 26.1166 48.8873 25.6445 49.7695 25.6445C50.6516 25.6445 51.4286 26.1166 51.8494 26.9077L53.0634 29.1775C53.201 29.4384 53.4114 29.6497 53.6664 29.7947L55.8839 31.0372C56.6568 31.468 57.1181 32.2674 57.1181 33.1703C57.1181 34.0732 56.6568 34.8685 55.8839 35.2992L53.6664 36.5418C53.4114 36.6826 53.2051 36.898 53.0634 37.1589L51.8494 39.4287C51.4286 40.2198 50.6516 40.692 49.7695 40.692ZM49.7695 26.5184C49.207 26.5184 48.7093 26.8208 48.4381 27.3261L47.2241 29.5958C47.0056 30.0059 46.6819 30.3372 46.2813 30.5609L44.0637 31.8035C43.57 32.081 43.2746 32.5904 43.2746 33.1662C43.2746 33.7419 43.57 34.2513 44.0637 34.5247L46.2813 35.7673C46.6819 35.9909 47.0056 36.3223 47.2241 36.7323L48.4381 39.0021C48.7093 39.5074 49.207 39.8098 49.7695 39.8098C50.332 39.8098 50.8297 39.5074 51.1008 39.0021L52.3148 36.7323C52.5333 36.3223 52.8571 35.9909 53.2577 35.7673L55.4752 34.5247C55.9689 34.2472 56.2643 33.7419 56.2643 33.162C56.2643 32.5863 55.9689 32.0768 55.4752 31.7993L53.2577 30.5568C52.8571 30.3331 52.5333 29.9976 52.3148 29.5917L51.1008 27.3219C50.8297 26.8208 50.332 26.5184 49.7695 26.5184Z" fill="black"/>
<path d="M301.255 182.825C300.579 182.825 299.985 182.465 299.661 181.86L298.795 180.241C298.706 180.075 298.576 179.942 298.415 179.851L296.832 178.965C296.242 178.634 295.885 178.025 295.889 177.333C295.889 176.641 296.242 176.033 296.832 175.701L298.415 174.815C298.576 174.724 298.706 174.591 298.795 174.425L299.661 172.802C299.985 172.197 300.579 171.833 301.255 171.833C301.931 171.833 302.526 172.193 302.85 172.802L303.716 174.425C303.805 174.591 303.934 174.724 304.096 174.815L305.678 175.701C306.269 176.033 306.625 176.641 306.625 177.333C306.625 178.025 306.273 178.634 305.678 178.965L304.096 179.851C303.934 179.942 303.805 180.075 303.716 180.241L302.85 181.86C302.526 182.465 301.927 182.825 301.255 182.825ZM301.255 172.711C300.899 172.711 300.584 172.901 300.414 173.22L299.548 174.844C299.382 175.154 299.131 175.411 298.823 175.581L297.241 176.467C296.929 176.641 296.743 176.964 296.743 177.329C296.743 177.693 296.929 178.016 297.241 178.19L298.823 179.077C299.131 179.247 299.378 179.503 299.548 179.814L300.414 181.434C300.584 181.752 300.899 181.943 301.255 181.943C301.611 181.943 301.927 181.752 302.097 181.434L302.963 179.814C303.129 179.503 303.38 179.247 303.687 179.077L305.27 178.19C305.581 178.016 305.767 177.693 305.767 177.329C305.767 176.964 305.581 176.641 305.27 176.467L303.687 175.581C303.38 175.411 303.133 175.154 302.963 174.844L302.097 173.22C301.923 172.901 301.611 172.711 301.255 172.711Z" fill="#F67952"/>
<path d="M311.137 194.58C310.684 194.58 310.267 194.327 310.049 193.921L309.543 192.973C309.506 192.907 309.454 192.853 309.393 192.82L308.466 192.302C308.07 192.078 307.823 191.652 307.823 191.188C307.823 190.724 308.07 190.297 308.466 190.073L309.393 189.556C309.458 189.518 309.51 189.465 309.547 189.398L310.053 188.454C310.271 188.048 310.684 187.795 311.137 187.795C311.59 187.795 312.007 188.048 312.226 188.454L312.732 189.402C312.768 189.469 312.821 189.523 312.885 189.556L313.808 190.073C314.205 190.297 314.451 190.724 314.451 191.188C314.451 191.652 314.205 192.078 313.808 192.302L312.881 192.82C312.817 192.857 312.764 192.911 312.732 192.977L312.226 193.921C312.007 194.327 311.59 194.58 311.137 194.58ZM311.137 188.673C311.068 188.673 310.902 188.694 310.801 188.876L310.295 189.825C310.182 190.04 310.012 190.21 309.802 190.33L308.875 190.848C308.697 190.947 308.677 191.121 308.677 191.192C308.677 191.262 308.697 191.436 308.875 191.536L309.802 192.053C310.008 192.169 310.182 192.343 310.295 192.559L310.801 193.507C310.898 193.689 311.068 193.71 311.137 193.71C311.206 193.71 311.372 193.689 311.473 193.507L311.979 192.559C312.092 192.343 312.262 192.169 312.473 192.053L313.395 191.536C313.573 191.436 313.593 191.262 313.593 191.192C313.593 191.121 313.573 190.952 313.395 190.848L312.469 190.33C312.262 190.214 312.092 190.04 311.975 189.825L311.469 188.876C311.376 188.694 311.206 188.673 311.137 188.673Z" fill="#F67952"/>
<path d="M71.0709 18.4169C70.6177 18.4169 70.2009 18.1643 69.9824 17.7584L69.4765 16.8099C69.4401 16.7436 69.3875 16.6898 69.3268 16.6566L68.4001 16.1389C68.0036 15.9152 67.7567 15.4886 67.7567 15.0247C67.7567 14.5608 68.0036 14.1342 68.4001 13.9106L69.3268 13.3928C69.3916 13.3555 69.4442 13.3017 69.4806 13.2354L69.9864 12.2911C70.2049 11.8852 70.6217 11.6325 71.0749 11.6325C71.5282 11.6325 71.945 11.8852 72.1594 12.2911L72.6653 13.2396C72.7017 13.3058 72.7543 13.3597 72.819 13.397L73.7417 13.9147C74.1382 14.1384 74.3851 14.565 74.3851 15.0289C74.3851 15.4928 74.1382 15.9194 73.7417 16.143L72.815 16.6608C72.7503 16.698 72.6976 16.7519 72.6653 16.8182L72.1594 17.7625C71.9409 18.1643 71.5241 18.4169 71.0709 18.4169ZM71.0709 12.5106C71.0021 12.5106 70.8362 12.5313 70.735 12.7135L70.2292 13.662C70.1159 13.8774 69.9459 14.0514 69.7355 14.1673L68.8088 14.6851C68.6308 14.7845 68.6106 14.9585 68.6106 15.0289C68.6106 15.0993 68.6308 15.2691 68.8088 15.3726L69.7355 15.8904C69.9419 16.0064 70.1119 16.1803 70.2292 16.3957L70.735 17.3442C70.8322 17.5264 71.0021 17.5471 71.0709 17.5471C71.1397 17.5471 71.3056 17.5264 71.4027 17.3442L71.9086 16.3957C72.0219 16.1803 72.1918 16.0064 72.4022 15.8904L73.3289 15.3726C73.507 15.2732 73.5272 15.0993 73.5272 15.0289C73.5272 14.9585 73.507 14.7845 73.3289 14.6851L72.4063 14.1632C72.1959 14.0472 72.03 13.8733 71.9126 13.6579L71.4068 12.7094C71.3097 12.5272 71.1397 12.5106 71.0709 12.5106Z" fill="#F67952"/>
<path d="M127.27 201.004C126.817 201.004 126.4 200.751 126.182 200.346L125.676 199.397C125.64 199.331 125.587 199.277 125.526 199.244L124.6 198.726C124.203 198.502 123.956 198.076 123.956 197.612C123.956 197.148 124.203 196.721 124.6 196.498L125.526 195.98C125.591 195.943 125.644 195.889 125.676 195.827L126.182 194.878C126.4 194.472 126.817 194.22 127.27 194.22C127.724 194.22 128.141 194.472 128.359 194.878L128.865 195.827C128.901 195.893 128.954 195.947 129.015 195.98L129.941 196.498C130.338 196.721 130.585 197.148 130.585 197.612C130.585 198.076 130.338 198.502 129.941 198.726L129.015 199.244C128.95 199.281 128.897 199.335 128.865 199.401L128.359 200.346C128.141 200.751 127.724 201.004 127.27 201.004ZM127.27 195.098C127.202 195.098 127.032 195.118 126.935 195.301L126.429 196.249C126.315 196.465 126.146 196.639 125.935 196.755L125.012 197.272C124.834 197.372 124.814 197.546 124.814 197.616C124.814 197.686 124.834 197.86 125.012 197.96L125.939 198.478C126.15 198.594 126.32 198.767 126.433 198.983L126.939 199.927C127.036 200.109 127.206 200.13 127.275 200.13C127.343 200.13 127.509 200.109 127.61 199.927L128.116 198.979C128.23 198.763 128.399 198.589 128.61 198.473L129.537 197.956C129.715 197.856 129.735 197.682 129.735 197.612C129.735 197.541 129.715 197.372 129.537 197.268L128.61 196.75C128.404 196.634 128.23 196.46 128.116 196.245L127.61 195.297C127.509 195.118 127.339 195.098 127.27 195.098Z" fill="#F67952"/>
<path d="M15.4622 292.635C14.839 292.635 14.2846 292.3 13.9892 291.741L13.2082 290.279C13.1313 290.138 13.018 290.022 12.8804 289.943L11.452 289.144C10.9057 288.837 10.5779 288.274 10.5779 287.636C10.5779 286.998 10.9057 286.431 11.452 286.124L12.8804 285.325C13.018 285.246 13.1313 285.13 13.2082 284.989L13.9892 283.527C14.2886 282.968 14.839 282.633 15.4622 282.633C16.0853 282.633 16.6397 282.968 16.9392 283.527L17.7202 284.989C17.7971 285.13 17.9104 285.246 18.048 285.325L19.4764 286.124C20.0227 286.431 20.3505 286.994 20.3505 287.636C20.3505 288.274 20.0227 288.841 19.4764 289.144L18.048 289.943C17.9104 290.022 17.7971 290.138 17.7202 290.279L16.9392 291.741C16.6357 292.3 16.0853 292.635 15.4622 292.635ZM15.4622 283.507C15.1546 283.507 14.8875 283.672 14.7378 283.946L13.9568 285.408C13.803 285.698 13.5724 285.934 13.2891 286.091L11.8607 286.891C11.5936 287.04 11.4317 287.317 11.4317 287.632C11.4317 287.947 11.5936 288.22 11.8607 288.373L13.2891 289.173C13.5724 289.33 13.803 289.566 13.9568 289.856L14.7378 291.318C14.8835 291.592 15.1546 291.757 15.4622 291.757C15.7697 291.757 16.0368 291.592 16.1865 291.318L16.9675 289.856C17.1213 289.566 17.3519 289.33 17.6352 289.173L19.0637 288.373C19.3307 288.224 19.4926 287.947 19.4926 287.632C19.4926 287.317 19.3307 287.044 19.0637 286.891L17.6352 286.091C17.3519 285.934 17.1213 285.698 16.9675 285.408L16.1865 283.946C16.0368 283.668 15.7657 283.507 15.4622 283.507Z" fill="#F67952"/>
<path d="M20.3248 200.65C20.1862 200.65 20.0439 200.635 19.9053 200.601C19.2378 200.441 18.7271 199.943 18.5338 199.274C18.1581 197.995 18.3806 196.608 19.1174 195.651C19.4056 195.273 19.763 194.944 20.1096 194.626C20.7515 194.032 21.357 193.471 21.3972 192.727C21.4081 192.51 21.5832 192.327 21.8057 192.353C22.0173 192.364 22.1814 192.551 22.1705 192.772C22.1121 193.841 21.357 194.54 20.6275 195.213C20.2919 195.524 19.9746 195.815 19.7266 196.141C19.1429 196.896 18.9715 198.01 19.2743 199.046C19.391 199.442 19.6901 199.734 20.0804 199.827C20.4889 199.921 20.9011 199.783 21.171 199.45L25.1105 194.622C26.3652 193.086 27.5689 191.433 27.3209 189.649C27.2917 189.432 27.4376 189.231 27.6492 189.201C27.8608 189.167 28.0577 189.32 28.0869 189.537C28.3787 191.646 27.0109 193.531 25.705 195.131L21.7656 199.958C21.4008 200.407 20.8756 200.65 20.3248 200.65Z" fill="black"/>
<path d="M19.8214 205.631C19.5041 205.631 19.1575 205.451 18.8256 205.107C17.8079 204.042 17.0273 202.632 16.5604 201.035C16.1592 199.667 15.9768 198.156 16.0023 196.425C16.0461 193.811 16.5823 191.156 17.5489 188.745C17.6292 188.543 17.859 188.449 18.0523 188.528C18.2493 188.61 18.3441 188.842 18.2639 189.044C17.3301 191.362 16.8158 193.916 16.772 196.432C16.7465 198.081 16.9179 199.51 17.2972 200.803C17.7277 202.28 18.4426 203.574 19.3727 204.546C19.588 204.771 19.7849 204.861 19.8469 204.823C19.8907 204.786 19.9527 204.681 19.9162 204.281C19.7922 203.028 19.6682 201.772 19.5478 200.512C19.5259 200.295 19.6828 200.101 19.8944 200.078C20.1059 200.059 20.2956 200.216 20.3175 200.433C20.4378 201.693 20.5619 202.95 20.6859 204.206C20.7224 204.603 20.7151 205.092 20.3722 205.406C20.3248 205.448 20.281 205.481 20.2336 205.511C20.1096 205.593 19.971 205.631 19.8214 205.631Z" fill="black"/>
<path d="M20.9339 204.322C20.7224 204.322 20.5181 204.281 20.3284 204.202C20.1315 204.116 20.0403 203.884 20.1205 203.683C20.2044 203.481 20.4306 203.387 20.6275 203.469C20.9595 203.611 21.4008 203.499 21.7255 203.189C21.7583 203.159 21.7838 203.133 21.8057 203.103C22.1012 202.755 22.2726 202.254 22.3273 201.6C22.3346 201.521 22.3383 201.443 22.3419 201.372C22.3747 200.53 22.2215 199.689 21.8969 198.926C21.8276 198.777 21.8495 198.593 21.9699 198.474C22.1231 198.32 22.3638 198.317 22.5133 198.47L22.517 198.474C22.5498 198.507 22.579 198.549 22.5972 198.593C22.9729 199.465 23.1517 200.433 23.1116 201.394C23.1079 201.491 23.1043 201.585 23.0933 201.671C23.0277 202.49 22.7906 203.144 22.393 203.611C22.3565 203.66 22.3054 203.712 22.2471 203.769C21.8787 204.127 21.3972 204.322 20.9339 204.322Z" fill="black"/>
<path d="M23.1663 201.854C22.9985 201.854 22.8308 201.817 22.6703 201.735C22.4806 201.637 22.4003 201.398 22.4988 201.204C22.5937 201.009 22.8271 200.931 23.0168 201.028C23.2174 201.133 23.5201 200.99 23.677 200.796C23.8813 200.53 23.9579 200.149 24.0089 199.775C24.1439 198.706 24.0928 197.633 23.8521 196.589C23.8047 196.376 23.9323 196.163 24.1403 196.115C24.3482 196.066 24.5561 196.197 24.6035 196.41C24.8625 197.547 24.9208 198.713 24.7713 199.88C24.7093 200.344 24.6035 200.871 24.2789 201.29C24.0272 201.607 23.604 201.854 23.1663 201.854Z" fill="black"/>
</svg>
