<svg width="324" height="327" viewBox="0 0 324 327" fill="none" xmlns="http://www.w3.org/2000/svg">
<path d="M75.1639 117.662L80.0685 116.274C80.9507 116.023 81.8005 115.671 82.6017 115.226L100.965 104.555L112.438 80.6757L113.559 80.9792L121.887 83.213L122.935 83.4922L113.717 110.694C112.053 114.769 109.01 118.128 105.117 120.183L82.4925 132.149L85.6003 139.919C86.7131 142.695 85.9766 145.872 83.755 147.875L78.547 152.569L72.0318 176.764H42.564L43.612 172.499L34.5718 151.132C33.4185 148.405 33.7665 145.273 35.4904 142.865L51.8672 119.969C52.8749 120.867 53.9958 121.636 55.1936 122.251C58.002 123.692 61.3122 124.335 64.3634 123.542C66.7914 122.911 69.0494 121.288 70.0449 118.994L70.2068 119.062L75.1639 117.662Z" fill="#F67952"/>
<path d="M96.243 305.432L97.7848 307.916H65.9578V299.447C65.9578 298.674 66.585 298.047 67.3579 298.047C67.536 298.047 67.71 298.079 67.8718 298.14C68.1187 298.241 68.3332 298.403 68.495 298.621L70.1542 300.916C70.6519 301.596 71.4491 302 72.2949 302H75.1842C76.0906 302 76.9364 301.539 77.4179 300.77L78.725 298.702C78.9112 298.411 79.1904 298.196 79.5141 298.103C79.6396 298.067 79.769 298.047 79.9066 298.047H80.2587C80.6188 298.047 80.9628 298.188 81.2218 298.435L83.0104 300.139C84.4308 301.49 86.2882 302.296 88.2428 302.405L91.4518 302.587C93.4144 302.7 95.203 303.761 96.243 305.432Z" fill="black"/>
<path d="M51.8672 119.973C49.5445 117.925 47.8125 115.21 47.1084 112.199C46.0967 107.877 47.3471 103.021 50.5521 99.9499C51.9118 98.6469 53.5992 97.6473 54.6109 96.057C55.7642 94.232 55.8208 91.9496 56.359 89.8656C57.6054 85.0379 61.3567 82.2376 65.6502 80.2224C70.0125 78.1748 73.4441 78.972 76.649 82.8042C78.377 84.868 79.4372 87.8099 78.462 90.4524C78.4579 90.4645 78.4539 90.4726 78.4498 90.4847C76.8271 94.7985 70.8704 96.0327 68.8552 100.181C67.4712 103.033 68.3534 106.421 69.3165 109.439C70.2836 112.458 71.3074 115.76 70.1622 118.718C70.1258 118.811 70.0894 118.905 70.0408 118.994C69.0453 121.288 66.7914 122.911 64.3593 123.542C61.3081 124.335 57.9979 123.696 55.1896 122.251C53.9958 121.64 52.8749 120.867 51.8672 119.973Z" fill="black"/>
<path d="M48.3305 298.192C49.8965 297.844 51.8106 297.573 53.9958 297.573C56.2134 297.573 58.1518 297.852 59.73 298.208C60.3815 298.358 60.9723 298.52 61.4984 298.674C61.4984 302.024 61.4984 304.55 61.4984 307.9H46.4893V298.674C47.0356 298.512 47.6506 298.346 48.3305 298.192Z" fill="black"/>
<path d="M70.2067 119.499C70.0165 119.499 69.8425 119.374 69.7858 119.179C69.7211 118.949 69.8546 118.706 70.0893 118.641L79.9511 115.853C80.8009 115.61 81.6183 115.27 82.3912 114.841L100.747 104.174C100.957 104.053 101.224 104.126 101.346 104.332C101.467 104.543 101.394 104.81 101.188 104.931L82.8242 115.602C81.9906 116.068 81.1044 116.432 80.1939 116.695L70.3321 119.483C70.2836 119.495 70.2431 119.499 70.2067 119.499Z" fill="black"/>
<path d="M72.0317 177.201H42.5639C42.4303 177.201 42.3009 177.14 42.2199 177.035C42.139 176.93 42.1066 176.792 42.139 176.662L52.0533 136.451C52.11 136.216 52.3487 136.074 52.5834 136.131C52.8182 136.188 52.9598 136.426 52.9031 136.661L43.1223 176.331H71.6959L78.122 152.459C78.1422 152.378 78.1908 152.306 78.2515 152.249L83.4595 147.555C85.5355 145.685 86.2315 142.683 85.1915 140.085L82.0837 132.315C82.0027 132.109 82.0877 131.87 82.286 131.765L104.911 119.799C108.703 117.796 111.685 114.502 113.308 110.532L122.364 83.7995L112.668 81.1975L100.209 107.129C100.103 107.347 99.8445 107.436 99.626 107.335C99.4075 107.23 99.3184 106.971 99.4196 106.752L112.037 80.4934C112.13 80.3032 112.341 80.2061 112.547 80.2587L123.044 83.0752C123.161 83.1075 123.259 83.1844 123.315 83.2896C123.372 83.3949 123.384 83.5203 123.344 83.6377L114.125 110.839C112.413 115.028 109.289 118.475 105.32 120.576L83.0427 132.356L86.0049 139.761C87.1784 142.695 86.3934 146.09 84.0463 148.206L78.9313 152.811L72.4485 176.885C72.404 177.071 72.23 177.201 72.0317 177.201Z" fill="black"/>
<path d="M43.6121 172.94C43.4421 172.94 43.2802 172.838 43.2074 172.673L34.1671 151.306C32.9653 148.457 33.3335 145.127 35.1302 142.614L51.5638 119.641C51.7014 119.443 51.9765 119.394 52.1748 119.532C52.3731 119.669 52.4217 119.944 52.2841 120.143L52.2274 120.224L35.8465 143.124C34.2238 145.394 33.892 148.397 34.9765 150.966L44.0167 172.333C44.1098 172.555 44.0086 172.81 43.7861 172.907C43.7294 172.928 43.6687 172.94 43.6121 172.94Z" fill="black"/>
<path d="M60.4623 296.185H47.2418C47.0192 296.185 46.8291 296.015 46.8088 295.793L37.6917 209.072C36.9754 202.242 37.457 195.395 39.1242 188.718L42.139 176.659C42.1997 176.424 42.4384 176.282 42.6691 176.339C42.9038 176.4 43.0454 176.634 42.9888 176.869L39.974 188.928C38.331 195.504 37.8576 202.25 38.5617 208.979L47.6384 295.307H60.0293V208.255C60.0293 208.012 60.2235 207.806 60.4663 207.806C60.7091 207.806 60.9034 207.992 60.9034 208.235V295.748C60.9034 295.987 60.7051 296.185 60.4623 296.185Z" fill="black"/>
<path d="M80.0159 296.185H67.0747C66.9452 296.185 66.8197 296.124 66.7347 296.023C66.6498 295.922 66.6174 295.789 66.6457 295.659L78.4539 236.343L54.5907 200.137C54.4571 199.935 54.5138 199.664 54.7161 199.53C54.9185 199.397 55.1896 199.453 55.3231 199.656L79.2835 236.011C79.3482 236.108 79.3684 236.226 79.3482 236.339L67.6088 295.307H79.7043L98.0641 240.989C99.0919 237.954 98.9017 234.688 97.534 231.79L71.6393 176.95C71.5381 176.731 71.6312 176.472 71.8497 176.367C72.0683 176.266 72.3272 176.359 72.4325 176.578L98.3271 231.418C99.792 234.522 99.9943 238.022 98.8936 241.272L80.4368 295.886C80.372 296.064 80.2061 296.185 80.0159 296.185Z" fill="black"/>
<path d="M76.4062 111.171C75.6576 111.171 74.8199 111.018 73.8892 110.706C73.2741 110.5 72.6266 110.228 71.9144 109.889C71.6959 109.783 71.6028 109.524 71.708 109.306C71.8132 109.087 72.0763 108.998 72.2907 109.099C72.9706 109.427 73.5857 109.682 74.1684 109.876C76.39 110.617 77.9196 110.382 78.8423 109.16C79.7487 107.962 83.9816 101.435 78.1867 90.7397C78.0734 90.5293 78.1503 90.2622 78.3648 90.1489C78.5752 90.0315 78.8423 90.1125 78.9556 90.3269C85.0054 101.496 80.5014 108.416 79.5383 109.69C78.7937 110.678 77.7456 111.171 76.4062 111.171Z" fill="black"/>
<path d="M61.5913 124.323C59.4263 124.323 57.1602 123.752 54.9952 122.639C53.7772 122.016 52.6279 121.227 51.5798 120.296C49.1275 118.131 47.3875 115.287 46.6834 112.296C45.6069 107.707 47.0111 102.738 50.2525 99.6301C50.7179 99.185 51.2197 98.7763 51.7053 98.3756C52.6846 97.5744 53.6072 96.8217 54.2425 95.8181C54.9993 94.6203 55.2542 93.2121 55.5294 91.7189C55.6467 91.0714 55.7722 90.3996 55.9381 89.7481C57.3747 84.184 62.0647 81.416 65.468 79.8176C70.0084 77.685 73.6706 78.5429 76.9889 82.5167C78.6237 84.4713 79.9753 87.6196 78.8787 90.5939C77.9763 92.9936 75.872 94.4665 73.8406 95.895C71.9548 97.2183 70.1783 98.4687 69.2557 100.363C67.9405 103.074 68.8186 106.396 69.7413 109.298C70.6558 112.159 71.797 115.72 70.5789 118.868C70.5344 118.977 70.494 119.078 70.4414 119.184C69.458 121.454 67.2243 123.246 64.4806 123.959C63.5458 124.206 62.5787 124.323 61.5913 124.323ZM69.976 79.5627C68.6932 79.5627 67.3254 79.9147 65.8362 80.6148C60.6848 83.0347 57.8077 86.009 56.7838 89.9707C56.626 90.5898 56.5046 91.2454 56.3873 91.8807C56.1121 93.3901 55.8288 94.9481 54.979 96.2875C54.2668 97.4085 53.2471 98.2461 52.2556 99.0555C51.7822 99.444 51.2925 99.8446 50.8514 100.265C47.8286 103.159 46.5255 107.804 47.5291 112.098C48.1887 114.918 49.8317 117.597 52.1504 119.645C53.1418 120.527 54.2304 121.276 55.3837 121.862C58.354 123.384 61.4982 123.829 64.2459 123.117C66.7306 122.469 68.7458 120.863 69.6361 118.819C69.6846 118.718 69.717 118.641 69.7494 118.556C70.8541 115.699 69.8141 112.442 68.8915 109.569C67.9162 106.505 66.9976 102.989 68.4504 99.9862C69.4702 97.886 71.4247 96.5142 73.3185 95.1869C75.3338 93.7746 77.2317 92.4392 78.0289 90.3268C79.0122 87.6722 77.778 84.8476 76.3009 83.0833C74.3383 80.72 72.2947 79.5627 69.976 79.5627Z" fill="black"/>
<path d="M75.2368 118.176C75.1397 118.176 75.0426 118.144 74.9617 118.075C74.9374 118.055 74.9171 118.034 74.8969 118.014C74.8888 118.01 74.8686 117.986 74.8605 117.982C73.8771 117.035 73.2985 115.878 73.0314 114.348C72.7684 112.822 72.9707 111.398 73.6343 110.111C73.7031 109.961 73.8569 109.86 74.0309 109.86C74.2737 109.86 74.468 110.054 74.468 110.297V110.301C74.468 110.37 74.4518 110.439 74.4194 110.504C73.8326 111.637 73.6627 112.847 73.8974 114.202C74.1321 115.558 74.6177 116.533 75.4715 117.359C75.4756 117.359 75.4958 117.383 75.5201 117.403C75.7022 117.561 75.7305 117.844 75.5768 118.026C75.4796 118.119 75.3582 118.176 75.2368 118.176Z" fill="black"/>
<path d="M97.7808 308.354H65.9538C65.711 308.354 65.5167 308.159 65.5167 307.916V299.447C65.5167 298.435 66.3422 297.61 67.3539 297.61C67.5846 297.61 67.8071 297.65 68.0216 297.735C68.3534 297.869 68.6327 298.083 68.839 298.366L70.5022 300.661C70.915 301.227 71.5827 301.567 72.2868 301.567H75.1761C75.9409 301.567 76.637 301.183 77.0416 300.539L78.3487 298.467C78.5915 298.087 78.9557 297.808 79.3847 297.682C79.5506 297.634 79.7246 297.606 79.9026 297.606H80.2547C80.7241 297.606 81.1733 297.788 81.5173 298.115L83.3059 299.819C84.6534 301.098 86.4137 301.863 88.2631 301.968L91.4721 302.15C93.5804 302.271 95.5026 303.413 96.6113 305.201L98.1531 307.682C98.2381 307.815 98.2421 307.985 98.1653 308.127C98.0884 308.269 97.9427 308.354 97.7808 308.354ZM66.3908 307.479H96.9958L95.8708 305.667C94.9117 304.117 93.2486 303.129 91.4235 303.028L88.2145 302.846C86.1588 302.729 84.2002 301.879 82.7029 300.458L80.9143 298.755C80.7322 298.581 80.4975 298.488 80.2547 298.488H79.9026C79.8136 298.488 79.7246 298.5 79.6356 298.528C79.4089 298.593 79.2188 298.743 79.0893 298.941L77.7862 301.009C77.2197 301.907 76.2485 302.445 75.1802 302.445H72.2909C71.3075 302.445 70.3727 301.972 69.7981 301.179L68.1349 298.884C68.0257 298.735 67.8759 298.621 67.7019 298.548C67.5927 298.508 67.4753 298.484 67.3539 298.484C66.8238 298.484 66.3908 298.917 66.3908 299.447V307.479Z" fill="black"/>
<path d="M97.7808 312.258H65.9538C65.711 312.258 65.5167 312.064 65.5167 311.821V307.916C65.5167 307.673 65.711 307.479 65.9538 307.479C66.1966 307.479 66.3908 307.673 66.3908 307.916V311.384H97.3438V307.916C97.3438 307.673 97.538 307.479 97.7808 307.479C98.0236 307.479 98.2179 307.673 98.2179 307.916V311.821C98.2179 312.06 98.0236 312.258 97.7808 312.258Z" fill="black"/>
<path d="M79.4899 298.483C79.4858 298.483 79.4899 298.483 79.4899 298.483C79.2471 298.483 79.0529 298.285 79.0529 298.042L79.069 295.784C79.069 295.546 79.2673 295.351 79.5061 295.351H79.5101C79.7529 295.351 79.9472 295.55 79.9431 295.792L79.9269 298.05C79.9229 298.289 79.7286 298.483 79.4899 298.483Z" fill="black"/>
<path d="M67.9082 298.483C67.6694 298.483 67.4752 298.293 67.4711 298.05L67.4428 295.792C67.4388 295.55 67.633 295.351 67.8758 295.351H67.8798C68.1186 295.351 68.3128 295.541 68.3169 295.784L68.3452 298.042C68.3493 298.285 68.155 298.483 67.9122 298.483C67.9122 298.483 67.9122 298.483 67.9082 298.483Z" fill="black"/>
<path d="M61.4983 308.337C61.2555 308.337 61.0612 308.143 61.0612 307.9V299.002C60.5797 298.864 60.1062 298.743 59.6327 298.633C55.9705 297.808 52.1019 297.804 48.4275 298.617C47.946 298.726 47.4604 298.848 46.9262 299.002V307.9C46.9262 308.143 46.732 308.337 46.4892 308.337C46.2464 308.337 46.0521 308.143 46.0521 307.9V298.674C46.0521 298.48 46.1776 298.31 46.3637 298.253C47.0436 298.051 47.6384 297.897 48.2333 297.763C52.0331 296.922 56.0353 296.926 59.8229 297.78C60.4178 297.917 61.0086 298.071 61.6197 298.253C61.8058 298.31 61.9313 298.48 61.9313 298.674V307.9C61.9353 308.143 61.737 308.337 61.4983 308.337Z" fill="black"/>
<path d="M61.4983 312.509H46.4892C46.2464 312.509 46.0521 312.315 46.0521 312.072V307.9C46.0521 307.657 46.2464 307.463 46.4892 307.463H61.4983C61.7411 307.463 61.9353 307.657 61.9353 307.9V312.072C61.9353 312.315 61.737 312.509 61.4983 312.509ZM46.9262 311.635H61.0612V308.337H46.9262V311.635Z" fill="black"/>
<path d="M48.3303 298.726C48.0875 298.726 47.8933 298.532 47.8933 298.289V295.958C47.8933 295.716 48.0875 295.521 48.3303 295.521C48.5731 295.521 48.7674 295.716 48.7674 295.958V298.289C48.7674 298.532 48.5731 298.726 48.3303 298.726Z" fill="black"/>
<path d="M59.7947 298.362C59.5519 298.362 59.3577 298.168 59.3577 297.925V295.962C59.3577 295.72 59.5519 295.525 59.7947 295.525C60.0375 295.525 60.2317 295.72 60.2317 295.962V297.925C60.2317 298.164 60.0375 298.362 59.7947 298.362Z" fill="black"/>
<path d="M75.0627 288.055C75.0303 288.055 74.9979 288.051 74.9615 288.043C74.7268 287.987 74.5811 287.752 74.6337 287.517L85.7378 239.916C86.2801 237.585 85.9968 235.121 84.9406 232.98L67.5157 197.543C67.4104 197.325 67.4995 197.066 67.7139 196.957C67.9325 196.851 68.1914 196.941 68.3007 197.155L85.7257 232.592C86.8709 234.914 87.1784 237.585 86.5876 240.114L75.4836 287.715C75.439 287.922 75.261 288.055 75.0627 288.055Z" fill="black"/>
<path d="M113.619 81.1732C113.385 81.1732 113.19 80.9871 113.182 80.7524C113.118 79.1013 113.053 77.4462 112.992 75.7952C112.948 74.6257 112.895 73.3024 113.356 72.0925C113.802 70.9149 114.906 69.713 116.375 69.6928C116.61 69.6888 116.816 69.883 116.82 70.1258C116.824 70.3686 116.63 70.5669 116.387 70.5709C115.339 70.5871 114.506 71.53 114.174 72.4041C113.777 73.4522 113.822 74.6257 113.866 75.7669C113.927 77.4179 113.992 79.073 114.056 80.724C114.065 80.9668 113.878 81.1692 113.636 81.1773C113.632 81.1732 113.627 81.1732 113.619 81.1732Z" fill="black"/>
<path d="M116.064 74.5448C116.051 74.5448 116.039 74.5448 116.027 74.5448C115.788 74.5246 115.606 74.3141 115.627 74.0713C115.736 72.74 115.979 71.4086 116.343 70.1218C117.006 67.7626 118.059 65.5612 119.471 63.5743C120.341 62.3562 121.838 61.2029 123.194 61.9435C123.934 62.3481 124.679 63.3517 124.023 65.8485L122.413 71.9752C122.352 72.2099 122.113 72.3475 121.879 72.2868C121.644 72.2261 121.506 71.9873 121.567 71.7526L123.178 65.6259C123.408 64.7438 123.663 63.1939 122.777 62.7083C121.862 62.2065 120.717 63.3315 120.187 64.0761C118.831 65.978 117.824 68.0904 117.189 70.3524C116.836 71.5867 116.606 72.8614 116.501 74.1361C116.48 74.3708 116.29 74.5448 116.064 74.5448Z" fill="black"/>
<path d="M123.465 76.4672C123.36 76.4672 123.255 76.4308 123.17 76.3539C122.992 76.192 122.979 75.9128 123.141 75.7347C123.858 74.9497 124.246 73.8207 124.206 72.639C124.161 71.3239 123.611 70.1301 122.692 69.3653C122.506 69.2115 122.482 68.9363 122.635 68.7502C122.789 68.564 123.064 68.5398 123.251 68.6935C124.363 69.6162 125.031 71.0447 125.08 72.6107C125.128 74.019 124.655 75.3705 123.789 76.3256C123.704 76.4227 123.586 76.4672 123.465 76.4672Z" fill="black"/>
<path d="M121.729 83.7753C121.599 83.7753 121.47 83.7146 121.381 83.6053C121.235 83.4151 121.268 83.1399 121.462 82.9902C121.502 82.9578 121.543 82.9255 121.579 82.8931C123.445 81.3635 124.873 79.2916 125.63 77.0335C125.97 76.0178 126.059 75.2651 125.917 74.6015C125.751 73.8164 125.193 73.1811 124.558 73.0516C124.554 73.0516 124.549 73.0516 124.545 73.0475C124.343 73.0111 124.189 72.8331 124.189 72.6186C124.189 72.3434 124.436 72.1289 124.728 72.1937H124.732C125.715 72.392 126.536 73.2863 126.775 74.4194C126.998 75.4755 126.723 76.5196 126.46 77.3087C125.65 79.7205 124.121 81.934 122.162 83.5446C122.093 83.6013 122.045 83.6417 121.996 83.6822C121.915 83.7469 121.822 83.7753 121.729 83.7753Z" fill="black"/>
<path d="M279.869 176.076H282.726C284.757 176.076 286.412 177.727 286.412 179.763V184.238C286.412 186.274 284.761 187.925 282.726 187.925H278.25C276.215 187.925 274.564 186.278 274.564 184.238V179.763C274.564 177.731 276.211 176.076 278.25 176.076H279.869Z" fill="#5D9FEE"/>
<path d="M275.551 298.925L275.976 304.291L275.923 304.295C274.527 306.549 267.935 318.057 264.386 320.676C261.185 323.039 253.379 322.035 254.706 316.633C256.252 311.927 259.684 304.529 261.392 300.608C261.428 300.863 261.707 300.827 262.334 300.321C264.52 298.565 265.543 295.72 268.874 298.516C272.208 301.316 272.945 302.016 274.697 300.62C275.211 300.212 275.409 299.597 275.429 298.925H275.551Z" fill="black"/>
<path d="M249.535 120.693L249.571 120.588L266.106 126.8C270.476 128.499 273.799 132.141 275.078 136.649L279.322 151.578H263.605L265.782 157.894L260.388 165.296L260.149 165.122H238.241L227.282 140.971L214.697 150.497L205.353 137.495L213.872 129.195C215.142 127.961 216.648 126.986 218.295 126.338L231.875 120.734L231.936 120.888C232.118 120.855 232.3 120.815 232.482 120.762C231.924 124.02 234.295 127.512 237.537 128.188C240.001 128.698 242.591 127.714 244.562 126.144C246.492 124.611 247.932 122.567 249.333 120.54C249.401 120.596 249.47 120.645 249.535 120.693Z" fill="#5D9FEE"/>
<path d="M251.085 100.674C250.745 100.484 250.336 100.383 249.96 100.432L249.968 100.209C249.057 99.5657 248.527 98.4164 248.62 97.3036C248.677 96.6035 248.964 95.8994 248.79 95.2155C248.523 94.1917 247.358 93.7101 246.326 93.4835C245.29 93.2569 244.125 93.0667 243.489 92.225C243.012 91.5937 242.955 90.752 242.817 89.971C242.68 89.19 242.36 88.3402 241.628 88.0326C241.041 87.7898 240.373 87.976 239.766 88.1621C238.374 88.5911 236.982 89.02 235.594 89.449C234.518 89.7848 233.389 90.1167 232.284 89.8901C232.211 89.8739 232.134 89.8577 232.061 89.8375C231.09 89.5461 230.236 88.672 230.293 87.6846H230.289C230.192 84.4594 232.227 81.2707 235.194 80C238.164 78.7293 241.879 79.4537 244.145 81.7563C244.91 82.5332 245.525 83.472 246.403 84.1236C247.75 85.1271 249.511 85.3173 251.121 85.7948C252.732 86.2723 254.431 87.3083 254.686 88.9674C254.889 90.2664 254.136 91.6058 254.5 92.8684C254.731 93.6777 255.378 94.2888 255.763 95.0374C256.479 96.4254 256.2 98.1574 255.443 99.5211C254.703 100.852 253.569 101.905 252.44 102.924C252.42 102.006 251.89 101.116 251.085 100.674Z" fill="black"/>
<path d="M219.144 295.255C219.282 295.255 219.412 295.275 219.537 295.311C219.865 295.404 220.144 295.619 220.33 295.906L221.637 297.982C222.119 298.747 222.964 299.212 223.871 299.212H226.76C227.606 299.212 228.399 298.808 228.897 298.12L230.56 295.829C230.718 295.611 230.936 295.445 231.179 295.352C231.341 295.287 231.515 295.255 231.693 295.255C232.466 295.255 233.093 295.882 233.093 296.655V305.124H201.266L202.808 302.64C203.848 300.968 205.637 299.904 207.603 299.795L210.812 299.613C212.771 299.5 214.624 298.694 216.045 297.347L217.829 295.643C218.088 295.396 218.436 295.255 218.796 295.255H219.144Z" fill="black"/>
<path d="M256.422 188.358C256.313 188.358 256.208 188.317 256.123 188.236C255.949 188.07 255.941 187.795 256.107 187.617L278.258 164.227C280.253 162.123 281.002 159.076 280.209 156.28L274.661 136.771C273.426 132.425 270.169 128.847 265.948 127.209L249.422 120.997C249.195 120.912 249.065 120.653 249.15 120.426C249.235 120.2 249.47 120.078 249.697 120.163L249.729 120.175L266.264 126.391C270.743 128.131 274.195 131.919 275.502 136.528L281.05 156.037C281.928 159.129 281.103 162.496 278.893 164.822L278.327 165.421L256.742 188.212C256.653 188.309 256.54 188.358 256.422 188.358Z" fill="black"/>
<path d="M249.13 181.195C249.013 181.195 248.9 181.151 248.815 181.062C248.661 180.9 248.653 180.649 248.794 180.479L265.301 157.826L259.729 141.655C259.652 141.429 259.773 141.178 260 141.101C260.23 141.02 260.477 141.141 260.554 141.372L266.203 157.757C266.248 157.89 266.227 158.04 266.142 158.157L249.486 181.017C249.47 181.037 249.454 181.058 249.434 181.078C249.349 181.155 249.24 181.195 249.13 181.195Z" fill="black"/>
<path d="M279.326 152.019H263.609C263.366 152.019 263.172 151.824 263.172 151.582C263.172 151.339 263.366 151.145 263.609 151.145H279.326C279.569 151.145 279.763 151.339 279.763 151.582C279.763 151.82 279.569 152.019 279.326 152.019Z" fill="black"/>
<path d="M174.275 149.801C174.081 149.801 173.903 149.667 173.85 149.469C173.793 149.235 173.935 148.996 174.17 148.939L199.469 142.63L213.572 128.888C214.899 127.601 216.437 126.606 218.141 125.934L232.086 120.175C232.308 120.082 232.567 120.188 232.656 120.41C232.749 120.633 232.644 120.888 232.421 120.981L232.045 121.138L218.465 126.747C216.862 127.378 215.421 128.309 214.179 129.515L199.991 143.339C199.935 143.391 199.866 143.432 199.793 143.448L174.38 149.785C174.348 149.797 174.311 149.801 174.275 149.801Z" fill="black"/>
<path d="M202.585 157.51H174.004C173.761 157.51 173.567 157.316 173.567 157.073C173.567 156.83 173.761 156.636 174.004 156.636H202.585C204.71 156.636 206.81 155.932 208.502 154.649L227.023 140.627C227.218 140.482 227.489 140.518 227.634 140.712C227.78 140.907 227.744 141.178 227.549 141.323L209.028 155.345C207.187 156.741 204.896 157.51 202.585 157.51Z" fill="black"/>
<path d="M238.245 165.563C238.079 165.563 237.921 165.466 237.848 165.308L225.66 138.454C225.558 138.236 225.655 137.977 225.878 137.876C226.101 137.774 226.356 137.876 226.457 138.094L238.645 164.948C238.746 165.166 238.649 165.425 238.427 165.526C238.37 165.551 238.305 165.563 238.245 165.563Z" fill="black"/>
<path d="M288.957 212.868H223.891C219.95 212.868 216.741 209.659 216.741 205.718V171.843C216.741 167.902 219.95 164.693 223.891 164.693H260.157C260.4 164.693 260.594 164.887 260.594 165.13C260.594 165.373 260.4 165.567 260.157 165.567H223.891C220.431 165.567 217.615 168.383 217.615 171.843V205.718C217.615 209.178 220.431 211.994 223.891 211.994H288.957C292.417 211.994 295.234 209.178 295.234 205.718V171.843C295.234 168.383 292.417 165.567 288.957 165.567H277.493C277.25 165.567 277.056 165.373 277.056 165.13C277.056 164.887 277.25 164.693 277.493 164.693H288.957C292.899 164.693 296.108 167.902 296.108 171.843V205.718C296.108 209.659 292.899 212.868 288.957 212.868Z" fill="black"/>
<path d="M277.493 293.43H261.392C261.157 293.43 260.963 293.243 260.955 293.009L258.049 212.448C258.041 212.205 258.227 212.003 258.47 211.994C258.709 211.986 258.915 212.173 258.923 212.415L261.812 292.556H277.06L278.088 212.427C278.092 212.189 278.286 211.994 278.525 211.994H278.529C278.772 211.999 278.962 212.197 278.962 212.436L277.93 292.997C277.926 293.235 277.732 293.43 277.493 293.43Z" fill="black"/>
<path d="M233.429 293.43H217.178C217.044 293.43 216.915 293.369 216.834 293.26C216.753 293.154 216.72 293.017 216.753 292.883L236.861 212.322C236.921 212.088 237.156 211.946 237.391 212.003C237.625 212.059 237.767 212.298 237.71 212.533L217.74 292.547H233.105L256.629 212.302C256.697 212.071 256.94 211.938 257.171 212.007C257.402 212.075 257.535 212.318 257.466 212.549L233.85 293.11C233.793 293.3 233.623 293.43 233.429 293.43Z" fill="black"/>
<path d="M233.089 305.561H201.262C201.104 305.561 200.959 305.476 200.882 305.339C200.805 305.201 200.809 305.031 200.894 304.894L202.436 302.409C203.548 300.616 205.475 299.475 207.579 299.358L210.788 299.176C212.637 299.071 214.402 298.306 215.745 297.027L217.53 295.323C217.874 294.996 218.327 294.813 218.8 294.813H219.148C219.322 294.813 219.5 294.838 219.666 294.89C220.091 295.012 220.459 295.291 220.702 295.667L222.009 297.743C222.414 298.387 223.114 298.771 223.875 298.771H226.764C227.468 298.771 228.132 298.431 228.545 297.861L230.212 295.57C230.414 295.287 230.698 295.068 231.025 294.939C231.232 294.854 231.458 294.809 231.697 294.809C232.709 294.809 233.534 295.635 233.534 296.647V305.116C233.526 305.367 233.332 305.561 233.089 305.561ZM202.047 304.687H232.652V296.655C232.652 296.125 232.219 295.692 231.689 295.692C231.568 295.692 231.45 295.712 231.345 295.756C231.167 295.825 231.017 295.943 230.916 296.088L229.249 298.379C228.674 299.176 227.743 299.649 226.76 299.649H223.871C222.807 299.649 221.835 299.111 221.265 298.213L219.958 296.137C219.832 295.943 219.638 295.793 219.411 295.728C219.322 295.7 219.233 295.688 219.14 295.688H218.792C218.545 295.688 218.307 295.781 218.129 295.955L216.344 297.658C214.847 299.083 212.892 299.928 210.832 300.046L207.623 300.228C205.802 300.329 204.139 301.316 203.172 302.87L202.047 304.687Z" fill="black"/>
<path d="M233.089 309.466H201.262C201.019 309.466 200.825 309.272 200.825 309.029V305.124C200.825 304.882 201.019 304.687 201.262 304.687C201.505 304.687 201.699 304.882 201.699 305.124V308.592H232.652V305.124C232.652 304.882 232.846 304.687 233.089 304.687C233.332 304.687 233.526 304.882 233.526 305.124V309.029C233.526 309.268 233.332 309.466 233.089 309.466Z" fill="black"/>
<path d="M219.557 295.692C219.318 295.692 219.12 295.497 219.12 295.259L219.108 292.992C219.108 292.75 219.302 292.555 219.541 292.551C219.776 292.539 219.978 292.746 219.982 292.988L219.994 295.25C219.994 295.493 219.8 295.692 219.557 295.692Z" fill="black"/>
<path d="M231.135 295.691H231.131C230.888 295.687 230.698 295.489 230.698 295.25L230.726 292.984C230.73 292.741 230.92 292.535 231.167 292.551C231.41 292.555 231.6 292.754 231.6 292.992L231.572 295.258C231.572 295.501 231.373 295.691 231.135 295.691Z" fill="black"/>
<path d="M214.701 150.938C214.564 150.938 214.43 150.873 214.345 150.756L205.001 137.754C204.86 137.56 204.904 137.285 205.102 137.143C205.301 137.001 205.572 137.046 205.713 137.244L215.057 150.246C215.199 150.44 215.154 150.716 214.956 150.857C214.879 150.914 214.79 150.938 214.701 150.938Z" fill="black"/>
<path d="M263.593 296.375C263.35 296.375 263.156 296.181 263.156 295.938V293.304C263.156 293.061 263.35 292.867 263.593 292.867C263.836 292.867 264.03 293.061 264.03 293.304V295.938C264.03 296.181 263.832 296.375 263.593 296.375Z" fill="black"/>
<path d="M274.507 296.651C274.264 296.651 274.07 296.456 274.07 296.214V293.304C274.07 293.061 274.264 292.867 274.507 292.867C274.75 292.867 274.944 293.061 274.944 293.304V296.214C274.944 296.452 274.75 296.651 274.507 296.651Z" fill="black"/>
<path d="M273.155 301.746C272.038 301.746 270.893 300.782 268.854 299.067L268.591 298.844C266.312 296.93 265.382 297.897 263.969 299.362C263.548 299.799 263.115 300.248 262.606 300.657C262.015 301.139 261.642 301.28 261.323 301.155C261.124 301.078 260.987 300.9 260.955 300.665C260.922 300.438 260.825 299.755 263.213 295.716C263.334 295.51 263.605 295.441 263.811 295.562C264.018 295.684 264.087 295.955 263.965 296.161C262.735 298.241 262.16 299.451 261.938 300.066C261.974 300.038 262.015 300.01 262.055 299.973C262.521 299.601 262.937 299.168 263.338 298.751C264.771 297.266 266.248 295.732 269.153 298.172L269.416 298.395C272.641 301.106 273.042 301.365 274.422 300.268C274.778 299.985 274.968 299.524 274.988 298.905C275.037 297.424 274.122 295.607 274.114 295.586C274.005 295.372 274.09 295.109 274.304 295C274.519 294.89 274.782 294.975 274.891 295.19C274.932 295.271 275.915 297.225 275.858 298.929C275.83 299.819 275.531 300.499 274.964 300.948C274.296 301.491 273.73 301.746 273.155 301.746ZM261.82 300.544H261.825H261.82Z" fill="black"/>
<path d="M259.931 326.038C258.818 326.038 257.758 325.795 256.787 325.301C254.69 324.237 253.395 322.137 253.48 319.943C253.509 319.195 253.772 318.066 254.29 316.496C255.524 312.744 257.96 307.261 259.741 303.255C260.21 302.203 260.635 301.244 260.987 300.43C261.242 299.856 261.456 299.358 261.618 298.953C261.707 298.731 261.962 298.621 262.189 298.71C262.411 298.799 262.521 299.054 262.432 299.281C262.266 299.694 262.047 300.2 261.788 300.782C261.436 301.592 261.007 302.555 260.538 303.611C258.765 307.597 256.337 313.056 255.119 316.767C254.634 318.24 254.375 319.316 254.35 319.976C254.278 321.829 255.386 323.61 257.179 324.52C259.777 325.835 263.136 325.103 266.401 322.501C273.034 317.216 275.575 308.625 275.818 307.767L275.118 298.957C275.098 298.714 275.28 298.504 275.519 298.488C275.765 298.468 275.972 298.65 275.988 298.889L276.696 307.775C276.7 307.824 276.696 307.872 276.684 307.921C276.583 308.309 274.126 317.467 266.948 323.185C264.584 325.066 262.152 326.038 259.931 326.038Z" fill="black"/>
<path d="M260.161 322.306C258.628 322.306 257.098 321.938 255.985 321.198C254.407 320.146 253.8 318.486 254.282 316.524C254.338 316.289 254.577 316.147 254.812 316.204C255.046 316.261 255.188 316.5 255.131 316.734C254.739 318.333 255.204 319.624 256.471 320.469C258.486 321.813 262.205 321.74 264.127 320.324C267.142 318.102 272.475 309.195 274.75 305.395C275.094 304.821 275.369 304.364 275.551 304.064C275.676 303.858 275.947 303.797 276.154 303.922C276.36 304.048 276.421 304.319 276.295 304.525C276.113 304.821 275.842 305.274 275.498 305.845C273.196 309.693 267.797 318.701 264.645 321.028C263.492 321.878 261.825 322.306 260.161 322.306Z" fill="black"/>
<path d="M241.757 186.662C241.612 186.662 241.466 186.589 241.385 186.456C240.863 185.614 240.713 184.283 241.009 183.146C241.223 182.308 241.644 181.697 242.223 181.373C243.299 180.766 244.578 180.871 245.707 180.96L245.856 180.973C246.909 181.058 248.086 181.054 248.839 180.418C249.021 180.26 249.3 180.285 249.454 180.471C249.612 180.657 249.588 180.932 249.401 181.086C248.406 181.928 247.014 181.944 245.784 181.847L245.634 181.835C244.582 181.75 243.489 181.665 242.647 182.138C242.287 182.34 242.004 182.777 241.854 183.368C241.62 184.279 241.733 185.359 242.13 186.003C242.255 186.209 242.194 186.476 241.988 186.606C241.915 186.642 241.838 186.662 241.757 186.662Z" fill="black"/>
<path d="M239.782 196.88C239.6 196.88 239.41 196.848 239.22 196.779C238.601 196.548 238.14 195.905 238.055 195.144C237.982 194.509 238.148 193.89 238.305 193.359C239.062 190.822 240.155 188.382 241.559 186.1C241.927 185.497 242.32 184.91 242.716 184.356C242.858 184.161 243.129 184.113 243.327 184.254C243.526 184.396 243.57 184.667 243.428 184.866C243.04 185.404 242.664 185.974 242.308 186.557C240.944 188.771 239.884 191.146 239.147 193.61C239.005 194.08 238.872 194.574 238.929 195.043C238.969 195.403 239.171 195.824 239.532 195.957C240.005 196.131 240.612 195.792 241.344 194.942L243.101 192.898C244.238 191.575 245.371 190.256 246.504 188.932C246.662 188.75 246.937 188.73 247.119 188.884C247.301 189.042 247.325 189.317 247.168 189.499C246.035 190.822 244.897 192.145 243.764 193.465L242.008 195.508C241.684 195.881 240.818 196.88 239.782 196.88Z" fill="black"/>
<path d="M245.023 195.055C245.019 195.055 245.015 195.055 245.011 195.055C244.472 195.047 243.918 194.804 243.562 194.412C243.267 194.092 243.125 193.695 243.153 193.295C243.169 193.056 243.384 192.87 243.623 192.89C243.865 192.906 244.043 193.117 244.027 193.359C244.011 193.558 244.116 193.72 244.209 193.817C244.408 194.031 244.727 194.173 245.023 194.177C245.63 194.201 246.233 193.813 246.751 193.469L246.828 193.416C248.466 192.324 250 191.053 251.392 189.633C251.562 189.459 251.837 189.459 252.011 189.624C252.185 189.794 252.185 190.07 252.015 190.244C250.583 191.708 249.001 193.016 247.321 194.136L247.273 194.169C247.269 194.173 247.232 194.197 247.228 194.201C246.605 194.614 245.869 195.055 245.023 195.055Z" fill="black"/>
<path d="M249.142 195.435C247.77 195.435 246.848 194.857 246.65 193.857C246.601 193.618 246.755 193.392 246.994 193.343C247.228 193.295 247.459 193.449 247.507 193.687C247.686 194.582 248.993 194.578 249.389 194.553C250.348 194.501 251.23 193.914 251.89 193.404C253.873 191.878 254.909 190.171 256.026 187.735C256.127 187.516 256.386 187.419 256.604 187.52C256.823 187.621 256.92 187.88 256.819 188.099C255.641 190.66 254.545 192.461 252.42 194.096C251.659 194.683 250.632 195.363 249.434 195.427C249.337 195.435 249.239 195.435 249.142 195.435Z" fill="black"/>
<path d="M282.726 188.358H278.25C275.976 188.358 274.126 186.508 274.126 184.234V179.759C274.126 177.484 275.976 175.635 278.25 175.635H282.726C285 175.635 286.849 177.484 286.849 179.759V184.234C286.849 186.508 285 188.358 282.726 188.358ZM278.254 176.513C276.461 176.513 275.009 177.97 275.009 179.763V184.238C275.009 186.031 276.465 187.488 278.254 187.488H282.73C284.522 187.488 285.979 186.031 285.979 184.238V179.763C285.979 177.97 284.522 176.513 282.73 176.513H278.254Z" fill="black"/>
<path d="M282.673 183.243C282.56 183.243 282.45 183.198 282.365 183.113L279.561 180.309C279.48 180.228 279.432 180.115 279.432 180.001V176.076C279.432 175.833 279.626 175.639 279.869 175.639C280.111 175.639 280.306 175.833 280.306 176.076V179.819L282.981 182.498C283.151 182.668 283.151 182.947 282.981 183.117C282.896 183.198 282.786 183.243 282.673 183.243Z" fill="black"/>
<path d="M282.374 186.148C282.26 186.148 282.151 186.104 282.062 186.019L278.756 182.709H274.806C274.564 182.709 274.369 182.514 274.369 182.272C274.369 182.029 274.564 181.835 274.806 181.835H278.938C279.055 181.835 279.165 181.879 279.25 181.964L282.681 185.4C282.851 185.57 282.851 185.849 282.681 186.019C282.596 186.104 282.483 186.148 282.374 186.148Z" fill="black"/>
<path d="M285.008 204.71H272.059C270.938 204.71 270.023 203.796 270.023 202.675C270.023 202.128 270.233 201.619 270.618 201.234C270.998 200.85 271.512 200.635 272.059 200.635H285.008C286.129 200.635 287.043 201.55 287.043 202.675C287.043 203.221 286.833 203.731 286.448 204.115C286.064 204.496 285.554 204.71 285.008 204.71ZM272.059 201.505C271.747 201.505 271.456 201.627 271.237 201.845C271.019 202.068 270.897 202.359 270.897 202.671C270.897 203.31 271.419 203.832 272.059 203.832H285.008C285.319 203.832 285.611 203.711 285.829 203.492C286.048 203.274 286.169 202.982 286.169 202.671C286.169 202.027 285.647 201.505 285.008 201.505H272.059Z" fill="black"/>
<path d="M263.516 204.71H250.575C249.45 204.71 248.535 203.796 248.535 202.675C248.535 202.124 248.75 201.615 249.138 201.23C249.515 200.846 250.028 200.635 250.579 200.635H263.52C264.641 200.635 265.556 201.55 265.556 202.675C265.556 203.221 265.345 203.731 264.961 204.115C264.576 204.496 264.062 204.71 263.516 204.71ZM250.575 201.505C250.263 201.505 249.972 201.627 249.753 201.845C249.531 202.068 249.409 202.359 249.409 202.671C249.409 203.31 249.931 203.832 250.575 203.832H263.516C263.828 203.832 264.119 203.711 264.338 203.492C264.556 203.274 264.677 202.982 264.677 202.671C264.677 202.027 264.155 201.505 263.516 201.505H250.575Z" fill="black"/>
<path d="M242.024 204.71H229.083C227.958 204.71 227.043 203.796 227.043 202.675C227.043 202.125 227.258 201.615 227.642 201.23C228.023 200.846 228.533 200.631 229.083 200.631H242.024C243.149 200.631 244.064 201.546 244.064 202.671C244.064 203.213 243.849 203.727 243.465 204.112C243.084 204.496 242.571 204.71 242.024 204.71ZM229.083 201.506C228.771 201.506 228.48 201.627 228.262 201.845C228.039 202.068 227.918 202.359 227.918 202.671C227.918 203.31 228.44 203.832 229.083 203.832H242.024C242.336 203.832 242.627 203.711 242.846 203.492C243.068 203.27 243.19 202.979 243.19 202.671C243.19 202.028 242.668 201.506 242.024 201.506H229.083Z" fill="black"/>
<path d="M238.884 128.762C238.398 128.762 237.921 128.714 237.452 128.621C233.988 127.901 231.471 124.21 232.053 120.718C232.057 120.677 232.065 120.645 232.069 120.617C232.126 120.382 232.361 120.236 232.596 120.289C232.83 120.341 232.976 120.572 232.923 120.807C232.923 120.819 232.919 120.831 232.919 120.843C232.405 123.846 234.651 127.144 237.63 127.767C239.75 128.204 242.178 127.492 244.29 125.808C246.233 124.263 247.69 122.154 248.976 120.297L249.017 120.244C249.033 120.224 249.049 120.2 249.065 120.179C249.195 119.977 249.466 119.916 249.668 120.046C249.871 120.175 249.931 120.447 249.802 120.649C249.778 120.689 249.749 120.726 249.721 120.766L249.693 120.803C248.102 123.105 246.735 124.991 244.837 126.496C242.975 127.969 240.871 128.762 238.884 128.762ZM232.591 120.734H232.6L232.494 120.71L232.591 120.734Z" fill="black"/>
<path d="M157.416 154.536C157.376 154.536 157.336 154.536 157.295 154.532C157.093 154.52 156.907 154.471 156.733 154.394C155.956 154.026 155.725 153.075 155.903 152.367C156.089 151.655 156.603 151.108 157.032 150.716C158.885 149 161.378 147.839 164.446 147.26C167.157 146.75 171.62 147.754 174.449 148.96C174.671 149.053 174.773 149.312 174.68 149.534C174.586 149.757 174.327 149.862 174.105 149.765C171.398 148.612 167.149 147.64 164.607 148.118C161.706 148.664 159.355 149.753 157.627 151.355C157.287 151.671 156.882 152.092 156.753 152.581C156.66 152.945 156.769 153.439 157.109 153.601C157.178 153.633 157.259 153.654 157.352 153.658C157.643 153.678 157.999 153.553 158.303 153.435C158.57 153.334 158.954 153.14 159.395 152.913C161.884 151.651 166.513 149.308 170.714 152.48C170.908 152.626 170.944 152.901 170.799 153.091C170.653 153.285 170.378 153.322 170.188 153.176C166.42 150.331 162.107 152.517 159.792 153.69C159.306 153.937 158.926 154.127 158.614 154.249C158.262 154.39 157.845 154.536 157.416 154.536Z" fill="black"/>
<path d="M170.119 157.975C168.16 157.975 166.202 157.546 164.433 156.701L164.34 156.656C164.255 156.616 164.17 156.571 164.089 156.527C163.644 156.28 163.329 156.033 163.098 155.746C162.932 155.543 162.803 155.296 162.73 155.033C162.616 154.649 162.637 154.252 162.79 153.921C163.037 153.378 163.628 153.002 164.328 152.937C164.818 152.889 165.283 152.982 165.732 153.071L165.886 153.099C167.776 153.451 169.184 153.249 170.192 152.484C170.354 152.359 170.503 152.225 170.641 152.075C170.807 151.897 171.082 151.889 171.26 152.051C171.438 152.217 171.446 152.492 171.284 152.67C171.11 152.856 170.928 153.022 170.726 153.18C169.512 154.107 167.877 154.362 165.728 153.961L165.566 153.929C165.158 153.848 164.773 153.775 164.409 153.807C164.118 153.836 163.725 153.977 163.584 154.285C163.519 154.426 163.515 154.604 163.567 154.791C163.612 154.94 163.681 155.082 163.774 155.195C163.932 155.394 164.166 155.572 164.506 155.758C164.575 155.794 164.652 155.835 164.729 155.871L164.818 155.916C167.59 157.243 170.88 157.465 173.83 156.531C173.943 156.498 174.036 156.47 174.129 156.438C174.356 156.353 174.607 156.474 174.688 156.701C174.769 156.927 174.651 157.178 174.425 157.259C174.311 157.3 174.194 157.336 174.077 157.368C172.798 157.773 171.458 157.975 170.119 157.975Z" fill="black"/>
<path d="M158.768 156.834C158.598 156.834 158.432 156.822 158.274 156.794C157.619 156.689 157.052 156.32 156.769 155.815C156.474 155.301 156.498 154.669 156.793 154.208C156.818 154.087 156.895 153.981 157.016 153.921L157.113 153.872C157.307 153.763 157.554 153.82 157.684 154.006C157.813 154.188 157.781 154.439 157.611 154.588C157.417 154.758 157.38 155.119 157.53 155.382C157.684 155.657 158.024 155.867 158.42 155.932C158.687 155.976 158.987 155.968 159.314 155.904C159.452 155.883 159.578 155.855 159.695 155.827C160.642 155.596 161.536 155.212 162.349 154.682C162.552 154.548 162.823 154.609 162.956 154.811C163.09 155.013 163.029 155.284 162.827 155.418C161.929 156.005 160.945 156.426 159.901 156.681C159.76 156.717 159.61 156.749 159.46 156.77C159.221 156.814 158.991 156.834 158.768 156.834Z" fill="black"/>
<path d="M160.682 158.206C160.294 158.206 159.938 158.109 159.642 157.919C159.116 157.579 158.853 156.956 158.999 156.397C159.059 156.163 159.298 156.021 159.533 156.086C159.768 156.146 159.905 156.385 159.845 156.62C159.796 156.806 159.913 157.053 160.112 157.182C160.33 157.32 160.634 157.364 160.974 157.3C161.301 157.239 161.621 157.093 162.005 156.911C162.612 156.624 163.228 156.341 163.839 156.053C164.057 155.952 164.316 156.045 164.421 156.264C164.522 156.482 164.429 156.741 164.211 156.846C163.6 157.13 162.989 157.417 162.382 157.7C162.034 157.862 161.601 158.069 161.135 158.158C160.982 158.19 160.828 158.206 160.682 158.206Z" fill="black"/>
<path d="M231.94 121.325C231.734 121.325 231.547 121.175 231.511 120.965C231.467 120.726 231.624 120.499 231.863 120.455C232.033 120.422 232.203 120.386 232.373 120.337C233.826 119.961 235.141 119.115 236.08 117.95C237.14 116.627 237.35 115.421 236.832 113.644C236.764 113.413 236.897 113.171 237.128 113.102C237.358 113.033 237.601 113.167 237.67 113.397C238.273 115.457 238.01 116.934 236.76 118.496C235.699 119.807 234.222 120.762 232.596 121.183C232.405 121.236 232.215 121.28 232.021 121.313C231.993 121.325 231.968 121.325 231.94 121.325Z" fill="black"/>
<path d="M249.672 121.215C249.6 121.215 249.531 121.199 249.462 121.163C249.409 121.135 249.353 121.098 249.3 121.066L249.231 121.017C249.167 120.969 249.102 120.924 249.041 120.867C246.536 118.808 245.755 111.758 248.479 105.421C248.576 105.199 248.835 105.098 249.053 105.191C249.276 105.288 249.377 105.543 249.284 105.765C246.536 112.155 247.641 118.581 249.612 120.2C249.664 120.248 249.709 120.281 249.753 120.313L249.798 120.345C249.806 120.349 249.847 120.374 249.883 120.394C250.093 120.511 250.174 120.774 250.057 120.989C249.976 121.135 249.826 121.215 249.672 121.215Z" fill="black"/>
<path d="M238.224 113.964C237.881 113.964 237.537 113.944 237.201 113.899C236.42 113.814 235.659 113.604 234.939 113.288C231.131 111.605 229.459 107.461 229.168 104.147C228.852 100.505 230.556 93.6011 231.6 89.8094C231.665 89.5747 231.904 89.4411 232.138 89.5059C232.373 89.5706 232.507 89.8094 232.442 90.0441C231.612 93.0507 229.722 100.436 230.038 104.074C230.378 107.926 232.438 111.232 235.291 112.491C235.926 112.774 236.602 112.956 237.302 113.033C237.889 113.11 238.483 113.114 239.086 113.041C239.321 113.013 239.544 113.183 239.572 113.426C239.6 113.664 239.43 113.883 239.188 113.911C238.868 113.948 238.544 113.964 238.224 113.964Z" fill="black"/>
<path d="M249.83 106.032C249.486 106.032 249.142 105.976 248.811 105.866C248.454 105.741 248.147 105.575 247.888 105.36C247.702 105.207 247.673 104.932 247.827 104.745C247.981 104.559 248.256 104.531 248.442 104.685C248.62 104.83 248.839 104.952 249.094 105.041C249.632 105.223 250.227 105.199 250.725 104.972C251.461 104.636 251.979 103.871 252.007 103.066V102.993C252.007 102.985 252.003 102.945 252.003 102.937C251.987 102.164 251.542 101.427 250.874 101.063C250.591 100.905 250.284 100.836 250.016 100.869C249.883 100.885 249.77 100.921 249.681 100.982C249.478 101.116 249.207 101.059 249.074 100.857C248.94 100.654 248.997 100.383 249.199 100.25C249.409 100.112 249.648 100.027 249.911 99.9986C250.348 99.942 250.858 100.047 251.295 100.294C252.222 100.804 252.841 101.82 252.873 102.888C252.882 102.941 252.882 102.993 252.877 103.05C252.877 103.054 252.877 103.094 252.877 103.098C252.833 104.227 252.113 105.3 251.081 105.769C250.696 105.943 250.267 106.032 249.83 106.032Z" fill="black"/>
<path d="M249.972 100.646C249.883 100.646 249.798 100.622 249.721 100.565C248.685 99.8287 248.082 98.5338 248.191 97.2672C248.212 97.0122 248.26 96.7654 248.305 96.5266C248.386 96.0977 248.463 95.689 248.373 95.3288C248.159 94.5033 247.091 94.1067 246.237 93.9165L245.994 93.8639C244.978 93.6454 243.829 93.3985 243.141 92.4921C242.68 91.8851 242.562 91.1567 242.453 90.4526C242.433 90.319 242.409 90.1814 242.388 90.0519C242.283 89.449 242.036 88.6801 241.462 88.4414C241.029 88.2633 240.495 88.4009 239.896 88.583C238.504 89.012 237.112 89.4409 235.724 89.8698C234.708 90.1855 233.445 90.578 232.199 90.3231C232.102 90.3028 232.025 90.2826 231.948 90.2624C230.851 89.9305 229.787 88.9351 229.86 87.6644C229.86 87.6361 229.864 87.5794 229.868 87.5228C229.892 87.284 230.099 87.106 230.346 87.1262C230.584 87.1505 230.762 87.3609 230.742 87.6037C230.738 87.6361 230.734 87.6644 230.734 87.6927C230.685 88.5263 231.45 89.2021 232.191 89.4247C232.248 89.4409 232.308 89.453 232.373 89.4692C233.401 89.6837 234.497 89.3397 235.469 89.0403C236.857 88.6154 238.249 88.1864 239.641 87.7534C240.199 87.5835 241.041 87.3245 241.802 87.6401C242.546 87.9517 243.052 88.7368 243.254 89.9063C243.279 90.0438 243.303 90.1814 243.323 90.3231C243.42 90.9463 243.513 91.5371 243.845 91.9701C244.335 92.6175 245.274 92.8199 246.184 93.0141L246.431 93.0667C248.001 93.4107 248.968 94.1188 249.227 95.1143C249.369 95.6647 249.268 96.1907 249.171 96.6966C249.126 96.9232 249.086 97.1377 249.07 97.3481C248.989 98.2991 249.454 99.3067 250.231 99.8611C250.429 100.003 250.474 100.274 250.336 100.472C250.243 100.581 250.105 100.646 249.972 100.646Z" fill="black"/>
<path d="M252.355 103.426C252.242 103.426 252.133 103.386 252.052 103.305C251.882 103.135 251.87 102.868 252.04 102.698C252.06 102.678 252.084 102.653 252.109 102.633C252.113 102.629 252.141 102.605 252.145 102.597C253.116 101.718 254.326 100.622 255.059 99.3026C255.662 98.2141 256.062 96.5752 255.37 95.2317C255.233 94.9646 255.055 94.7137 254.868 94.4466C254.557 94.0055 254.237 93.5483 254.075 92.9858C253.853 92.2129 253.99 91.444 254.124 90.7034C254.229 90.1167 254.33 89.5623 254.249 89.0322C253.97 87.2314 251.684 86.418 250.992 86.2116C250.579 86.0902 250.146 85.981 249.725 85.8798C248.487 85.5763 247.204 85.2647 246.14 84.4716C245.537 84.0264 245.059 83.464 244.598 82.9177C244.339 82.6142 244.096 82.3268 243.829 82.0598C241.672 79.8705 238.188 79.1866 235.359 80.4006C232.579 81.5903 230.629 84.6456 230.722 87.6684C230.73 87.9112 230.54 88.1095 230.297 88.1176C230.293 88.1176 230.289 88.1176 230.285 88.1176C230.05 88.1176 229.856 87.9315 229.848 87.6927C229.743 84.2692 231.867 80.9388 235.015 79.5913C238.168 78.2397 242.049 79.0045 244.452 81.4406C244.74 81.732 245.007 82.0436 245.262 82.3471C245.711 82.8772 246.14 83.3749 246.662 83.7634C247.584 84.4513 248.726 84.7306 249.936 85.026C250.364 85.1312 250.814 85.2404 251.247 85.3699C252.295 85.6815 254.771 86.6487 255.119 88.8946C255.225 89.5663 255.107 90.2219 254.99 90.8532C254.868 91.5249 254.755 92.1602 254.921 92.7389C255.042 93.1598 255.305 93.5402 255.589 93.9408C255.787 94.22 255.989 94.5114 256.155 94.8311C256.876 96.2312 256.754 98.0603 255.832 99.7235C255.026 101.168 253.76 102.317 252.74 103.24C252.732 103.248 252.712 103.268 252.687 103.289C252.594 103.382 252.477 103.426 252.355 103.426Z" fill="black"/>
<path d="M140 309.462H117.197C117.075 309.462 116.958 309.41 116.873 309.321C116.792 309.232 116.748 309.11 116.76 308.989L122.263 244.198C122.283 243.971 122.474 243.797 122.7 243.797H140.392C140.51 243.797 140.619 243.842 140.704 243.927C140.785 244.008 140.833 244.121 140.829 244.238L140.437 309.029C140.437 309.268 140.242 309.462 140 309.462ZM117.678 308.588H139.567L139.955 244.671H123.105L117.678 308.588Z" fill="black"/>
<path d="M171.325 309.462H140C139.882 309.462 139.773 309.418 139.688 309.333C139.607 309.252 139.558 309.139 139.562 309.021L139.955 244.23C139.955 243.991 140.153 243.797 140.392 243.797H161.495C161.71 243.797 161.896 243.955 161.928 244.169L171.758 308.961C171.778 309.086 171.742 309.216 171.657 309.313C171.576 309.41 171.454 309.462 171.325 309.462ZM140.441 308.588H170.815L161.119 244.671H140.825L140.441 308.588Z" fill="black"/>
<path d="M117.201 309.462C117.043 309.462 116.893 309.377 116.816 309.232C116.703 309.017 116.784 308.754 116.994 308.641L128.373 302.543L130.919 244.214C130.931 243.971 131.15 243.793 131.376 243.797C131.619 243.809 131.805 244.012 131.793 244.254L129.239 302.83C129.231 302.984 129.146 303.121 129.009 303.198L117.411 309.414C117.342 309.446 117.269 309.462 117.201 309.462Z" fill="black"/>
<path d="M140 309.462C139.927 309.462 139.854 309.446 139.789 309.406L128.584 303.19C128.374 303.073 128.297 302.806 128.414 302.595C128.531 302.385 128.798 302.308 129.009 302.425L140.214 308.641C140.425 308.758 140.501 309.025 140.384 309.236C140.303 309.382 140.153 309.462 140 309.462Z" fill="black"/>
<path d="M152.366 277.069C148.85 277.069 145.989 274.208 145.989 270.691V251.987C145.989 251.745 146.183 251.55 146.426 251.55C146.669 251.55 146.863 251.745 146.863 251.987V270.691C146.863 273.726 149.331 276.191 152.366 276.191C155.401 276.191 157.866 273.722 157.866 270.691V251.987C157.866 251.745 158.06 251.55 158.303 251.55C158.546 251.55 158.74 251.745 158.74 251.987V270.691C158.744 274.208 155.883 277.069 152.366 277.069Z" fill="black"/>
<path d="M146.43 254.355C145.26 254.355 144.305 253.295 144.305 251.992C144.305 250.689 145.26 249.624 146.43 249.624C147.599 249.624 148.554 250.684 148.554 251.992C148.554 253.295 147.599 254.355 146.43 254.355ZM146.43 250.498C145.742 250.498 145.179 251.166 145.179 251.988C145.179 252.809 145.742 253.477 146.43 253.477C147.118 253.477 147.68 252.809 147.68 251.988C147.68 251.166 147.118 250.498 146.43 250.498Z" fill="#F67952"/>
<path d="M158.307 254.355C157.239 254.355 156.373 253.295 156.373 251.992C156.373 250.689 157.239 249.624 158.307 249.624C159.375 249.624 160.241 250.684 160.241 251.992C160.241 253.295 159.375 254.355 158.307 254.355ZM158.307 250.498C157.732 250.498 157.247 251.182 157.247 251.988C157.247 252.797 157.732 253.477 158.307 253.477C158.881 253.477 159.367 252.793 159.367 251.988C159.367 251.182 158.881 250.498 158.307 250.498Z" fill="#F67952"/>
<path d="M207.571 293.43H174.623C174.38 293.43 174.186 293.235 174.186 292.992C174.186 292.75 174.38 292.555 174.623 292.555H207.571C207.814 292.555 208.008 292.75 208.008 292.992C208.008 293.235 207.814 293.43 207.571 293.43Z" fill="black"/>
<path d="M223.373 251.393C223.13 251.393 222.936 251.198 222.936 250.956V219.557C222.936 219.315 223.13 219.12 223.373 219.12C223.616 219.12 223.81 219.315 223.81 219.557V250.956C223.81 251.198 223.616 251.393 223.373 251.393Z" fill="black"/>
<path d="M223.373 118.949C223.13 118.949 222.936 118.755 222.936 118.512V40.2615C222.936 33.6128 217.526 28.2024 210.877 28.2024H105.736C99.0877 28.2024 93.6773 33.6128 93.6773 40.2615V101.504C93.6773 101.747 93.4831 101.941 93.2403 101.941C92.9975 101.941 92.8032 101.747 92.8032 101.504V40.2615C92.8032 33.1313 98.6062 27.3284 105.736 27.3284H210.877C218.007 27.3284 223.81 33.1313 223.81 40.2615V118.512C223.81 118.755 223.616 118.949 223.373 118.949Z" fill="black"/>
<path d="M93.2403 214.73C92.9975 214.73 92.8032 214.536 92.8032 214.293V133.938C92.8032 133.695 92.9975 133.501 93.2403 133.501C93.4831 133.501 93.6773 133.695 93.6773 133.938V214.293C93.6773 214.532 93.479 214.73 93.2403 214.73Z" fill="black"/>
<path d="M115.202 293.429H105.732C98.6021 293.429 92.7992 287.626 92.7992 280.496V265.932C92.7992 265.689 92.9934 265.495 93.2362 265.495C93.479 265.495 93.6733 265.689 93.6733 265.932V280.496C93.6733 287.145 99.0837 292.555 105.732 292.555H115.202C115.444 292.555 115.639 292.749 115.639 292.992C115.643 293.235 115.444 293.429 115.202 293.429Z" fill="black"/>
<path d="M207.571 285.579H173.247C173.004 285.579 172.81 285.385 172.81 285.142C172.81 284.899 173.004 284.705 173.247 284.705H207.571C207.814 284.705 208.008 284.899 208.008 285.142C208.008 285.385 207.814 285.579 207.571 285.579Z" fill="black"/>
<path d="M215.527 258.624C215.284 258.624 215.09 258.43 215.09 258.187V219.145C215.09 218.902 215.284 218.708 215.527 218.708C215.769 218.708 215.964 218.902 215.964 219.145V258.187C215.964 258.426 215.765 258.624 215.527 258.624Z" fill="black"/>
<path d="M215.527 121.017C215.284 121.017 215.09 120.823 215.09 120.58V40.2616C215.09 37.9388 213.2 36.0531 210.881 36.0531H186.811C183.08 36.0531 179.548 38.0319 177.597 41.2166C175.489 44.6563 171.673 46.797 167.638 46.797H148.975C144.941 46.797 141.125 44.6603 139.016 41.2166C137.066 38.0319 133.537 36.0531 129.802 36.0531H105.736C103.414 36.0531 101.528 37.9428 101.528 40.2616V97.5827C101.528 97.8255 101.334 98.0197 101.091 98.0197C100.848 98.0197 100.654 97.8255 100.654 97.5827V40.2616C100.654 37.4572 102.936 35.1749 105.74 35.1749H129.806C133.841 35.1749 137.657 37.3116 139.765 40.7553C141.715 43.94 145.244 45.9188 148.979 45.9188H167.642C171.377 45.9188 174.906 43.94 176.857 40.7553C178.965 37.3116 182.781 35.1749 186.816 35.1749H210.885C213.689 35.1749 215.972 37.4572 215.972 40.2616V120.58C215.964 120.823 215.765 121.017 215.527 121.017Z" fill="black"/>
<path d="M101.087 221.132C100.844 221.132 100.65 220.937 100.65 220.695V132.558C100.65 132.315 100.844 132.121 101.087 132.121C101.329 132.121 101.524 132.315 101.524 132.558V220.691C101.524 220.937 101.329 221.132 101.087 221.132Z" fill="black"/>
<path d="M115.756 285.579H105.736C102.932 285.579 100.65 283.296 100.65 280.492V260.971C100.65 260.728 100.844 260.534 101.087 260.534C101.329 260.534 101.524 260.728 101.524 260.971V280.492C101.524 282.815 103.414 284.701 105.732 284.701H115.752C115.995 284.701 116.189 284.895 116.189 285.138C116.193 285.385 115.995 285.579 115.756 285.579Z" fill="black"/>
<path d="M158.307 41.0062C156.279 41.0062 154.632 39.3592 154.632 37.3318C154.632 35.3045 156.279 33.6575 158.307 33.6575C160.334 33.6575 161.981 35.3045 161.981 37.3318C161.981 39.3592 160.33 41.0062 158.307 41.0062ZM158.307 34.5356C156.765 34.5356 155.506 35.7901 155.506 37.3359C155.506 38.8777 156.761 40.1362 158.307 40.1362C159.848 40.1362 161.107 38.8817 161.107 37.3359C161.107 35.7901 159.848 34.5356 158.307 34.5356Z" fill="black"/>
<path d="M195.981 203.662H120.632C116.225 203.662 112.636 200.077 112.636 195.666V127.176C112.636 122.769 116.221 119.18 120.632 119.18H195.981C200.388 119.18 203.977 122.765 203.977 127.176V133.938C203.977 134.181 203.783 134.375 203.54 134.375C203.298 134.375 203.103 134.181 203.103 133.938V127.176C203.103 123.251 199.911 120.054 195.981 120.054H120.632C116.707 120.054 113.514 123.247 113.514 127.176V195.67C113.514 199.595 116.707 202.788 120.632 202.788H195.981C199.906 202.788 203.103 199.595 203.103 195.67V161.423C203.103 161.18 203.298 160.986 203.54 160.986C203.783 160.986 203.977 161.18 203.977 161.423V195.67C203.977 200.077 200.392 203.662 195.981 203.662Z" fill="black"/>
<path d="M195.981 102.224H120.632C120.394 102.224 120.151 102.212 119.916 102.192C119.677 102.172 119.499 101.957 119.52 101.718C119.54 101.48 119.754 101.302 119.993 101.322C120.203 101.342 120.418 101.35 120.632 101.35H195.981C199.907 101.35 203.103 98.1574 203.103 94.228V75.3099C203.103 71.3846 199.911 68.1918 195.981 68.1918H129.389C129.147 68.1918 128.952 67.9975 128.952 67.7547C128.952 67.5119 129.147 67.3177 129.389 67.3177H195.981C200.388 67.3177 203.978 70.903 203.978 75.3139V94.2321C203.978 98.6389 200.392 102.224 195.981 102.224Z" fill="black"/>
<path d="M159.792 80.6392H133.586C133.343 80.6392 133.149 80.445 133.149 80.2022C133.149 79.9594 133.343 79.7651 133.586 79.7651H159.792C160.035 79.7651 160.229 79.9594 160.229 80.2022C160.229 80.445 160.035 80.6392 159.792 80.6392Z" fill="black"/>
<path d="M159.792 84.7709H133.586C133.343 84.7709 133.149 84.5767 133.149 84.3339C133.149 84.0911 133.343 83.8969 133.586 83.8969H159.792C160.035 83.8969 160.229 84.0911 160.229 84.3339C160.229 84.5727 160.035 84.7709 159.792 84.7709Z" fill="black"/>
<path d="M159.792 88.9025H133.586C133.343 88.9025 133.149 88.7082 133.149 88.4654C133.149 88.2226 133.343 88.0284 133.586 88.0284H159.792C160.035 88.0284 160.229 88.2226 160.229 88.4654C160.229 88.7042 160.035 88.9025 159.792 88.9025Z" fill="black"/>
<path d="M150.663 177.063H126.949C126.706 177.063 126.512 176.869 126.512 176.626C126.512 176.383 126.706 176.189 126.949 176.189H150.663C150.905 176.189 151.1 176.383 151.1 176.626C151.1 176.869 150.905 177.063 150.663 177.063Z" fill="black"/>
<path d="M150.663 181.195H126.949C126.706 181.195 126.512 181.001 126.512 180.758C126.512 180.515 126.706 180.321 126.949 180.321H150.663C150.905 180.321 151.1 180.515 151.1 180.758C151.1 181.001 150.905 181.195 150.663 181.195Z" fill="black"/>
<path d="M150.663 185.327H126.949C126.706 185.327 126.512 185.132 126.512 184.89C126.512 184.647 126.706 184.453 126.949 184.453H150.663C150.905 184.453 151.1 184.647 151.1 184.89C151.1 185.132 150.905 185.327 150.663 185.327Z" fill="black"/>
<path d="M185.536 85.5744C186.213 82.0607 183.913 78.6638 180.399 77.9872C176.885 77.3106 173.488 79.6105 172.812 83.1242C172.135 86.6379 174.435 90.0348 177.949 90.7114C181.462 91.388 184.859 89.0881 185.536 85.5744Z" fill="#F67952"/>
<path d="M179.167 91.278C175.355 91.278 172.251 88.1742 172.251 84.3622C172.251 80.5503 175.355 77.4465 179.167 77.4465C182.979 77.4465 186.083 80.5503 186.083 84.3622C186.083 88.1742 182.983 91.278 179.167 91.278ZM179.167 78.3205C175.837 78.3205 173.13 81.0318 173.13 84.3582C173.13 87.6845 175.841 90.3999 179.167 90.3999C182.498 90.3999 185.209 87.6886 185.209 84.3582C185.209 81.0278 182.498 78.3205 179.167 78.3205Z" fill="black"/>
<path d="M290.087 98.1452C289.985 98.1452 289.888 98.1128 289.803 98.0441C289.617 97.8862 289.597 97.6111 289.751 97.429C290.944 96.0167 292.041 94.4789 293.012 92.8643C293.138 92.6579 293.405 92.5891 293.611 92.7146C293.818 92.84 293.886 93.1071 293.761 93.3135C292.765 94.9686 291.645 96.5387 290.418 97.9914C290.337 98.0926 290.212 98.1452 290.087 98.1452ZM295.594 89.2506C295.537 89.2506 295.477 89.2385 295.42 89.2142C295.198 89.1171 295.096 88.8581 295.193 88.6396C295.938 86.9319 296.561 85.1514 297.047 83.3385C297.112 83.1038 297.35 82.9662 297.581 83.0309C297.816 83.0956 297.953 83.3344 297.889 83.5651C297.391 85.4184 296.751 87.2435 295.991 88.9876C295.922 89.1535 295.76 89.2506 295.594 89.2506ZM298.427 79.1785C298.407 79.1785 298.386 79.1785 298.366 79.1744C298.127 79.1421 297.961 78.9195 297.994 78.6807C298.237 76.9447 298.358 75.1804 298.358 73.4363L298.354 73.0801C298.35 72.8373 298.544 72.6391 298.787 72.6391H298.791C299.03 72.6391 299.224 72.8333 299.228 73.072L299.232 73.4363C299.232 75.2208 299.107 77.0297 298.86 78.8062C298.831 79.0207 298.641 79.1785 298.427 79.1785ZM298.439 68.7178C298.224 68.7178 298.038 68.56 298.006 68.3415C297.747 66.476 297.338 64.6307 296.792 62.8663C296.719 62.6357 296.849 62.3888 297.083 62.32C297.314 62.2472 297.557 62.3807 297.63 62.6074C298.188 64.4203 298.605 66.306 298.872 68.2201C298.904 68.4588 298.738 68.6814 298.5 68.7138C298.479 68.7138 298.459 68.7178 298.439 68.7178ZM295.485 58.6861C295.319 58.6861 295.161 58.5931 295.088 58.4352C294.307 56.7559 293.377 55.1129 292.324 53.5509C292.191 53.3486 292.243 53.0774 292.442 52.9439C292.64 52.8104 292.915 52.863 293.049 53.0613C294.125 54.6637 295.076 56.3431 295.877 58.063C295.979 58.2815 295.885 58.5405 295.667 58.6457C295.61 58.674 295.546 58.6861 295.485 58.6861ZM289.759 49.9332C289.637 49.9332 289.516 49.8806 289.431 49.7835C288.201 48.3793 286.857 47.052 285.433 45.838C285.251 45.6801 285.227 45.405 285.384 45.2229C285.542 45.0408 285.817 45.0165 285.999 45.1743C287.456 46.4126 288.832 47.7723 290.087 49.2088C290.244 49.3909 290.228 49.6661 290.046 49.828C289.961 49.8968 289.86 49.9332 289.759 49.9332ZM264.714 47.9422C262.513 47.9422 260.619 47.3393 259.372 46.2467C259.19 46.0889 259.174 45.8096 259.332 45.6275C259.49 45.4454 259.769 45.4292 259.947 45.5871C261.08 46.5826 262.881 47.1127 264.977 47.0641C265.224 47.0439 265.418 47.2502 265.426 47.489C265.43 47.7318 265.24 47.9301 265.001 47.9382C264.904 47.9382 264.811 47.9422 264.714 47.9422ZM269.639 46.8375C269.477 46.8375 269.323 46.7485 269.246 46.5947C269.141 46.3802 269.23 46.1172 269.445 46.0079C269.53 45.9675 269.61 45.9229 269.691 45.8825C271.225 45.065 272.649 44.021 273.928 42.7827C274.102 42.6168 274.377 42.6168 274.547 42.7908C274.713 42.9648 274.709 43.24 274.535 43.41C273.196 44.7049 271.703 45.7975 270.1 46.6554C270.011 46.7039 269.918 46.7485 269.829 46.797C269.768 46.8213 269.704 46.8375 269.639 46.8375ZM281.868 43.0579C281.787 43.0579 281.702 43.0336 281.629 42.9851C280.059 41.9532 278.408 41.0386 276.716 40.2657C276.498 40.1645 276.401 39.9055 276.502 39.687C276.567 39.5454 276.7 39.4564 276.842 39.4361C276.83 39.335 276.85 39.2338 276.907 39.1407C277.902 37.607 278.724 35.9196 279.343 34.135C279.424 33.9084 279.67 33.787 279.901 33.8639C280.128 33.9448 280.249 34.1916 280.172 34.4223C279.529 36.2757 278.679 38.0198 277.643 39.6182C277.623 39.6506 277.599 39.6789 277.57 39.7032C279.128 40.4437 280.65 41.3016 282.107 42.2567C282.309 42.3902 282.366 42.6613 282.232 42.8637C282.151 42.9891 282.009 43.0579 281.868 43.0579ZM258.357 41.9855C258.32 41.9855 258.284 41.9815 258.243 41.9693C258.009 41.9086 257.871 41.6699 257.932 41.4352C258.421 39.5778 259.963 37.9308 261.954 37.1376C262.177 37.0486 262.432 37.1579 262.521 37.3804C262.61 37.603 262.5 37.8579 262.274 37.947C260.562 38.6268 259.19 40.0836 258.773 41.6537C258.729 41.856 258.551 41.9855 258.357 41.9855ZM272.407 38.5985C272.366 38.5985 272.322 38.5904 272.277 38.5782C271.342 38.2909 270.391 38.0441 269.445 37.8417C268.465 37.6313 267.603 37.4937 266.81 37.4249C266.567 37.4047 266.393 37.1902 266.414 36.9515C266.434 36.7127 266.648 36.5306 266.887 36.5549C267.717 36.6277 268.611 36.7694 269.627 36.9879C270.594 37.1943 271.573 37.4492 272.532 37.7406C272.763 37.8094 272.892 38.0562 272.823 38.2869C272.767 38.4771 272.593 38.5985 272.407 38.5985ZM280.889 30.0519C280.868 30.0519 280.848 30.0519 280.828 30.0479C280.589 30.0155 280.423 29.7929 280.456 29.5542C280.617 28.4211 280.698 27.2718 280.698 26.1388C280.698 25.4185 280.666 24.6941 280.601 23.9859C280.581 23.7472 280.755 23.5327 280.998 23.5125C281.232 23.4882 281.451 23.6663 281.471 23.9091C281.54 24.6455 281.572 25.3942 281.572 26.1428C281.572 27.3164 281.487 28.5061 281.321 29.6796C281.293 29.8941 281.103 30.0519 280.889 30.0519ZM280.103 19.6681C279.917 19.6681 279.743 19.5467 279.687 19.3606C279.492 18.7374 279.266 18.1183 279.019 17.5234C278.558 16.4227 277.999 15.3382 277.364 14.3063C277.238 14.0999 277.299 13.8328 277.505 13.7034C277.712 13.5779 277.979 13.6427 278.108 13.845C278.768 14.9133 279.347 16.0383 279.824 17.1835C280.083 17.8026 280.318 18.446 280.52 19.0976C280.593 19.3282 280.464 19.5751 280.233 19.6439C280.188 19.6641 280.144 19.6681 280.103 19.6681ZM224.583 17.2361C224.494 17.2361 224.409 17.2118 224.332 17.1552C224.134 17.0135 224.089 16.7424 224.227 16.5441C225.328 14.9942 226.554 13.501 227.881 12.113C228.047 11.939 228.326 11.9309 228.5 12.0968C228.674 12.2627 228.682 12.542 228.517 12.716C227.222 14.0756 226.02 15.5324 224.943 17.0499C224.854 17.1713 224.721 17.2361 224.583 17.2361ZM274.835 10.6926C274.717 10.6926 274.6 10.6441 274.511 10.551C273.269 9.19941 271.86 7.95304 270.323 6.85234C270.124 6.71071 270.08 6.43958 270.221 6.24129C270.363 6.04705 270.634 5.99849 270.833 6.14013C272.419 7.27724 273.872 8.56003 275.154 9.95614C275.316 10.1342 275.304 10.4094 275.13 10.5753C275.045 10.6522 274.94 10.6926 274.835 10.6926ZM231.721 9.5798C231.596 9.5798 231.471 9.52719 231.382 9.42198C231.228 9.23583 231.256 8.96066 231.442 8.80688C232.931 7.58479 234.51 6.47195 236.136 5.49671C236.343 5.37126 236.614 5.44005 236.735 5.64643C236.861 5.85281 236.792 6.12394 236.586 6.24534C234.995 7.20035 233.449 8.28891 231.997 9.48268C231.916 9.54742 231.819 9.5798 231.721 9.5798ZM266.454 4.4648C266.389 4.4648 266.325 4.44862 266.26 4.42029C264.589 3.59477 262.828 2.92302 261.031 2.42933C260.797 2.36458 260.663 2.12583 260.728 1.89112C260.793 1.65642 261.036 1.52288 261.266 1.58762C263.116 2.10155 264.928 2.78948 266.648 3.63928C266.867 3.7445 266.956 4.00753 266.847 4.22605C266.77 4.37578 266.616 4.4648 266.454 4.4648ZM240.64 4.1087C240.47 4.1087 240.308 4.01158 240.24 3.84566C240.143 3.6231 240.244 3.36816 240.466 3.27104C242.247 2.50217 244.08 1.88303 245.913 1.4298C246.148 1.37315 246.387 1.51478 246.443 1.74949C246.5 1.9842 246.358 2.2189 246.124 2.2796C244.335 2.72069 242.55 3.32364 240.814 4.07632C240.754 4.09656 240.697 4.1087 240.64 4.1087ZM256.43 1.53906C256.414 1.53906 256.398 1.53906 256.382 1.53502C255.135 1.40148 253.877 1.34887 252.635 1.38529C252.024 1.40148 251.404 1.4379 250.789 1.49455C250.534 1.51478 250.336 1.33673 250.316 1.09798C250.296 0.859222 250.474 0.644749 250.712 0.624516C251.344 0.567862 251.983 0.531443 252.61 0.511209C253.893 0.474789 255.188 0.527395 256.475 0.664982C256.714 0.689262 256.888 0.907783 256.863 1.14654C256.843 1.37315 256.653 1.53906 256.43 1.53906Z" fill="#F67952"/>
<path d="M19.7366 130.304C19.6759 130.304 19.6112 130.292 19.5505 130.264C17.8306 129.458 16.1634 128.471 14.5933 127.334C14.3991 127.192 14.3545 126.917 14.4962 126.723C14.6378 126.529 14.913 126.484 15.1072 126.626C16.6328 127.731 18.2515 128.686 19.9228 129.471C20.1413 129.572 20.2344 129.835 20.1332 130.053C20.0603 130.211 19.9025 130.304 19.7366 130.304ZM11.1819 124.319C11.0727 124.319 10.9594 124.279 10.8744 124.194C9.52282 122.87 8.26025 121.402 7.11909 119.84C6.97746 119.645 7.01793 119.37 7.21621 119.228C7.41045 119.087 7.68563 119.131 7.82726 119.326C8.94009 120.851 10.1703 122.28 11.4895 123.571C11.6635 123.741 11.6635 124.016 11.4935 124.19C11.4086 124.275 11.2953 124.319 11.1819 124.319ZM4.90557 115.955C4.75179 115.955 4.60206 115.874 4.52113 115.728C3.61063 114.053 2.82153 112.288 2.17002 110.484C2.08908 110.257 2.20644 110.006 2.43305 109.925C2.65966 109.844 2.91056 109.962 2.99149 110.188C3.62682 111.953 4.39973 113.672 5.29 115.311C5.40735 115.522 5.32642 115.789 5.11599 115.906C5.0472 115.934 4.97841 115.955 4.90557 115.955ZM1.23928 106.154C1.03695 106.154 0.858896 106.016 0.814382 105.81C0.397575 103.928 0.122401 102.014 0.00100058 100.12C-0.0151861 99.8773 0.166915 99.6709 0.409715 99.6547C0.652515 99.6385 0.858896 99.8206 0.875083 100.063C0.992436 101.913 1.25952 103.782 1.66823 105.62C1.72084 105.854 1.57111 106.089 1.3364 106.142C1.30403 106.15 1.27165 106.154 1.23928 106.154ZM0.458273 95.7254C0.446133 95.7254 0.438042 95.7254 0.425902 95.7254C0.183102 95.7092 0.00504848 95.4988 0.0212352 95.256C0.158822 93.3662 0.442087 91.4562 0.866988 89.5745C0.919594 89.3398 1.1543 89.19 1.38901 89.2426C1.62372 89.2953 1.77344 89.53 1.72084 89.7647C1.30807 91.6018 1.02885 93.4714 0.895314 95.3167C0.879128 95.5474 0.684887 95.7254 0.458273 95.7254ZM2.63134 85.4873C2.58278 85.4873 2.53422 85.4792 2.48566 85.4631C2.25904 85.3821 2.13764 85.1312 2.21858 84.9046C2.84986 83.1241 3.61468 81.3516 4.4928 79.6358C4.60206 79.4214 4.8651 79.3364 5.07957 79.4457C5.29405 79.5549 5.37902 79.8179 5.26976 80.0324C4.40782 81.7118 3.65919 83.4519 3.04005 85.196C2.97935 85.3781 2.80939 85.4873 2.63134 85.4873ZM7.30119 76.1193C7.22026 76.1193 7.13528 76.095 7.06244 76.0465C6.86011 75.9129 6.80345 75.6418 6.93699 75.4395C7.97699 73.8532 9.13029 72.3073 10.3686 70.8465C10.5264 70.6644 10.8016 70.6401 10.9837 70.7939C11.1698 70.9517 11.19 71.2269 11.0363 71.409C9.82227 72.8455 8.6892 74.363 7.66944 75.917C7.58041 76.0505 7.44283 76.1193 7.30119 76.1193ZM13.9903 68.0583C13.877 68.0583 13.7597 68.0138 13.6747 67.9248C13.5088 67.7508 13.5128 67.4756 13.6868 67.3056C15.0627 65.9783 16.5276 64.7279 18.0451 63.5787C18.2353 63.433 18.5105 63.4694 18.6562 63.6636C18.8018 63.8579 18.7654 64.129 18.5712 64.2747C17.082 65.3997 15.6414 66.6339 14.2938 67.9329C14.2089 68.0179 14.0996 68.0583 13.9903 68.0583ZM22.2901 61.6646C22.1403 61.6646 21.9987 61.5877 21.9137 61.4542C21.7883 61.2478 21.853 60.9767 22.0594 60.8553C23.674 59.876 25.3777 58.9695 27.1177 58.1642C27.3363 58.0631 27.5952 58.1602 27.6964 58.3787C27.7976 58.5972 27.7005 58.8562 27.4819 58.9574C25.7702 59.7505 24.0949 60.6408 22.5086 61.6039C22.4438 61.6444 22.3669 61.6646 22.2901 61.6646ZM31.7552 57.1768C31.5772 57.1768 31.4072 57.0635 31.3425 56.8855C31.2615 56.6589 31.3789 56.408 31.6055 56.327C33.3779 55.6917 35.2232 55.1373 37.0887 54.6719C37.3234 54.6112 37.5622 54.7569 37.6189 54.9916C37.6755 55.2263 37.5339 55.4651 37.2992 55.5217C35.462 55.979 33.645 56.5253 31.9009 57.1485C31.8523 57.1687 31.8038 57.1768 31.7552 57.1768ZM41.9043 54.5708C41.6938 54.5708 41.5077 54.417 41.4753 54.2025C41.4349 53.9638 41.5967 53.7412 41.8355 53.7007C43.6969 53.3972 45.607 53.1706 47.521 53.033C47.7679 53.0209 47.9702 53.199 47.9905 53.4377C48.0066 53.6805 47.8245 53.8869 47.5858 53.9071C45.7 54.0407 43.8143 54.2632 41.9812 54.5627C41.9528 54.5667 41.9286 54.5708 41.9043 54.5708ZM58.0383 53.9962C58.0262 53.9962 58.0141 53.9962 57.9979 53.9962C56.1243 53.8302 54.2264 53.7453 52.3568 53.7412C52.114 53.7412 51.9198 53.5429 51.9198 53.3042C51.9198 53.0614 52.114 52.8671 52.3568 52.8671C54.2507 52.8712 56.1728 52.9562 58.0707 53.1261C58.3095 53.1464 58.4875 53.3608 58.4673 53.5996C58.4511 53.8262 58.2609 53.9962 58.0383 53.9962Z" fill="#F67952"/>
<path d="M148.154 160.654L145.365 142.096V133.938H142.266V138.681C142.266 140.566 140.736 142.096 138.85 142.096C136.965 142.096 135.435 140.566 135.435 138.681V133.938H132.335V142.096H132.351L129.458 160.654H148.154Z" fill="#F67952"/>
<path d="M148.154 161.091H129.458C129.329 161.091 129.207 161.035 129.126 160.937C129.041 160.84 129.005 160.711 129.025 160.585L131.898 142.149C131.894 142.133 131.894 142.112 131.894 142.096V133.938C131.894 133.695 132.088 133.501 132.331 133.501H135.431C135.674 133.501 135.868 133.695 135.868 133.938V138.681C135.868 140.324 137.203 141.659 138.846 141.659C140.489 141.659 141.825 140.324 141.825 138.681V133.938C141.825 133.695 142.019 133.501 142.262 133.501H145.361C145.604 133.501 145.798 133.695 145.798 133.938V142.064L148.583 160.589C148.603 160.715 148.566 160.844 148.481 160.942C148.4 161.035 148.279 161.091 148.154 161.091ZM129.972 160.217H147.648L144.937 142.165C144.932 142.145 144.932 142.12 144.932 142.1V134.375H142.707V138.681C142.707 140.805 140.979 142.533 138.854 142.533C136.73 142.533 135.002 140.805 135.002 138.681V134.375H132.776V141.991C132.792 142.048 132.797 142.108 132.788 142.165L129.972 160.217Z" fill="black"/>
<path d="M174.582 180.318C174.704 180.471 174.765 180.67 174.765 180.908C174.765 181.228 174.643 181.471 174.404 181.641C174.166 181.811 173.818 181.9 173.356 181.9H171.604V178.23H173.251C173.672 178.23 173.996 178.315 174.222 178.48C174.453 178.646 174.566 178.881 174.566 179.176C174.566 179.367 174.522 179.537 174.433 179.674C174.344 179.812 174.222 179.921 174.073 179.994C174.295 180.055 174.461 180.164 174.582 180.318ZM172.134 178.654V179.828H173.211C173.482 179.828 173.688 179.779 173.834 179.678C173.98 179.577 174.052 179.431 174.052 179.241C174.052 179.047 173.98 178.901 173.834 178.804C173.688 178.703 173.482 178.654 173.211 178.654H172.134ZM174.012 181.329C174.162 181.232 174.239 181.078 174.239 180.868C174.239 180.459 173.939 180.253 173.34 180.253H172.134V181.475H173.34C173.64 181.475 173.862 181.426 174.012 181.329Z" fill="#F67952"/>
<path d="M177.006 181.523C176.735 181.244 176.598 180.843 176.598 180.317V178.229H177.12V180.293C177.12 181.078 177.464 181.47 178.152 181.47C178.488 181.47 178.743 181.373 178.921 181.179C179.099 180.985 179.188 180.689 179.188 180.289V178.225H179.698V180.313C179.698 180.839 179.56 181.244 179.289 181.523C179.018 181.802 178.633 181.94 178.144 181.94C177.654 181.94 177.278 181.802 177.006 181.523Z" fill="#F67952"/>
<path d="M183.178 180.629V181.899H182.66V180.62L181.203 178.229H181.765L182.939 180.163L184.116 178.229H184.634L183.178 180.629Z" fill="#F67952"/>
<path d="M183.874 188.325H172.697C168.29 188.325 164.704 184.74 164.704 180.333C164.704 175.926 168.29 172.341 172.697 172.341H183.874C188.28 172.341 191.866 175.926 191.866 180.333C191.862 184.74 188.28 188.325 183.874 188.325ZM172.697 173.219C168.771 173.219 165.583 176.412 165.583 180.333C165.583 184.254 168.775 187.447 172.697 187.447H183.874C187.799 187.447 190.988 184.254 190.988 180.333C190.988 176.412 187.795 173.219 183.874 173.219H172.697Z" fill="black"/>
<path d="M60.6323 15.7509L56.3752 11.4938C54.1941 9.31268 50.6532 9.31268 48.4721 11.4938L44.215 15.7509C42.0338 17.9321 42.0338 21.4729 44.215 23.6541L48.4721 27.9112C50.6532 30.0923 54.1941 30.0923 56.3752 27.9112L60.6323 23.6541C62.8135 21.4689 62.8135 17.9321 60.6323 15.7509Z" fill="#F67952"/>
<path d="M57.5771 27.806C56.0353 27.806 54.4895 27.2193 53.316 26.0457L49.0589 21.7886C46.7078 19.4375 46.7078 15.6175 49.0589 13.2663L53.316 9.00925C55.6671 6.65813 59.4871 6.65813 61.8383 9.00925L66.0953 13.2663C68.4465 15.6175 68.4465 19.4375 66.0953 21.7886L61.8383 26.0457C60.6607 27.2193 59.1189 27.806 57.5771 27.806ZM57.5771 8.12303C56.2579 8.12303 54.9387 8.62481 53.9351 9.62839L49.678 13.8855C47.6709 15.8926 47.6709 19.1623 49.678 21.1695L53.9351 25.4266C55.9423 27.4337 59.212 27.4337 61.2191 25.4266L65.4762 21.1695C67.4834 19.1623 67.4834 15.8926 65.4762 13.8855L61.2191 9.62839C60.2155 8.62481 58.8963 8.12303 57.5771 8.12303Z" fill="black"/>
<path d="M322.699 101.2L320.004 98.5053C318.62 97.1214 316.378 97.1214 314.998 98.5053L312.303 101.2C310.919 102.584 310.919 104.826 312.303 106.206L314.998 108.901C316.382 110.285 318.62 110.285 320.004 108.901L322.699 106.206C324.079 104.822 324.079 102.58 322.699 101.2Z" fill="#F67952"/>
<path d="M309.676 112.79C308.616 112.79 307.617 112.377 306.864 111.625L304.169 108.93C303.416 108.177 303.003 107.182 303.003 106.117C303.003 105.053 303.416 104.057 304.169 103.305L306.864 100.61C307.617 99.857 308.612 99.4443 309.676 99.4443C310.737 99.4443 311.736 99.857 312.489 100.61L315.184 103.305C315.937 104.057 316.349 105.053 316.349 106.117C316.349 107.182 315.937 108.177 315.184 108.93L312.489 111.625C311.736 112.377 310.737 112.79 309.676 112.79ZM309.676 100.318C308.847 100.318 308.07 100.642 307.483 101.229L304.788 103.924C304.201 104.511 303.877 105.288 303.877 106.117C303.877 106.947 304.201 107.724 304.788 108.311L307.483 111.006C308.07 111.592 308.847 111.916 309.676 111.916C310.506 111.916 311.283 111.592 311.87 111.006L314.565 108.311C315.152 107.724 315.475 106.947 315.475 106.117C315.475 105.288 315.152 104.511 314.565 103.924L311.87 101.229C311.283 100.642 310.506 100.318 309.676 100.318Z" fill="black"/>
<path d="M178.285 12.8091C177.795 12.8091 177.338 12.6189 176.99 12.2749L175.93 11.2147C175.218 10.5025 175.218 9.34109 175.93 8.62887L176.99 7.56865C177.334 7.22468 177.795 7.03448 178.285 7.03448C178.775 7.03448 179.232 7.22468 179.58 7.56865L180.64 8.62887C181.352 9.34109 181.352 10.5025 180.64 11.2147L179.58 12.2749C179.232 12.6189 178.775 12.8091 178.285 12.8091ZM178.285 7.90452C178.03 7.90452 177.791 8.00569 177.609 8.18374L176.549 9.24397C176.177 9.61626 176.177 10.2233 176.549 10.5956L177.609 11.6558C177.969 12.0159 178.601 12.0159 178.961 11.6558L180.021 10.5956C180.393 10.2233 180.393 9.61626 180.021 9.24397L178.961 8.18374C178.779 8.00164 178.54 7.90452 178.285 7.90452Z" fill="#F67952"/>
<path d="M119.952 19.0612C119.681 19.0612 119.41 18.96 119.204 18.7496L118.73 18.2761C118.317 17.8634 118.317 17.1916 118.73 16.7789L119.204 16.3054C119.616 15.8927 120.288 15.8927 120.701 16.3054L121.174 16.7789C121.587 17.1916 121.587 17.8634 121.174 18.2761L120.701 18.7496C120.495 18.956 120.223 19.0612 119.952 19.0612ZM119.952 16.872C119.904 16.872 119.859 16.8881 119.823 16.9246L119.349 17.398C119.277 17.4709 119.277 17.5882 119.349 17.657L119.823 18.1305C119.896 18.2033 120.013 18.2033 120.082 18.1305L120.555 17.657C120.628 17.5842 120.628 17.4668 120.555 17.398L120.082 16.9246C120.049 16.8881 120.001 16.872 119.952 16.872Z" fill="#F67952"/>
<path d="M24.8638 101.063C24.3782 101.063 23.9169 100.873 23.5729 100.529L22.5167 99.4724C21.8045 98.7602 21.8045 97.6028 22.5167 96.8947L23.5729 95.8385C24.2851 95.1263 25.4384 95.1263 26.1506 95.8385L27.2068 96.8947C27.919 97.6069 27.919 98.7602 27.2068 99.4724L26.1506 100.529C25.8107 100.873 25.3534 101.063 24.8638 101.063ZM24.8638 96.1784C24.621 96.1784 24.3782 96.2715 24.192 96.4576L23.1358 97.5138C22.7676 97.8821 22.7676 98.485 23.1358 98.8533L24.192 99.9094C24.5603 100.278 25.1632 100.278 25.5315 99.9094L26.5877 98.8533C26.9559 98.485 26.9559 97.8821 26.5877 97.5138L25.5315 96.4576C25.3494 96.2715 25.1066 96.1784 24.8638 96.1784Z" fill="#F67952"/>
<path d="M14.1239 174.623C13.4521 174.623 12.7804 174.368 12.2705 173.858L10.6073 172.195C9.58353 171.171 9.58353 169.508 10.6073 168.488L12.2705 166.825C13.2943 165.801 14.9535 165.801 15.9773 166.825L17.6404 168.488C18.1341 168.982 18.4093 169.642 18.4093 170.342C18.4093 171.042 18.1382 171.701 17.6404 172.195L15.9773 173.858C15.4674 174.368 14.7956 174.623 14.1239 174.623ZM14.1239 166.93C13.6747 166.93 13.2296 167.1 12.8897 167.44L11.2265 169.103C10.5466 169.783 10.5466 170.892 11.2265 171.572L12.8897 173.235C13.5695 173.915 14.6783 173.915 15.3581 173.235L17.0213 171.572C17.3531 171.24 17.5312 170.803 17.5312 170.338C17.5312 169.872 17.3491 169.431 17.0213 169.103L15.3581 167.44C15.0182 167.1 14.569 166.93 14.1239 166.93Z" fill="#F67952"/>
</svg>
