<svg width="22" height="27" viewBox="0 0 22 27" fill="none" xmlns="http://www.w3.org/2000/svg">
<path fill-rule="evenodd" clip-rule="evenodd" d="M6.39182 25.2447L6.83025 22.4486L5.85358 22.4257H1.18982L4.43097 1.79156C4.44107 1.72908 4.47371 1.67108 4.52138 1.62982C4.56929 1.58855 4.63034 1.56592 4.69422 1.56592H12.558C15.1689 1.56592 16.9705 2.11129 17.911 3.18787C18.3521 3.69292 18.6329 4.22084 18.7689 4.80158C18.9114 5.41108 18.9138 6.13918 18.7747 7.02737L18.7647 7.09198V7.66116L19.2057 7.91203C19.5769 8.10986 19.8721 8.33621 20.0985 8.59533C20.4756 9.02729 20.7196 9.57619 20.8227 10.2267C20.9293 10.8959 20.8941 11.6924 20.7196 12.594C20.5184 13.631 20.1931 14.5343 19.7538 15.2732C19.3499 15.9541 18.8351 16.5191 18.2238 16.9567C17.6403 17.3726 16.9471 17.6883 16.1632 17.8904C15.4035 18.0889 14.5374 18.1891 13.5875 18.1891H12.9756C12.5381 18.1891 12.113 18.3473 11.7793 18.631C11.4447 18.9205 11.2235 19.3162 11.1556 19.7488L11.1094 20.0007L10.3347 24.9292L10.2997 25.1101C10.2903 25.1674 10.2743 25.1959 10.2508 25.2152C10.2299 25.2329 10.1999 25.2447 10.1705 25.2447H6.39182Z" fill="#28356A"/>
<path fill-rule="evenodd" clip-rule="evenodd" d="M19.6237 7.15747C19.6004 7.30814 19.5734 7.4621 19.5433 7.62031C18.5063 12.9665 14.9582 14.8134 10.4269 14.8134H8.1197C7.5655 14.8134 7.09842 15.2173 7.01223 15.7662L5.49639 25.4203C5.44027 25.7808 5.7169 26.1055 6.07901 26.1055H10.1712C10.6557 26.1055 11.0673 25.7521 11.1436 25.2722L11.1838 25.0636L11.9543 20.1543L12.0038 19.8851C12.0792 19.4036 12.4918 19.0499 12.9763 19.0499H13.5882C17.5529 19.0499 20.6567 17.4339 21.5638 12.7569C21.9426 10.8032 21.7465 9.17177 20.7438 8.02445C20.4404 7.67855 20.064 7.39137 19.6237 7.15747Z" fill="#298FC2"/>
<path fill-rule="evenodd" clip-rule="evenodd" d="M18.5383 6.72327C18.3798 6.67682 18.2164 6.63485 18.0487 6.59689C17.8801 6.55987 17.7075 6.52709 17.5297 6.49833C16.9077 6.39741 16.2259 6.34955 15.4958 6.34955H9.33221C9.18027 6.34955 9.03608 6.38397 8.90716 6.44622C8.62278 6.58345 8.41167 6.85365 8.36047 7.18446L7.04917 15.5232L7.0116 15.7663C7.09778 15.2174 7.56486 14.8135 8.11906 14.8135H10.4263C14.9576 14.8135 18.5057 12.9656 19.5427 7.62042C19.5737 7.46221 19.5998 7.30824 19.623 7.15758C19.3607 7.01776 19.0766 6.89822 18.7706 6.79636C18.695 6.77113 18.617 6.74684 18.5383 6.72327Z" fill="#22284F"/>
<path fill-rule="evenodd" clip-rule="evenodd" d="M8.36073 7.18466C8.41192 6.85386 8.62304 6.58365 8.90742 6.44737C9.03728 6.38489 9.18053 6.35046 9.33246 6.35046H15.4961C16.2262 6.35046 16.9079 6.39856 17.53 6.49948C17.7078 6.52801 17.8804 6.56102 18.049 6.59803C18.2166 6.63576 18.3801 6.67797 18.5386 6.72418C18.6173 6.74776 18.6952 6.77228 18.7715 6.79656C19.0775 6.89842 19.3619 7.01891 19.6242 7.15778C19.9328 5.18216 19.6216 3.83701 18.5578 2.61895C17.3849 1.27782 15.2681 0.703918 12.5593 0.703918H4.69524C4.14197 0.703918 3.66996 1.10782 3.58448 1.65766L0.309042 22.504C0.244463 22.9164 0.561251 23.2884 0.975495 23.2884H5.83041L8.36073 7.18466Z" fill="#28356A"/>
</svg>
