<svg width="7" height="7" viewBox="0 0 7 7" fill="none" xmlns="http://www.w3.org/2000/svg">
<path fill-rule="evenodd" clip-rule="evenodd" d="M5.95837 4.24491H4.2455V5.97491C4.2455 6.38491 3.91877 6.71491 3.51283 6.71491C3.10689 6.71491 2.77025 6.38491 2.77025 5.97491V4.24491H1.06728C0.661341 4.24491 0.324707 3.91491 0.324707 3.50491C0.324707 3.08491 0.661341 2.75491 1.06728 2.75491H2.77025V1.02491C2.77025 0.614912 3.10689 0.284912 3.51283 0.284912C3.91877 0.284912 4.2455 0.614912 4.2455 1.02491V2.75491H5.95837C6.36431 2.75491 6.70094 3.08491 6.70094 3.50491C6.70094 3.91491 6.36431 4.24491 5.95837 4.24491Z" fill="#F67952"/>
</svg>
