<svg width="18" height="19" viewBox="0 0 18 19" fill="none" xmlns="http://www.w3.org/2000/svg">
<path fill-rule="evenodd" clip-rule="evenodd" d="M15.3016 10.6851C15.5699 10.8276 15.7768 11.0526 15.9225 11.2776C16.2061 11.7426 16.1831 12.3126 15.9071 12.8151L15.3706 13.7151C15.087 14.1951 14.5582 14.4951 14.014 14.4951C13.7457 14.4951 13.4468 14.4201 13.2015 14.2701C13.0022 14.1426 12.7723 14.0976 12.527 14.0976C11.7682 14.0976 11.1321 14.7201 11.1091 15.4626C11.1091 16.3251 10.4039 17.0001 9.52247 17.0001H8.48007C7.59097 17.0001 6.88582 16.3251 6.88582 15.4626C6.87049 14.7201 6.23432 14.0976 5.47552 14.0976C5.22258 14.0976 4.99264 14.1426 4.80102 14.2701C4.55576 14.4201 4.24917 14.4951 3.98857 14.4951C3.43671 14.4951 2.90785 14.1951 2.62426 13.7151L2.09539 12.8151C1.8118 12.3276 1.79647 11.7426 2.08006 11.2776C2.2027 11.0526 2.43264 10.8276 2.69324 10.6851C2.90785 10.5801 3.04581 10.4076 3.17611 10.2051C3.55935 9.56006 3.32941 8.71256 2.67791 8.33006C1.91911 7.90256 1.67384 6.95006 2.11072 6.20756L2.62426 5.32256C3.06881 4.58006 4.01923 4.31756 4.7857 4.75256C5.45252 5.11256 6.31863 4.87256 6.70953 4.23506C6.83217 4.02506 6.90115 3.80006 6.88582 3.57506C6.87049 3.28256 6.9548 3.00506 7.10043 2.78006C7.38402 2.31506 7.89756 2.01506 8.45708 2.00006H9.5378C10.105 2.00006 10.6185 2.31506 10.9021 2.78006C11.0401 3.00506 11.1321 3.28256 11.1091 3.57506C11.0937 3.80006 11.1627 4.02506 11.2853 4.23506C11.6762 4.87256 12.5424 5.11256 13.2168 4.75256C13.9756 4.31756 14.9337 4.58006 15.3706 5.32256L15.8842 6.20756C16.3287 6.95006 16.0834 7.90256 15.317 8.33006C14.6655 8.71256 14.4355 9.56006 14.8264 10.2051C14.9491 10.4076 15.087 10.5801 15.3016 10.6851ZM6.83219 9.50755C6.83219 10.685 7.8056 11.6225 9.00896 11.6225C10.2123 11.6225 11.1627 10.685 11.1627 9.50755C11.1627 8.33005 10.2123 7.38505 9.00896 7.38505C7.8056 7.38505 6.83219 8.33005 6.83219 9.50755Z" fill="#F67952"/>
</svg>
