<svg width="24" height="24" viewBox="0 0 24 24" fill="none" xmlns="http://www.w3.org/2000/svg">
<g clip-path="url(#clip0_33_629)">
<path d="M23.44 9.32272C23.2895 8.85699 22.8764 8.52621 22.3877 8.48217L15.7493 7.87939L13.1242 1.73529C12.9307 1.285 12.4899 0.99353 12.0001 0.99353C11.5104 0.99353 11.0695 1.285 10.876 1.73634L8.25097 7.87939L1.61149 8.48217C1.12366 8.52726 0.711627 8.85699 0.560187 9.32272C0.408747 9.78844 0.548605 10.2993 0.917641 10.6213L5.93551 15.022L4.45586 21.5399C4.34758 22.0191 4.53359 22.5145 4.93123 22.8019C5.14497 22.9563 5.39503 23.035 5.64719 23.035C5.86461 23.035 6.08028 22.9763 6.27384 22.8605L12.0001 19.4381L17.7243 22.8605C18.1432 23.1125 18.6712 23.0895 19.0679 22.8019C19.4658 22.5136 19.6516 22.018 19.5433 21.5399L18.0637 15.022L23.0815 10.6222C23.4506 10.2993 23.5915 9.78932 23.44 9.32272Z" fill="#FFC107"/>
</g>
<defs>
<clipPath id="clip0_33_629">
<rect width="23" height="23" fill="white" transform="translate(0.5 0.5)"/>
</clipPath>
</defs>
</svg>
