<svg width="23" height="24" viewBox="0 0 23 24" fill="none" xmlns="http://www.w3.org/2000/svg">
<path fill-rule="evenodd" clip-rule="evenodd" d="M20.8794 10.6C20.7496 10.726 20.5735 10.798 20.3882 10.798C19.7023 10.798 19.1462 11.3383 19.1462 11.9955C19.1462 12.6573 19.6958 13.1948 20.3752 13.202C20.758 13.2056 21.0833 13.4649 21.0833 13.8368V16.1463C21.0833 18.0902 19.4614 19.6667 17.4594 19.6667H14.438C14.1256 19.6667 13.8726 19.4209 13.8726 19.1175V17.1727C13.8726 16.7945 13.5668 16.4974 13.1775 16.4974C12.7975 16.4974 12.4824 16.7945 12.4824 17.1727V19.1175C12.4824 19.4209 12.2294 19.6667 11.918 19.6667H5.5405C3.54783 19.6667 1.91663 18.0911 1.91663 16.1463V13.8368C1.91663 13.4649 2.24194 13.2056 2.62472 13.202C3.305 13.1948 3.85368 12.6573 3.85368 11.9955C3.85368 11.3563 3.31613 10.8701 2.61174 10.8701C2.42638 10.8701 2.25028 10.798 2.12053 10.672C1.99077 10.5459 1.91663 10.3749 1.91663 10.1948V7.86283C1.91663 5.92163 3.55154 4.33337 5.54977 4.33337H11.918C12.2294 4.33337 12.4824 4.57918 12.4824 4.8826V7.18755C12.4824 7.55671 12.7975 7.86283 13.1775 7.86283C13.5668 7.86283 13.8726 7.55671 13.8726 7.18755V4.8826C13.8726 4.57918 14.1256 4.33337 14.438 4.33337H17.4594C19.4614 4.33337 21.0833 5.90902 21.0833 7.85383V10.1228C21.0833 10.3028 21.0091 10.4739 20.8794 10.6ZM13.1775 14.7507C13.5668 14.7507 13.8726 14.4445 13.8726 14.0754V10.4739C13.8726 10.1048 13.5668 9.79863 13.1775 9.79863C12.7975 9.79863 12.4824 10.1048 12.4824 10.4739V14.0754C12.4824 14.4445 12.7975 14.7507 13.1775 14.7507Z" fill="#297EFF"/>
</svg>
