<svg width="44" height="15" viewBox="0 0 44 15" fill="none" xmlns="http://www.w3.org/2000/svg">
<path fill-rule="evenodd" clip-rule="evenodd" d="M11.2721 14.1597H7.55071L4.76013 3.51343C4.62768 3.02371 4.34644 2.59076 3.93275 2.38671C2.90035 1.87391 1.7627 1.46581 0.521637 1.25998V0.850101H6.51649C7.34387 0.850101 7.9644 1.46581 8.06782 2.18088L9.51573 9.86036L13.2353 0.850101H16.8533L11.2721 14.1597ZM18.9217 14.1597H15.4072L18.3012 0.850101H21.8157L18.9217 14.1597ZM26.3626 4.5372C26.4661 3.82035 27.0866 3.41047 27.8105 3.41047C28.9482 3.30756 30.1874 3.51339 31.2217 4.02441L31.8422 1.1588C30.808 0.748918 29.6703 0.543091 28.6379 0.543091C25.2268 0.543091 22.7447 2.38666 22.7447 4.94531C22.7447 6.89179 24.5028 7.91383 25.7439 8.52953C27.0866 9.14347 27.6037 9.55335 27.5003 10.1673C27.5003 11.0882 26.4661 11.4981 25.4336 11.4981C24.1926 11.4981 22.9515 11.1911 21.8157 10.6783L21.1952 13.5457C22.4362 14.0567 23.7789 14.2625 25.02 14.2625C28.8448 14.3637 31.2217 12.5219 31.2217 9.7574C31.2217 6.27608 26.3626 6.07203 26.3626 4.5372ZM43.5217 14.1597L40.7311 0.850101H37.7336C37.1131 0.850101 36.4926 1.25998 36.2857 1.87391L31.1183 14.1597H34.7362L35.4584 12.2149H39.9037L40.3174 14.1597H43.5217ZM38.2507 4.43422L39.2831 9.45037H36.3891L38.2507 4.43422Z" fill="#172B85"/>
</svg>
