<svg width="16" height="15" viewBox="0 0 16 15" fill="none" xmlns="http://www.w3.org/2000/svg">
<path fill-rule="evenodd" clip-rule="evenodd" d="M12.3267 4.78635H15.5C15.5 2.23844 13.9733 0.75 11.3867 0.75H4.61333C2.02667 0.75 0.5 2.23844 0.5 4.75385V10.2461C0.5 12.7616 2.02667 14.25 4.61333 14.25H11.3867C13.9733 14.25 15.5 12.7616 15.5 10.2461V10.0122H12.3267C10.8539 10.0122 9.66 8.84814 9.66 7.41225C9.66 5.97637 10.8539 4.81235 12.3267 4.81235V4.78635ZM12.3267 5.9043H14.94C15.2493 5.9043 15.5 6.14875 15.5 6.45028V8.34821C15.4964 8.64828 15.2478 8.89068 14.94 8.89419H12.3867C11.6411 8.90397 10.9891 8.40627 10.82 7.69824C10.7353 7.25871 10.8542 6.80517 11.1448 6.45916C11.4354 6.11314 11.868 5.91005 12.3267 5.9043ZM12.44 7.89972H12.6867C13.0033 7.89972 13.26 7.64946 13.26 7.34075C13.26 7.03203 13.0033 6.78177 12.6867 6.78177H12.44C12.2886 6.78003 12.1427 6.83747 12.035 6.94127C11.9273 7.04507 11.8667 7.18659 11.8667 7.33425C11.8667 7.64403 12.1223 7.89616 12.44 7.89972ZM4.05332 4.78634H8.28665C8.6033 4.78634 8.85999 4.53608 8.85999 4.22736C8.85999 3.91864 8.6033 3.66838 8.28665 3.66838H4.05332C3.73926 3.66836 3.48364 3.91469 3.47999 4.22086C3.47997 4.53064 3.7356 4.78278 4.05332 4.78634Z" fill="#F67952"/>
</svg>
